<svg xmlns="http://www.w3.org/2000/svg" xmlns:xlink="http://www.w3.org/1999/xlink" width="2114pt" height="1360pt" viewBox="0 0 2114.49 1360.25"><g id="graph0" class="graph" transform="scale(1 1) rotate(0) translate(4 1356.252)"><title>%0</title><polygon fill="#fff" stroke="transparent" points="-4 4 -4 -1356.252 2110.491 -1356.252 2110.491 4 -4 4"/><g id="node1" class="node"><title>zero</title><polygon fill="none" stroke="#000" points="1588.256 -794.485 1534.256 -794.485 1534.256 -758.485 1588.256 -758.485 1588.256 -794.485"/><text x="1561.256" y="-772.285" fill="#000" font-family="Times,serif" font-size="14" text-anchor="middle">zero</text></g><g id="node2" class="node"><title>deployer</title><polygon fill="none" stroke="#000" points="1819.138 -794.485 1754.178 -794.485 1754.178 -758.485 1819.138 -758.485 1819.138 -794.485"/><text x="1786.658" y="-772.285" fill="#000" font-family="Times,serif" font-size="14" text-anchor="middle">deployer</text></g><g id="node3" class="node"><title>MCD_DEPLOY</title><polygon fill="none" stroke="#000" points="1713.165 -907.186 1634.749 -907.186 1634.749 -871.186 1713.165 -871.186 1713.165 -907.186"/><text x="1673.957" y="-884.986" fill="#000" font-family="Times,serif" font-size="14" text-anchor="middle">DssDeploy</text></g><g id="edge9" class="edge"><title>MCD_DEPLOY-&gt;zero</title><path fill="none" stroke="#000" d="M1655.8497,-871.0784C1637.1188,-852.3475 1607.7139,-822.9425 1586.6616,-801.8902"/><polygon fill="#000" stroke="#000" points="1588.865 -799.144 1579.319 -794.547 1583.915 -804.093 1588.865 -799.144"/><text x="1595.982" y="-840.684" fill="#000" font-family="Times,serif" font-size="14" text-anchor="middle">authority</text></g><g id="edge2" class="edge"><title>MCD_DEPLOY-&gt;deployer</title><path fill="none" stroke="#000" d="M1692.0645,-871.0784C1710.7954,-852.3475 1740.2003,-822.9425 1761.2526,-801.8902"/><polygon fill="#000" stroke="#000" points="1763.999 -804.093 1768.596 -794.547 1759.05 -799.144 1763.999 -804.093"/><text x="1709.168" y="-840.684" fill="#000" font-family="Times,serif" font-size="14" text-anchor="middle">owner</text></g><g id="node4" class="node"><title>MCD_VAT</title><polygon fill="none" stroke="#000" points="1296.889 -724.807 1242.889 -724.807 1242.889 -688.807 1296.889 -688.807 1296.889 -724.807"/><text x="1269.889" y="-702.607" fill="#000" font-family="Times,serif" font-size="14" text-anchor="middle">Vat</text></g><g id="node7" class="node"><title>MCD_JUG</title><polygon fill="none" stroke="#000" points="1198.52 -577.588 1144.52 -577.588 1144.52 -541.588 1198.52 -541.588 1198.52 -577.588"/><text x="1171.52" y="-555.388" fill="#000" font-family="Times,serif" font-size="14" text-anchor="middle">Jug</text></g><g id="edge22" class="edge"><title>MCD_VAT-&gt;MCD_JUG</title><path fill="none" stroke="#000" d="M1257.8266,-688.7554C1240.717,-663.1489 1209.2785,-616.0979 1189.437,-586.4031"/><polygon fill="#000" stroke="#000" points="1192.146 -584.158 1183.68 -577.788 1186.326 -588.047 1192.146 -584.158"/><text x="1212.749" y="-641.779" fill="#000" font-family="Times,serif" font-size="14" text-anchor="middle">rely</text></g><g id="node8" class="node"><title>MCD_POT</title><polygon fill="none" stroke="#000" points="556.767 -577.588 502.767 -577.588 502.767 -541.588 556.767 -541.588 556.767 -577.588"/><text x="529.767" y="-555.388" fill="#000" font-family="Times,serif" font-size="14" text-anchor="middle">Pot</text></g><g id="edge23" class="edge"><title>MCD_VAT-&gt;MCD_POT</title><path fill="none" stroke="#000" d="M1242.6695,-701.3931C1129.5482,-678.8919 696.4404,-592.7414 566.7027,-566.935"/><polygon fill="#000" stroke="#000" points="567.333 -563.492 556.842 -564.974 565.967 -570.357 567.333 -563.492"/><text x="893.803" y="-638.364" fill="#000" font-family="Times,serif" font-size="14" text-anchor="middle">rely</text></g><g id="node12" class="node"><title>MCD_CAT</title><polygon fill="none" stroke="#000" points="877.643 -1352.252 823.643 -1352.252 823.643 -1316.252 877.643 -1316.252 877.643 -1352.252"/><text x="850.643" y="-1330.052" fill="#000" font-family="Times,serif" font-size="14" text-anchor="middle">Cat</text></g><g id="edge26" class="edge"><title>MCD_VAT-&gt;MCD_CAT</title><path fill="none" stroke="#000" d="M1257.7935,-724.9089C1198.567,-813.5476 939.1461,-1201.7985 868.4761,-1307.5635"/><polygon fill="#000" stroke="#000" points="865.433 -1305.818 862.788 -1316.077 871.254 -1309.707 865.433 -1305.818"/><text x="1052.252" y="-1020.436" fill="#000" font-family="Times,serif" font-size="14" text-anchor="middle">rely</text></g><g id="node13" class="node"><title>MCD_SPOT</title><polygon fill="none" stroke="#000" points="459.839 -724.807 402.958 -724.807 402.958 -688.807 459.839 -688.807 459.839 -724.807"/><text x="431.398" y="-702.607" fill="#000" font-family="Times,serif" font-size="14" text-anchor="middle">Spotter</text></g><g id="edge20" class="edge"><title>MCD_VAT-&gt;MCD_SPOT</title><path fill="none" stroke="#000" d="M1242.4672,-706.8073C1118.9718,-706.8073 614.2087,-706.8073 470.025,-706.8073"/><polygon fill="#000" stroke="#000" points="469.89 -703.307 459.889 -706.807 469.889 -710.307 469.89 -703.307"/><text x="845.363" y="-711.007" fill="#000" font-family="Times,serif" font-size="14" text-anchor="middle">rely</text></g><g id="node16" class="node"><title>MCD_PAUSE_PROXY</title><polygon fill="none" stroke="#000" points="446.845 -898.464 346.867 -898.464 346.867 -862.464 446.845 -862.464 446.845 -898.464"/><text x="396.856" y="-876.264" fill="#000" font-family="Times,serif" font-size="14" text-anchor="middle">DSPauseProxy</text></g><g id="edge34" class="edge"><title>MCD_VAT-&gt;MCD_PAUSE_PROXY</title><path fill="none" stroke="#000" d="M1242.8031,-712.195C1121.8148,-736.261 629.2324,-834.2418 456.8086,-868.539"/><polygon fill="#000" stroke="#000" points="456.016 -865.128 446.891 -870.512 457.382 -871.994 456.016 -865.128"/><text x="838.923" y="-794.567" fill="#000" font-family="Times,serif" font-size="14" text-anchor="middle">rely</text></g><g id="node22" class="node"><title>MCD_END</title><polygon fill="none" stroke="#000" points="1331.431 -898.464 1277.431 -898.464 1277.431 -862.464 1331.431 -862.464 1331.431 -898.464"/><text x="1304.431" y="-876.264" fill="#000" font-family="Times,serif" font-size="14" text-anchor="middle">End</text></g><g id="edge28" class="edge"><title>MCD_VAT-&gt;MCD_END</title><path fill="none" stroke="#000" d="M1273.5199,-725.0635C1279.5739,-755.4985 1291.7663,-816.7941 1298.8959,-852.6367"/><polygon fill="#000" stroke="#000" points="1295.465 -853.328 1300.848 -862.453 1302.33 -851.962 1295.465 -853.328"/><text x="1275.325" y="-793.05" fill="#000" font-family="Times,serif" font-size="14" text-anchor="middle">rely</text></g><g id="node26" class="node"><title>ETHJoin_A</title><polygon fill="none" stroke="#000" points="1065.955 -479.219 982.646 -479.219 982.646 -443.219 1065.955 -443.219 1065.955 -479.219"/><text x="1024.301" y="-457.019" fill="#000" font-family="Times,serif" font-size="14" text-anchor="middle">ETHJoin_A</text></g><g id="edge43" class="edge"><title>MCD_VAT-&gt;ETHJoin_A</title><path fill="none" stroke="#000" d="M1251.8299,-688.7486C1208.6308,-645.5495 1099.2366,-536.1554 1049.5487,-486.4675"/><polygon fill="#000" stroke="#000" points="1051.932 -483.901 1042.386 -479.304 1046.982 -488.85 1051.932 -483.901"/><text x="1139.806" y="-591.808" fill="#000" font-family="Times,serif" font-size="14" text-anchor="middle">rely</text></g><g id="node28" class="node"><title>BATJoin_A</title><polygon fill="none" stroke="#000" points="893.082 -444.677 808.205 -444.677 808.205 -408.677 893.082 -408.677 893.082 -444.677"/><text x="850.643" y="-422.477" fill="#000" font-family="Times,serif" font-size="14" text-anchor="middle">BATJoin_A</text></g><g id="edge47" class="edge"><title>MCD_VAT-&gt;BATJoin_A</title><path fill="none" stroke="#000" d="M1242.7038,-688.643C1169.524,-639.7459 968.3674,-505.3373 886.2562,-450.4724"/><polygon fill="#000" stroke="#000" points="888.026 -447.445 877.767 -444.8 884.137 -453.266 888.026 -447.445"/><text x="1053.597" y="-573.758" fill="#000" font-family="Times,serif" font-size="14" text-anchor="middle">rely</text></g><g id="node31" class="node"><title>SAIJoin_A</title><polygon fill="none" stroke="#000" points="716.478 -479.219 637.495 -479.219 637.495 -443.219 716.478 -443.219 716.478 -479.219"/><text x="676.986" y="-457.019" fill="#000" font-family="Times,serif" font-size="14" text-anchor="middle">SAIJoin_A</text></g><g id="edge51" class="edge"><title>MCD_VAT-&gt;SAIJoin_A</title><path fill="none" stroke="#000" d="M1242.8721,-695.6168C1150.4542,-657.336 846.0514,-531.2482 726.1475,-481.5824"/><polygon fill="#000" stroke="#000" points="727.398 -478.312 716.82 -477.719 724.719 -484.779 727.398 -478.312"/><text x="973.627" y="-592.8" fill="#000" font-family="Times,serif" font-size="14" text-anchor="middle">rely</text></g><g id="node5" class="node"><title>MCD_DAI</title><polygon fill="none" stroke="#000" points="1555.184 -1106.485 1501.184 -1106.485 1501.184 -1070.485 1555.184 -1070.485 1555.184 -1106.485"/><text x="1528.184" y="-1084.285" fill="#000" font-family="Times,serif" font-size="14" text-anchor="middle">Dai</text></g><g id="node6" class="node"><title>MCD_JOIN_DAI</title><polygon fill="none" stroke="#000" points="1686.506 -1106.485 1627.408 -1106.485 1627.408 -1070.485 1686.506 -1070.485 1686.506 -1106.485"/><text x="1656.957" y="-1084.285" fill="#000" font-family="Times,serif" font-size="14" text-anchor="middle">DaiJoin</text></g><g id="edge21" class="edge"><title>MCD_DAI-&gt;MCD_JOIN_DAI</title><path fill="none" stroke="#000" d="M1555.4931,-1088.4848C1573.3482,-1088.4848 1596.9737,-1088.4848 1616.9346,-1088.4848"/><polygon fill="#000" stroke="#000" points="1616.989 -1091.985 1626.989 -1088.485 1616.989 -1084.985 1616.989 -1091.985"/><text x="1575.331" y="-1092.685" fill="#000" font-family="Times,serif" font-size="14" text-anchor="middle">rely</text></g><g id="edge37" class="edge"><title>MCD_JUG-&gt;MCD_PAUSE_PROXY</title><path fill="none" stroke="#000" d="M1144.4033,-570.82C1031.9883,-617.3838 601.394,-795.7418 449.9313,-858.4798"/><polygon fill="#000" stroke="#000" points="448.264 -855.382 440.365 -862.442 450.943 -861.849 448.264 -855.382"/><text x="786.284" y="-718.85" fill="#000" font-family="Times,serif" font-size="14" text-anchor="middle">rely</text></g><g id="edge38" class="edge"><title>MCD_POT-&gt;MCD_PAUSE_PROXY</title><path fill="none" stroke="#000" d="M522.2404,-577.7591C500.0866,-631.243 435.0018,-788.3718 408.3925,-852.6123"/><polygon fill="#000" stroke="#000" points="405.058 -851.517 404.465 -862.095 411.525 -854.196 405.058 -851.517"/><text x="476.199" y="-719.386" fill="#000" font-family="Times,serif" font-size="14" text-anchor="middle">rely</text></g><g id="edge31" class="edge"><title>MCD_POT-&gt;MCD_END</title><path fill="none" stroke="#000" d="M556.8836,-570.82C673.6646,-619.1923 1133.82,-809.7949 1267.7052,-865.252"/><polygon fill="#000" stroke="#000" points="1266.555 -868.564 1277.133 -869.157 1269.234 -862.097 1266.555 -868.564"/><text x="901.412" y="-722.236" fill="#000" font-family="Times,serif" font-size="14" text-anchor="middle">rely</text></g><g id="node9" class="node"><title>MCD_FLAP</title><polygon fill="none" stroke="#000" points="460.662 -1072.121 402.135 -1072.121 402.135 -1036.121 460.662 -1036.121 460.662 -1072.121"/><text x="431.398" y="-1049.921" fill="#000" font-family="Times,serif" font-size="14" text-anchor="middle">Flapper</text></g><g id="node11" class="node"><title>MCD_VOW</title><polygon fill="none" stroke="#000" points="703.986 -1317.709 649.986 -1317.709 649.986 -1281.709 703.986 -1281.709 703.986 -1317.709"/><text x="676.986" y="-1295.509" fill="#000" font-family="Times,serif" font-size="14" text-anchor="middle">Vow</text></g><g id="edge24" class="edge"><title>MCD_FLAP-&gt;MCD_VOW</title><path fill="none" stroke="#000" d="M449.457,-1072.1801C492.6561,-1115.3792 602.0502,-1224.7733 651.7382,-1274.4612"/><polygon fill="#000" stroke="#000" points="649.355 -1277.028 658.901 -1281.624 654.305 -1272.078 649.355 -1277.028"/><text x="539.715" y="-1160.721" fill="#000" font-family="Times,serif" font-size="14" text-anchor="middle">rely</text></g><g id="edge40" class="edge"><title>MCD_FLAP-&gt;MCD_PAUSE_PROXY</title><path fill="none" stroke="#000" d="M427.7669,-1035.8652C421.713,-1005.4302 409.5206,-944.1346 402.391,-908.292"/><polygon fill="#000" stroke="#000" points="405.822 -907.601 400.438 -898.476 398.957 -908.967 405.822 -907.601"/><text x="404.196" y="-976.279" fill="#000" font-family="Times,serif" font-size="14" text-anchor="middle">rely</text></g><g id="node10" class="node"><title>MCD_FLOP</title><polygon fill="none" stroke="#000" points="559.317 -1219.341 500.217 -1219.341 500.217 -1183.341 559.317 -1183.341 559.317 -1219.341"/><text x="529.767" y="-1197.141" fill="#000" font-family="Times,serif" font-size="14" text-anchor="middle">Flopper</text></g><g id="edge25" class="edge"><title>MCD_FLOP-&gt;MCD_VOW</title><path fill="none" stroke="#000" d="M556.7694,-1219.383C580.5601,-1235.2795 615.3851,-1258.5488 641.4366,-1275.9558"/><polygon fill="#000" stroke="#000" points="639.647 -1278.97 649.906 -1281.615 643.536 -1273.149 639.647 -1278.97"/><text x="588.22" y="-1251.869" fill="#000" font-family="Times,serif" font-size="14" text-anchor="middle">rely</text></g><g id="edge41" class="edge"><title>MCD_FLOP-&gt;MCD_PAUSE_PROXY</title><path fill="none" stroke="#000" d="M522.2404,-1183.1696C500.0866,-1129.6857 435.0018,-972.5569 408.3925,-908.3164"/><polygon fill="#000" stroke="#000" points="411.525 -906.733 404.465 -898.834 405.058 -909.412 411.525 -906.733"/><text x="476.199" y="-1049.943" fill="#000" font-family="Times,serif" font-size="14" text-anchor="middle">rely</text></g><g id="edge27" class="edge"><title>MCD_VOW-&gt;MCD_CAT</title><path fill="none" stroke="#000" d="M704.1203,-1305.1068C733.4726,-1310.9453 780.4648,-1320.2926 813.2934,-1326.8226"/><polygon fill="#000" stroke="#000" points="812.923 -1330.318 823.414 -1328.836 814.289 -1323.452 812.923 -1330.318"/><text x="747.824" y="-1320.165" fill="#000" font-family="Times,serif" font-size="14" text-anchor="middle">rely</text></g><g id="edge36" class="edge"><title>MCD_VOW-&gt;MCD_PAUSE_PROXY</title><path fill="none" stroke="#000" d="M664.9496,-1281.695C620.7826,-1215.5945 467.4715,-986.1482 414.7934,-907.3099"/><polygon fill="#000" stroke="#000" points="417.629 -905.254 409.163 -898.884 411.809 -909.143 417.629 -905.254"/><text x="528.989" y="-1098.703" fill="#000" font-family="Times,serif" font-size="14" text-anchor="middle">rely</text></g><g id="edge30" class="edge"><title>MCD_VOW-&gt;MCD_END</title><path fill="none" stroke="#000" d="M703.9469,-1281.695C804.1917,-1214.7136 1155.4594,-980.0041 1268.8496,-904.2392"/><polygon fill="#000" stroke="#000" points="1270.849 -907.113 1277.219 -898.647 1266.959 -901.293 1270.849 -907.113"/><text x="975.515" y="-1097.167" fill="#000" font-family="Times,serif" font-size="14" text-anchor="middle">rely</text></g><g id="edge35" class="edge"><title>MCD_CAT-&gt;MCD_PAUSE_PROXY</title><path fill="none" stroke="#000" d="M832.5744,-1316.183C761.9912,-1245.5997 504.7227,-988.3312 422.3863,-905.9948"/><polygon fill="#000" stroke="#000" points="424.522 -903.181 414.976 -898.585 419.573 -908.131 424.522 -903.181"/><text x="616.597" y="-1115.289" fill="#000" font-family="Times,serif" font-size="14" text-anchor="middle">rely</text></g><g id="edge29" class="edge"><title>MCD_CAT-&gt;MCD_END</title><path fill="none" stroke="#000" d="M868.7125,-1316.183C939.2957,-1245.5997 1196.5642,-988.3312 1278.9006,-905.9948"/><polygon fill="#000" stroke="#000" points="1281.714 -908.131 1286.31 -898.585 1276.764 -903.181 1281.714 -908.131"/><text x="1062.924" y="-1115.289" fill="#000" font-family="Times,serif" font-size="14" text-anchor="middle">rely</text></g><g id="edge39" class="edge"><title>MCD_SPOT-&gt;MCD_PAUSE_PROXY</title><path fill="none" stroke="#000" d="M427.7669,-725.0635C421.713,-755.4985 409.5206,-816.7941 402.391,-852.6367"/><polygon fill="#000" stroke="#000" points="398.957 -851.962 400.438 -862.453 405.822 -853.328 398.957 -851.962"/><text x="404.196" y="-793.05" fill="#000" font-family="Times,serif" font-size="14" text-anchor="middle">rely</text></g><g id="edge32" class="edge"><title>MCD_SPOT-&gt;MCD_END</title><path fill="none" stroke="#000" d="M459.9493,-712.4865C589.3923,-738.2343 1121.1383,-844.0051 1267.175,-873.0536"/><polygon fill="#000" stroke="#000" points="1266.911 -876.57 1277.402 -875.088 1268.277 -869.704 1266.911 -876.57"/><text x="874.445" y="-796.97" fill="#000" font-family="Times,serif" font-size="14" text-anchor="middle">rely</text></g><g id="node14" class="node"><title>MCD_GOV</title><polygon fill="none" stroke="#000" points="1912.658 -794.485 1858.658 -794.485 1858.658 -758.485 1912.658 -758.485 1912.658 -794.485"/><text x="1885.658" y="-772.285" fill="#000" font-family="Times,serif" font-size="14" text-anchor="middle">MKR</text></g><g id="edge18" class="edge"><title>MCD_GOV-&gt;deployer</title><path fill="none" stroke="#000" d="M1858.6058,-776.4848C1849.5979,-776.4848 1839.3316,-776.4848 1829.4312,-776.4848"/><polygon fill="#000" stroke="#000" points="1829.314 -772.985 1819.314 -776.485 1829.314 -779.985 1829.314 -772.985"/><text x="1835.273" y="-763.885" fill="#000" font-family="Times,serif" font-size="14" text-anchor="middle">owner</text></g><g id="node17" class="node"><title>MKR_AUTH</title><polygon fill="none" stroke="#000" points="2090.398 -794.485 1984.745 -794.485 1984.745 -758.485 2090.398 -758.485 2090.398 -794.485"/><text x="2037.571" y="-772.285" fill="#000" font-family="Times,serif" font-size="14" text-anchor="middle">MKR Authority</text></g><g id="edge8" class="edge"><title>MCD_GOV-&gt;MKR_AUTH</title><path fill="none" stroke="#000" d="M1912.8171,-776.4848C1929.9834,-776.4848 1952.9163,-776.4848 1974.4354,-776.4848"/><polygon fill="#000" stroke="#000" points="1974.524 -779.985 1984.524 -776.485 1974.524 -772.985 1974.524 -779.985"/><text x="1956.263" y="-763.885" fill="#000" font-family="Times,serif" font-size="14" text-anchor="middle">authority</text></g><g id="node15" class="node"><title>MCD_PAUSE</title><polygon fill="none" stroke="#000" points="167.255 -898.464 101.161 -898.464 101.161 -862.464 167.255 -862.464 167.255 -898.464"/><text x="134.208" y="-876.264" fill="#000" font-family="Times,serif" font-size="14" text-anchor="middle">DSPause</text></g><g id="edge17" class="edge"><title>MCD_PAUSE-&gt;zero</title><path fill="none" stroke="#000" d="M167.382,-878.0472C358.9686,-864.0875 1322.3648,-793.8913 1524.1552,-779.1881"/><polygon fill="#000" stroke="#000" points="1524.527 -782.67 1534.247 -778.453 1524.019 -775.689 1524.527 -782.67"/><text x="828.278" y="-832.818" fill="#000" font-family="Times,serif" font-size="14" text-anchor="middle">owner</text></g><g id="node19" class="node"><title>MCD_ADM</title><polygon fill="none" stroke="#000" points="67.473 -841.176 2.49 -841.176 2.49 -805.176 67.473 -805.176 67.473 -841.176"/><text x="34.982" y="-818.976" fill="#000" font-family="Times,serif" font-size="14" text-anchor="middle">DSChief</text></g><g id="edge7" class="edge"><title>MCD_PAUSE-&gt;MCD_ADM</title><path fill="none" stroke="#000" d="M102.8121,-862.338C93.9485,-857.2207 84.1842,-851.5832 74.8924,-846.2186"/><polygon fill="#000" stroke="#000" points="76.584 -843.154 66.173 -841.185 73.084 -849.216 76.584 -843.154"/><text x="63.579" y="-858.478" fill="#000" font-family="Times,serif" font-size="14" text-anchor="middle">authority</text></g><g id="edge16" class="edge"><title>MCD_PAUSE_PROXY-&gt;MCD_PAUSE</title><path fill="none" stroke="#000" d="M346.8355,-880.4644C297.8516,-880.4644 223.9868,-880.4644 177.4668,-880.4644"/><polygon fill="#000" stroke="#000" points="177.404 -876.964 167.404 -880.464 177.404 -883.964 177.404 -876.964"/><text x="244.66" y="-884.664" fill="#000" font-family="Times,serif" font-size="14" text-anchor="middle">owner</text></g><g id="node18" class="node"><title>MCD_IOU</title><polygon fill="none" stroke="#000" points="61.982 -955.753 7.982 -955.753 7.982 -919.753 61.982 -919.753 61.982 -955.753"/><text x="34.982" y="-933.553" fill="#000" font-family="Times,serif" font-size="14" text-anchor="middle">IOU</text></g><g id="edge6" class="edge"><title>MCD_IOU-&gt;zero</title><path fill="none" stroke="#000" d="M62.1209,-934.8849C246.1882,-915.4362 1310.6436,-802.9648 1524.021,-780.4191"/><polygon fill="#000" stroke="#000" points="1524.515 -783.886 1534.092 -779.355 1523.779 -776.925 1524.515 -783.886"/><text x="767.798" y="-861.852" fill="#000" font-family="Times,serif" font-size="14" text-anchor="middle">authority</text></g><g id="edge15" class="edge"><title>MCD_IOU-&gt;MCD_ADM</title><path fill="none" stroke="#000" d="M34.9818,-919.5975C34.9818,-901.2442 34.9818,-872.6262 34.9818,-851.329"/><polygon fill="#000" stroke="#000" points="38.482 -851.246 34.982 -841.246 31.482 -851.246 38.482 -851.246"/><text x="17.491" y="-889.663" fill="#000" font-family="Times,serif" font-size="14" text-anchor="middle">owner</text></g><g id="edge14" class="edge"><title>MCD_ADM-&gt;zero</title><path fill="none" stroke="#000" d="M67.5663,-822.1794C266.1912,-816.1031 1312.515,-784.0943 1523.9778,-777.6252"/><polygon fill="#000" stroke="#000" points="1524.354 -781.115 1534.242 -777.311 1524.14 -774.119 1524.354 -781.115"/><text x="778.281" y="-804.102" fill="#000" font-family="Times,serif" font-size="14" text-anchor="middle">owner</text></g><g id="edge5" class="edge"><title>MCD_ADM-&gt;MCD_ADM</title><path fill="none" stroke="#000" d="M67.5216,-829.9196C77.5794,-829.7834 85.4776,-827.5356 85.4776,-823.1762 85.4776,-820.4516 82.3924,-818.5518 77.6229,-817.4769"/><polygon fill="#000" stroke="#000" points="77.828 -813.98 67.522 -816.433 77.109 -820.942 77.828 -813.98"/><text x="110.751" y="-818.976" fill="#000" font-family="Times,serif" font-size="14" text-anchor="middle">authority</text></g><g id="node20" class="node"><title>PROXY_DEPLOYER</title><polygon fill="none" stroke="#000" points="1726.487 -681.784 1621.427 -681.784 1621.427 -645.784 1726.487 -645.784 1726.487 -681.784"/><text x="1673.957" y="-659.584" fill="#000" font-family="Times,serif" font-size="14" text-anchor="middle">Proxy Deployer</text></g><g id="edge4" class="edge"><title>PROXY_DEPLOYER-&gt;zero</title><path fill="none" stroke="#000" d="M1655.8497,-681.8913C1637.1188,-700.6222 1607.7139,-730.0271 1586.6616,-751.0794"/><polygon fill="#000" stroke="#000" points="1583.915 -748.876 1579.319 -758.422 1588.865 -753.826 1583.915 -748.876"/><text x="1595.982" y="-720.685" fill="#000" font-family="Times,serif" font-size="14" text-anchor="middle">authority</text></g><g id="edge13" class="edge"><title>PROXY_DEPLOYER-&gt;deployer</title><path fill="none" stroke="#000" d="M1692.0645,-681.8913C1710.7954,-700.6222 1740.2003,-730.0271 1761.2526,-751.0794"/><polygon fill="#000" stroke="#000" points="1759.05 -753.826 1768.596 -758.422 1763.999 -748.876 1759.05 -753.826"/><text x="1709.168" y="-720.685" fill="#000" font-family="Times,serif" font-size="14" text-anchor="middle">owner</text></g><g id="node21" class="node"><title>SAI_PROXY</title><polygon fill="none" stroke="#000" points="1133.418 -151.602 1062.756 -151.602 1062.756 -115.602 1133.418 -115.602 1133.418 -151.602"/><text x="1098.087" y="-129.402" fill="#000" font-family="Times,serif" font-size="14" text-anchor="middle">Sai Proxy</text></g><g id="edge3" class="edge"><title>SAI_PROXY-&gt;zero</title><path fill="none" stroke="#000" d="M1108.3243,-151.8453C1166.6287,-242.4258 1455.0759,-643.1443 1538.6286,-750.165"/><polygon fill="#000" stroke="#000" points="1536.021 -752.511 1544.957 -758.202 1541.52 -748.18 1536.021 -752.511"/><text x="1298.203" y="-455.205" fill="#000" font-family="Times,serif" font-size="14" text-anchor="middle">authority</text></g><g id="edge12" class="edge"><title>SAI_PROXY-&gt;zero</title><path fill="none" stroke="#000" d="M1114.2514,-151.7162C1186.0603,-241.9286 1474.4695,-642.0715 1545.4827,-749.7544"/><polygon fill="#000" stroke="#000" points="1542.733 -751.945 1551.127 -758.41 1548.596 -748.122 1542.733 -751.945"/><text x="1312.376" y="-438.135" fill="#000" font-family="Times,serif" font-size="14" text-anchor="middle">owner</text></g><g id="edge42" class="edge"><title>MCD_END-&gt;MCD_PAUSE_PROXY</title><path fill="none" stroke="#000" d="M1277.2692,-880.4644C1152.7773,-880.4644 635.1899,-880.4644 457.25,-880.4644"/><polygon fill="#000" stroke="#000" points="457.026 -876.964 447.026 -880.464 457.026 -883.964 457.026 -876.964"/><text x="856.377" y="-884.664" fill="#000" font-family="Times,serif" font-size="14" text-anchor="middle">rely</text></g><g id="node23" class="node"><title>MCD_ESM</title><polygon fill="none" stroke="#000" points="1430.431 -898.464 1376.431 -898.464 1376.431 -862.464 1430.431 -862.464 1430.431 -898.464"/><text x="1403.431" y="-876.264" fill="#000" font-family="Times,serif" font-size="14" text-anchor="middle">ESM</text></g><g id="edge33" class="edge"><title>MCD_END-&gt;MCD_ESM</title><path fill="none" stroke="#000" d="M1331.4833,-880.4644C1342.1783,-880.4644 1354.6471,-880.4644 1366.1715,-880.4644"/><polygon fill="#000" stroke="#000" points="1366.412 -883.964 1376.412 -880.464 1366.412 -876.964 1366.412 -883.964"/><text x="1359.71" y="-884.664" fill="#000" font-family="Times,serif" font-size="14" text-anchor="middle">rely</text></g><g id="node24" class="node"><title>SAI_TUB</title><polygon fill="none" stroke="#000" points="1102.267 -36 1045.383 -36 1045.383 0 1102.267 0 1102.267 -36"/><text x="1073.825" y="-13.8" fill="#000" font-family="Times,serif" font-size="14" text-anchor="middle">SaiTub</text></g><g id="edge11" class="edge"><title>SAI_TUB-&gt;zero</title><path fill="none" stroke="#000" d="M1085.3934,-36.0011C1150.0265,-136.5759 1466.3244,-628.7628 1544.0033,-749.6379"/><polygon fill="#000" stroke="#000" points="1541.229 -751.795 1549.58 -758.316 1547.118 -748.011 1541.229 -751.795"/><text x="1297.207" y="-397.019" fill="#000" font-family="Times,serif" font-size="14" text-anchor="middle">owner</text></g><g id="edge10" class="edge"><title>SAI_TUB-&gt;SAI_PROXY</title><path fill="none" stroke="#000" d="M1077.6161,-36.0628C1081.5102,-54.6173 1087.6265,-83.7604 1092.1605,-105.364"/><polygon fill="#000" stroke="#000" points="1088.763 -106.216 1094.243 -115.284 1095.614 -104.779 1088.763 -106.216"/><text x="1059.615" y="-74.913" fill="#000" font-family="Times,serif" font-size="14" text-anchor="middle">authority</text></g><g id="node25" class="node"><title>MIGRATION</title><polygon fill="none" stroke="#000" points="685.879 -357.892 567.582 -357.892 567.582 -321.892 685.879 -321.892 685.879 -357.892"/><text x="626.731" y="-335.692" fill="#000" font-family="Times,serif" font-size="14" text-anchor="middle">ScdMcdMigration</text></g><g id="edge57" class="edge"><title>ETHJoin_A-&gt;MCD_PAUSE_PROXY</title><path fill="none" stroke="#000" d="M997.34,-479.2337C897.0952,-546.2151 545.8275,-780.9246 432.4373,-856.6895"/><polygon fill="#000" stroke="#000" points="430.438 -853.816 424.068 -862.282 434.327 -859.636 430.438 -853.816"/><text x="704.006" y="-672.162" fill="#000" font-family="Times,serif" font-size="14" text-anchor="middle">rely</text></g><g id="node27" class="node"><title>Flipper_ETH-A</title><polygon fill="none" stroke="#000" points="1077.219 -1317.709 971.382 -1317.709 971.382 -1281.709 1077.219 -1281.709 1077.219 -1317.709"/><text x="1024.301" y="-1295.509" fill="#000" font-family="Times,serif" font-size="14" text-anchor="middle">Flipper_ETH-A</text></g><g id="edge44" class="edge"><title>Flipper_ETH-A-&gt;MCD_CAT</title><path fill="none" stroke="#000" d="M971.254,-1310.2611C944.1983,-1315.6428 911.9579,-1322.0558 887.6202,-1326.8969"/><polygon fill="#000" stroke="#000" points="886.837 -1323.484 877.712 -1328.868 888.202 -1330.35 886.837 -1323.484"/><text x="918.554" y="-1322.779" fill="#000" font-family="Times,serif" font-size="14" text-anchor="middle">rely</text></g><g id="edge46" class="edge"><title>Flipper_ETH-A-&gt;MCD_PAUSE_PROXY</title><path fill="none" stroke="#000" d="M997.34,-1281.695C897.0952,-1214.7136 545.8275,-980.0041 432.4373,-904.2392"/><polygon fill="#000" stroke="#000" points="434.327 -901.293 424.068 -898.647 430.438 -907.113 434.327 -901.293"/><text x="704.006" y="-1097.167" fill="#000" font-family="Times,serif" font-size="14" text-anchor="middle">rely</text></g><g id="edge45" class="edge"><title>Flipper_ETH-A-&gt;MCD_END</title><path fill="none" stroke="#000" d="M1036.3373,-1281.695C1080.5043,-1215.5945 1233.8154,-986.1482 1286.4935,-907.3099"/><polygon fill="#000" stroke="#000" points="1289.478 -909.143 1292.124 -898.884 1283.658 -905.254 1289.478 -909.143"/><text x="1150.533" y="-1098.703" fill="#000" font-family="Times,serif" font-size="14" text-anchor="middle">rely</text></g><g id="edge58" class="edge"><title>BATJoin_A-&gt;MCD_PAUSE_PROXY</title><path fill="none" stroke="#000" d="M832.5744,-444.7457C761.9912,-515.329 504.7227,-772.5975 422.3863,-854.9339"/><polygon fill="#000" stroke="#000" points="419.573 -852.798 414.976 -862.344 424.522 -857.747 419.573 -852.798"/><text x="616.597" y="-654.04" fill="#000" font-family="Times,serif" font-size="14" text-anchor="middle">rely</text></g><g id="node29" class="node"><title>Flipper_BAT-A</title><polygon fill="none" stroke="#000" points="1224.722 -1219.341 1118.318 -1219.341 1118.318 -1183.341 1224.722 -1183.341 1224.722 -1219.341"/><text x="1171.52" y="-1197.141" fill="#000" font-family="Times,serif" font-size="14" text-anchor="middle">Flipper_BAT-A</text></g><g id="edge48" class="edge"><title>Flipper_BAT-A-&gt;MCD_CAT</title><path fill="none" stroke="#000" d="M1127.911,-1219.404C1064.1199,-1245.8272 946.5095,-1294.543 887.0686,-1319.1642"/><polygon fill="#000" stroke="#000" points="885.601 -1315.984 877.702 -1323.044 888.28 -1322.451 885.601 -1315.984"/><text x="996.607" y="-1256.684" fill="#000" font-family="Times,serif" font-size="14" text-anchor="middle">rely</text></g><g id="edge50" class="edge"><title>Flipper_BAT-A-&gt;MCD_PAUSE_PROXY</title><path fill="none" stroke="#000" d="M1127.9311,-1183.2857C995.099,-1128.2648 595.598,-962.7861 450.3714,-902.6313"/><polygon fill="#000" stroke="#000" points="451.348 -899.247 440.77 -898.654 448.669 -905.715 451.348 -899.247"/><text x="778.268" y="-1047.159" fill="#000" font-family="Times,serif" font-size="14" text-anchor="middle">rely</text></g><g id="edge49" class="edge"><title>Flipper_BAT-A-&gt;MCD_END</title><path fill="none" stroke="#000" d="M1179.0465,-1183.1696C1201.2002,-1129.6857 1266.2851,-972.5569 1292.8944,-908.3164"/><polygon fill="#000" stroke="#000" points="1296.229 -909.412 1296.822 -898.834 1289.762 -906.733 1296.229 -909.412"/><text x="1225.088" y="-1033.143" fill="#000" font-family="Times,serif" font-size="14" text-anchor="middle">rely</text></g><g id="node30" class="node"><title>SAI</title><polygon fill="none" stroke="#000" points="1012.842 -114.812 958.842 -114.812 958.842 -78.812 1012.842 -78.812 1012.842 -114.812"/><text x="985.842" y="-92.612" fill="#000" font-family="Times,serif" font-size="14" text-anchor="middle">SAI</text></g><g id="edge19" class="edge"><title>SAI-&gt;zero</title><path fill="none" stroke="#000" d="M1001.2329,-114.9917C1080.8288,-209.0095 1445.6741,-639.9606 1539.3064,-750.558"/><polygon fill="#000" stroke="#000" points="1536.685 -752.878 1545.818 -758.249 1542.027 -748.355 1536.685 -752.878"/><text x="1252.779" y="-436.975" fill="#000" font-family="Times,serif" font-size="14" text-anchor="middle">owner</text></g><g id="edge1" class="edge"><title>SAI-&gt;SAI_PROXY</title><path fill="none" stroke="#000" d="M1013.0133,-105.7178C1025.0214,-109.6537 1039.4645,-114.3876 1053.0132,-118.8283"/><polygon fill="#000" stroke="#000" points="1052.08 -122.206 1062.673 -121.994 1054.261 -115.554 1052.08 -122.206"/><text x="1058.287" y="-99.673" fill="#000" font-family="Times,serif" font-size="14" text-anchor="middle">authority</text></g><g id="edge56" class="edge"><title>SAIJoin_A-&gt;MCD_PAUSE_PROXY</title><path fill="none" stroke="#000" d="M664.9496,-479.2337C620.7826,-545.3342 467.4715,-774.7805 414.7934,-853.6188"/><polygon fill="#000" stroke="#000" points="411.809 -851.786 409.163 -862.045 417.629 -855.675 411.809 -851.786"/><text x="528.989" y="-670.626" fill="#000" font-family="Times,serif" font-size="14" text-anchor="middle">rely</text></g><g id="edge55" class="edge"><title>SAIJoin_A-&gt;MIGRATION</title><path fill="none" stroke="#000" d="M669.4627,-443.0553C661.1727,-423.0416 647.7456,-390.6257 638.1552,-367.4724"/><polygon fill="#000" stroke="#000" points="641.367 -366.079 634.306 -358.18 634.899 -368.758 641.367 -366.079"/><text x="642.926" y="-409.464" fill="#000" font-family="Times,serif" font-size="14" text-anchor="middle">rely</text></g><g id="node32" class="node"><title>Flipper_SAI-A</title><polygon fill="none" stroke="#000" points="1320.145 -1072.121 1219.632 -1072.121 1219.632 -1036.121 1320.145 -1036.121 1320.145 -1072.121"/><text x="1269.889" y="-1049.921" fill="#000" font-family="Times,serif" font-size="14" text-anchor="middle">Flipper_SAI-A</text></g><g id="edge52" class="edge"><title>Flipper_SAI-A-&gt;MCD_CAT</title><path fill="none" stroke="#000" d="M1242.7038,-1072.2857C1169.524,-1121.1828 968.3674,-1255.5914 886.2562,-1310.4563"/><polygon fill="#000" stroke="#000" points="884.137 -1307.663 877.767 -1316.129 888.026 -1313.483 884.137 -1307.663"/><text x="1053.597" y="-1195.571" fill="#000" font-family="Times,serif" font-size="14" text-anchor="middle">rely</text></g><g id="edge54" class="edge"><title>Flipper_SAI-A-&gt;MCD_PAUSE_PROXY</title><path fill="none" stroke="#000" d="M1219.4964,-1044.0977C1068.4238,-1014.0475 619.6934,-924.7895 456.7952,-892.387"/><polygon fill="#000" stroke="#000" points="457.435 -888.946 446.945 -890.428 456.07 -895.811 457.435 -888.946"/><text x="827.263" y="-972.442" fill="#000" font-family="Times,serif" font-size="14" text-anchor="middle">rely</text></g><g id="edge53" class="edge"><title>Flipper_SAI-A-&gt;MCD_END</title><path fill="none" stroke="#000" d="M1273.5199,-1035.8652C1279.5739,-1005.4302 1291.7663,-944.1346 1298.8959,-908.292"/><polygon fill="#000" stroke="#000" points="1302.33 -908.967 1300.848 -898.476 1295.465 -907.601 1302.33 -908.967"/><text x="1275.325" y="-976.279" fill="#000" font-family="Times,serif" font-size="14" text-anchor="middle">rely</text></g><g id="node33" class="node"><title>isolated</title><polygon fill="none" stroke="#000" points="2106.525 -374.185 1501.389 -374.185 1501.389 -214.785 2106.525 -214.785 2106.525 -374.185"/><text x="1803.957" y="-357.485" fill="#000" font-family="Times,serif" font-size="14" text-anchor="middle">Isolated Contracts:</text><text x="1803.957" y="-340.685" fill="#000" font-family="Times,serif" font-size="14" text-anchor="middle">MULTICALL, FAUCET, PROXY_ACTIONS, PROXY_ACTIONS_END, PROXY_ACTIONS_DSR,</text><text x="1803.957" y="-323.885" fill="#000" font-family="Times,serif" font-size="14" text-anchor="middle">CDP_MANAGER, GET_CDPS, PROXY_FACTORY, PROXY_REGISTRY,</text><text x="1803.957" y="-307.085" fill="#000" font-family="Times,serif" font-size="14" text-anchor="middle">PROXY_PAUSE_ACTIONS, MCD_GOV_ACTIONS, MIGRATION_PROXY_ACTIONS, ETH,</text><text x="1803.957" y="-290.285" fill="#000" font-family="Times,serif" font-size="14" text-anchor="middle">PIP_ETH, BAT, PIP_BAT, PIP_SAI,</text><text x="1803.957" y="-273.485" fill="#000" font-family="Times,serif" font-size="14" text-anchor="middle">vatFab, jugFab, vowFab, catFab,</text><text x="1803.957" y="-256.685" fill="#000" font-family="Times,serif" font-size="14" text-anchor="middle">daiFab, daiJoinFab, flapFab, flopFab,</text><text x="1803.957" y="-239.885" fill="#000" font-family="Times,serif" font-size="14" text-anchor="middle">flipFab, spotFab, potFab, pauseFab,</text><text x="1803.957" y="-223.085" fill="#000" font-family="Times,serif" font-size="14" text-anchor="middle">endFab</text></g></g></svg>