<svg xmlns="http://www.w3.org/2000/svg" xmlns:xlink="http://www.w3.org/1999/xlink" width="2404pt" height="2292" viewBox="0 0 2403.88 1718.82"><g id="graph0" class="graph" transform="scale(1 1) rotate(0) translate(4 1714.8195)"><title>%0</title><polygon fill="#fff" stroke="transparent" points="-4 4 -4 -1714.82 2399.877 -1714.82 2399.877 4 -4 4"/><g id="node1" class="node"><title>zero</title><polygon fill="none" stroke="#000" points="516.638 -1097.129 462.638 -1097.129 462.638 -1061.129 516.638 -1061.129 516.638 -1097.129"/><text x="489.638" y="-1074.929" fill="#000" font-family="Times,serif" font-size="14" text-anchor="middle">zero</text></g><g id="node2" class="node"><title>deployer</title><polygon fill="none" stroke="#000" points="1344.899 -1527.664 1279.939 -1527.664 1279.939 -1491.664 1344.899 -1491.664 1344.899 -1527.664"/><text x="1312.419" y="-1505.464" fill="#000" font-family="Times,serif" font-size="14" text-anchor="middle">deployer</text></g><g id="node3" class="node"><title>MCD_DEPLOY</title><polygon fill="none" stroke="#000" points="432.627 -1152.681 354.211 -1152.681 354.211 -1116.681 432.627 -1116.681 432.627 -1152.681"/><text x="393.419" y="-1130.481" fill="#000" font-family="Times,serif" font-size="14" text-anchor="middle">DssDeploy</text></g><g id="edge10" class="edge"><title>MCD_DEPLOY-&gt;zero</title><path fill="none" stroke="#000" d="M424.6587,-1116.6451C433.8903,-1111.3152 444.0709,-1105.4375 453.58,-1099.9474"/><polygon fill="#000" stroke="#000" points="455.528 -1102.864 462.438 -1094.833 452.028 -1096.802 455.528 -1102.864"/><text x="421.628" y="-1095.696" fill="#000" font-family="Times,serif" font-size="14" text-anchor="middle">owner</text></g><g id="node35" class="node"><title>0xdf3C827974B153a202f63C5271D142BC6Ed2f0bb</title><polygon fill="none" stroke="#000" points="318.308 -1287.868 .23 -1287.868 .23 -1251.868 318.308 -1251.868 318.308 -1287.868"/><text x="159.269" y="-1265.668" fill="#000" font-family="Times,serif" font-size="14" text-anchor="middle">0xdf3C827974B153a202f63C5271D142BC6Ed2f0bb</text></g><g id="edge4" class="edge"><title>MCD_DEPLOY-&gt;0xdf3C827974B153a202f63C5271D142BC6Ed2f0bb</title><path fill="none" stroke="#000" d="M361.8408,-1152.9131C319.8277,-1177.1693 245.5165,-1220.0729 199.5236,-1246.6269"/><polygon fill="#000" stroke="#000" points="197.631 -1243.678 190.72 -1251.709 201.131 -1249.74 197.631 -1243.678"/><text x="255.409" y="-1203.97" fill="#000" font-family="Times,serif" font-size="14" text-anchor="middle">authority</text></g><g id="node4" class="node"><title>MCD_VAT</title><polygon fill="none" stroke="#000" points="1836.701 -743.419 1782.701 -743.419 1782.701 -707.419 1836.701 -707.419 1836.701 -743.419"/><text x="1809.701" y="-721.22" fill="#000" font-family="Times,serif" font-size="14" text-anchor="middle">Vat</text></g><g id="node5" class="node"><title>MCD_JUG</title><polygon fill="none" stroke="#000" points="1741.925 -389.71 1687.925 -389.71 1687.925 -353.71 1741.925 -353.71 1741.925 -389.71"/><text x="1714.925" y="-367.51" fill="#000" font-family="Times,serif" font-size="14" text-anchor="middle">Jug</text></g><g id="edge14" class="edge"><title>MCD_VAT-&gt;MCD_JUG</title><path fill="none" stroke="#000" d="M1804.8705,-707.3927C1789.4422,-649.8133 1741.2653,-470.0146 1722.5067,-400.0066"/><polygon fill="#000" stroke="#000" points="1725.828 -398.878 1719.859 -390.124 1719.066 -400.69 1725.828 -398.878"/><text x="1752.806" y="-557.9" fill="#000" font-family="Times,serif" font-size="14" text-anchor="middle">rely</text></g><g id="node6" class="node"><title>MCD_POT</title><polygon fill="none" stroke="#000" points="1812.596 -560.326 1758.596 -560.326 1758.596 -524.326 1812.596 -524.326 1812.596 -560.326"/><text x="1785.596" y="-538.126" fill="#000" font-family="Times,serif" font-size="14" text-anchor="middle">Pot</text></g><g id="edge15" class="edge"><title>MCD_VAT-&gt;MCD_POT</title><path fill="none" stroke="#000" d="M1807.3014,-707.1944C1803.0961,-675.2522 1794.3661,-608.9409 1789.3535,-570.8668"/><polygon fill="#000" stroke="#000" points="1792.761 -569.935 1787.986 -560.477 1785.821 -570.849 1792.761 -569.935"/><text x="1787.445" y="-643.231" fill="#000" font-family="Times,serif" font-size="14" text-anchor="middle">rely</text></g><g id="node9" class="node"><title>MCD_VOW</title><polygon fill="none" stroke="#000" points="1629.502 -1243.641 1575.502 -1243.641 1575.502 -1207.641 1629.502 -1207.641 1629.502 -1243.641"/><text x="1602.502" y="-1221.441" fill="#000" font-family="Times,serif" font-size="14" text-anchor="middle">Vow</text></g><g id="edge13" class="edge"><title>MCD_VAT-&gt;MCD_VOW</title><path fill="none" stroke="#000" d="M1802.2041,-743.5182C1771.0153,-818.8147 1651.4183,-1107.5473 1613.8583,-1198.2252"/><polygon fill="#000" stroke="#000" points="1610.582 -1196.988 1609.989 -1207.566 1617.05 -1199.667 1610.582 -1196.988"/><text x="1697.148" y="-975.072" fill="#000" font-family="Times,serif" font-size="14" text-anchor="middle">rely</text></g><g id="node10" class="node"><title>MCD_CAT</title><polygon fill="none" stroke="#000" points="1812.596 -926.513 1758.596 -926.513 1758.596 -890.513 1812.596 -890.513 1812.596 -926.513"/><text x="1785.596" y="-904.313" fill="#000" font-family="Times,serif" font-size="14" text-anchor="middle">Cat</text></g><g id="edge18" class="edge"><title>MCD_VAT-&gt;MCD_CAT</title><path fill="none" stroke="#000" d="M1807.3014,-743.6446C1803.0961,-775.5869 1794.3661,-841.8982 1789.3535,-879.9723"/><polygon fill="#000" stroke="#000" points="1785.821 -879.99 1787.986 -890.362 1792.761 -880.904 1785.821 -879.99"/><text x="1787.445" y="-816.009" fill="#000" font-family="Times,serif" font-size="14" text-anchor="middle">rely</text></g><g id="node11" class="node"><title>MCD_SPOT</title><polygon fill="none" stroke="#000" points="1630.943 -243.198 1574.062 -243.198 1574.062 -207.198 1630.943 -207.198 1630.943 -243.198"/><text x="1602.502" y="-220.998" fill="#000" font-family="Times,serif" font-size="14" text-anchor="middle">Spotter</text></g><g id="edge12" class="edge"><title>MCD_VAT-&gt;MCD_SPOT</title><path fill="none" stroke="#000" d="M1802.2041,-707.3209C1771.0153,-632.0244 1651.4183,-343.2917 1613.8583,-252.6139"/><polygon fill="#000" stroke="#000" points="1617.05 -251.172 1609.989 -243.273 1610.582 -253.851 1617.05 -251.172"/><text x="1697.148" y="-484.167" fill="#000" font-family="Times,serif" font-size="14" text-anchor="middle">rely</text></g><g id="node14" class="node"><title>MCD_PAUSE_PROXY</title><polygon fill="none" stroke="#000" points="1505.98 -130.776 1406.002 -130.776 1406.002 -94.776 1505.98 -94.776 1505.98 -130.776"/><text x="1455.991" y="-108.576" fill="#000" font-family="Times,serif" font-size="14" text-anchor="middle">DSPauseProxy</text></g><g id="edge23" class="edge"><title>MCD_VAT-&gt;MCD_PAUSE_PROXY</title><path fill="none" stroke="#000" d="M1799.3065,-707.4161C1749.1238,-620.4971 1531.8644,-244.1927 1471.5645,-139.7503"/><polygon fill="#000" stroke="#000" points="1474.417 -137.691 1466.386 -130.781 1468.355 -141.191 1474.417 -137.691"/><text x="1624.553" y="-427.783" fill="#000" font-family="Times,serif" font-size="14" text-anchor="middle">rely</text></g><g id="node18" class="node"><title>MCD_END</title><polygon fill="none" stroke="#000" points="445.966 -926.513 391.966 -926.513 391.966 -890.513 445.966 -890.513 445.966 -926.513"/><text x="418.966" y="-904.313" fill="#000" font-family="Times,serif" font-size="14" text-anchor="middle">End</text></g><g id="edge20" class="edge"><title>MCD_VAT-&gt;MCD_END</title><path fill="none" stroke="#000" d="M1782.5439,-728.9948C1609.0416,-751.8368 656.615,-877.2262 456.048,-903.6313"/><polygon fill="#000" stroke="#000" points="455.471 -900.177 446.013 -904.952 456.384 -907.117 455.471 -900.177"/><text x="1108.413" y="-820.513" fill="#000" font-family="Times,serif" font-size="14" text-anchor="middle">rely</text></g><g id="node19" class="node"><title>ETHJoin_A</title><polygon fill="none" stroke="#000" points="1784.039 -222.727 1700.731 -222.727 1700.731 -186.727 1784.039 -186.727 1784.039 -222.727"/><text x="1742.385" y="-200.527" fill="#000" font-family="Times,serif" font-size="14" text-anchor="middle">ETHJoin_A</text></g><g id="edge32" class="edge"><title>MCD_VAT-&gt;ETHJoin_A</title><path fill="none" stroke="#000" d="M1807.3445,-707.1931C1797.3276,-629.7119 1758.238,-327.352 1746.041,-233.0069"/><polygon fill="#000" stroke="#000" points="1749.476 -232.274 1744.722 -222.806 1742.533 -233.172 1749.476 -232.274"/><text x="1765.81" y="-474.3" fill="#000" font-family="Times,serif" font-size="14" text-anchor="middle">rely</text></g><g id="node21" class="node"><title>ETHJoin_B</title><polygon fill="none" stroke="#000" points="1869.872 -351.659 1787.105 -351.659 1787.105 -315.659 1869.872 -315.659 1869.872 -351.659"/><text x="1828.488" y="-329.459" fill="#000" font-family="Times,serif" font-size="14" text-anchor="middle">ETHJoin_B</text></g><g id="edge35" class="edge"><title>MCD_VAT-&gt;ETHJoin_B</title><path fill="none" stroke="#000" d="M1810.5693,-707.3098C1813.5614,-644.9181 1823.4581,-438.5525 1827.1149,-362.3019"/><polygon fill="#000" stroke="#000" points="1830.624 -362.185 1827.608 -352.029 1823.632 -361.849 1830.624 -362.185"/><text x="1829.725" y="-539.006" fill="#000" font-family="Times,serif" font-size="14" text-anchor="middle">rely</text></g><g id="node23" class="node"><title>ETHJoin_C</title><polygon fill="none" stroke="#000" points="1930.221 -494.055 1847.454 -494.055 1847.454 -458.055 1930.221 -458.055 1930.221 -494.055"/><text x="1888.837" y="-471.855" fill="#000" font-family="Times,serif" font-size="14" text-anchor="middle">ETHJoin_C</text></g><g id="edge38" class="edge"><title>MCD_VAT-&gt;ETHJoin_C</title><path fill="none" stroke="#000" d="M1815.5199,-707.0832C1829.2448,-663.8351 1863.7057,-555.2466 1880.0165,-503.8501"/><polygon fill="#000" stroke="#000" points="1883.428 -504.672 1883.117 -494.082 1876.755 -502.555 1883.428 -504.672"/><text x="1836.885" y="-609.667" fill="#000" font-family="Times,serif" font-size="14" text-anchor="middle">rely</text></g><g id="node25" class="node"><title>COL1Join_A</title><polygon fill="none" stroke="#000" points="1967.991 -649.459 1876.114 -649.459 1876.114 -613.459 1967.991 -613.459 1967.991 -649.459"/><text x="1922.052" y="-627.259" fill="#000" font-family="Times,serif" font-size="14" text-anchor="middle">COL1Join_A</text></g><g id="edge41" class="edge"><title>MCD_VAT-&gt;COL1Join_A</title><path fill="none" stroke="#000" d="M1831.3633,-707.303C1848.7714,-692.7445 1873.3988,-672.1484 1892.5976,-656.0923"/><polygon fill="#000" stroke="#000" points="1895.031 -658.62 1900.456 -649.52 1890.54 -653.25 1895.031 -658.62"/><text x="1851.098" y="-685.898" fill="#000" font-family="Times,serif" font-size="14" text-anchor="middle">rely</text></g><g id="node27" class="node"><title>COL2Join_A</title><polygon fill="none" stroke="#000" points="1970.452 -812.611 1878.575 -812.611 1878.575 -776.611 1970.452 -776.611 1970.452 -812.611"/><text x="1924.514" y="-790.411" fill="#000" font-family="Times,serif" font-size="14" text-anchor="middle">COL2Join_A</text></g><g id="edge44" class="edge"><title>MCD_VAT-&gt;COL2Join_A</title><path fill="none" stroke="#000" d="M1836.9098,-741.8169C1851.457,-750.5837 1869.6208,-761.5301 1885.6314,-771.1788"/><polygon fill="#000" stroke="#000" points="1883.897 -774.22 1894.268 -776.384 1887.51 -768.224 1883.897 -774.22"/><text x="1850.388" y="-760.698" fill="#000" font-family="Times,serif" font-size="14" text-anchor="middle">rely</text></g><g id="node29" class="node"><title>COL3Join_A</title><polygon fill="none" stroke="#000" points="1940.76 -973.057 1848.883 -973.057 1848.883 -937.057 1940.76 -937.057 1940.76 -973.057"/><text x="1894.821" y="-950.857" fill="#000" font-family="Times,serif" font-size="14" text-anchor="middle">COL3Join_A</text></g><g id="edge47" class="edge"><title>MCD_VAT-&gt;COL3Join_A</title><path fill="none" stroke="#000" d="M1816.3801,-743.4388C1831.1988,-783.4168 1866.9097,-879.7573 1884.5739,-927.4118"/><polygon fill="#000" stroke="#000" points="1881.298 -928.644 1888.055 -936.804 1887.861 -926.211 1881.298 -928.644"/><text x="1839.594" y="-839.625" fill="#000" font-family="Times,serif" font-size="14" text-anchor="middle">rely</text></g><g id="node31" class="node"><title>COL4Join_A</title><polygon fill="none" stroke="#000" points="1880.076 -1124.524 1788.198 -1124.524 1788.198 -1088.524 1880.076 -1088.524 1880.076 -1124.524"/><text x="1834.137" y="-1102.324" fill="#000" font-family="Times,serif" font-size="14" text-anchor="middle">COL4Join_A</text></g><g id="edge50" class="edge"><title>MCD_VAT-&gt;COL4Join_A</title><path fill="none" stroke="#000" d="M1810.863,-743.5446C1814.7865,-804.7346 1827.5621,-1003.9815 1832.3252,-1078.2656"/><polygon fill="#000" stroke="#000" points="1828.835 -1078.532 1832.968 -1088.288 1835.821 -1078.084 1828.835 -1078.532"/><text x="1832.477" y="-915.105" fill="#000" font-family="Times,serif" font-size="14" text-anchor="middle">rely</text></g><g id="node33" class="node"><title>COL5Join_A</title><polygon fill="none" stroke="#000" points="1790.772 -1261.087 1698.895 -1261.087 1698.895 -1225.087 1790.772 -1225.087 1790.772 -1261.087"/><text x="1744.834" y="-1238.887" fill="#000" font-family="Times,serif" font-size="14" text-anchor="middle">COL5Join_A</text></g><g id="edge53" class="edge"><title>MCD_VAT-&gt;COL5Join_A</title><path fill="none" stroke="#000" d="M1807.4302,-743.5401C1797.7885,-820.4851 1760.1943,-1120.503 1748.3963,-1214.6563"/><polygon fill="#000" stroke="#000" points="1744.89 -1214.488 1747.12 -1224.845 1751.836 -1215.358 1744.89 -1214.488"/><text x="1767.03" y="-983.298" fill="#000" font-family="Times,serif" font-size="14" text-anchor="middle">rely</text></g><g id="edge26" class="edge"><title>MCD_JUG-&gt;MCD_PAUSE_PROXY</title><path fill="none" stroke="#000" d="M1696.7169,-353.5021C1651.403,-308.1882 1533.4737,-190.2589 1481.3717,-138.1569"/><polygon fill="#000" stroke="#000" points="1483.725 -135.56 1474.179 -130.964 1478.775 -140.51 1483.725 -135.56"/><text x="1578.161" y="-250.03" fill="#000" font-family="Times,serif" font-size="14" text-anchor="middle">rely</text></g><g id="edge27" class="edge"><title>MCD_POT-&gt;MCD_PAUSE_PROXY</title><path fill="none" stroke="#000" d="M1771.6439,-524.143C1719.7443,-456.5061 1537.6861,-219.2433 1476.3436,-139.3002"/><polygon fill="#000" stroke="#000" points="1478.995 -137.007 1470.131 -131.204 1473.442 -141.268 1478.995 -137.007"/><text x="1613.111" y="-335.922" fill="#000" font-family="Times,serif" font-size="14" text-anchor="middle">rely</text></g><g id="node7" class="node"><title>MCD_FLAP</title><polygon fill="none" stroke="#000" points="1744.188 -1097.129 1685.661 -1097.129 1685.661 -1061.129 1744.188 -1061.129 1744.188 -1097.129"/><text x="1714.925" y="-1074.929" fill="#000" font-family="Times,serif" font-size="14" text-anchor="middle">Flapper</text></g><g id="edge16" class="edge"><title>MCD_FLAP-&gt;MCD_VOW</title><path fill="none" stroke="#000" d="M1700.9135,-1097.3888C1681.1988,-1123.0815 1645.1633,-1170.0439 1622.5972,-1199.4527"/><polygon fill="#000" stroke="#000" points="1619.648 -1197.547 1616.337 -1207.611 1625.201 -1201.808 1619.648 -1197.547"/><text x="1650.872" y="-1152.621" fill="#000" font-family="Times,serif" font-size="14" text-anchor="middle">rely</text></g><g id="edge29" class="edge"><title>MCD_FLAP-&gt;MCD_PAUSE_PROXY</title><path fill="none" stroke="#000" d="M1710.0969,-1061.1121C1678.5887,-943.522 1502.3203,-285.6793 1463.5383,-140.9431"/><polygon fill="#000" stroke="#000" points="1466.859 -139.811 1460.889 -131.058 1460.097 -141.623 1466.859 -139.811"/><text x="1575.935" y="-605.228" fill="#000" font-family="Times,serif" font-size="14" text-anchor="middle">rely</text></g><g id="node8" class="node"><title>MCD_FLOP</title><polygon fill="none" stroke="#000" points="1485.541 -1356.063 1426.441 -1356.063 1426.441 -1320.063 1485.541 -1320.063 1485.541 -1356.063"/><text x="1455.991" y="-1333.863" fill="#000" font-family="Times,serif" font-size="14" text-anchor="middle">Flopper</text></g><g id="edge17" class="edge"><title>MCD_FLOP-&gt;MCD_VOW</title><path fill="none" stroke="#000" d="M1479.5306,-1320.0003C1504.3081,-1300.9879 1543.4529,-1270.951 1570.9056,-1249.8857"/><polygon fill="#000" stroke="#000" points="1573.218 -1252.523 1579.021 -1243.658 1568.957 -1246.969 1573.218 -1252.523"/><text x="1514.335" y="-1289.143" fill="#000" font-family="Times,serif" font-size="14" text-anchor="middle">rely</text></g><g id="edge30" class="edge"><title>MCD_FLOP-&gt;MCD_PAUSE_PROXY</title><path fill="none" stroke="#000" d="M1455.991,-1319.7911C1455.991,-1182.2962 1455.991,-310.6785 1455.991,-141.2806"/><polygon fill="#000" stroke="#000" points="1459.491 -141.153 1455.991 -131.153 1452.491 -141.153 1459.491 -141.153"/><text x="1445.108" y="-734.736" fill="#000" font-family="Times,serif" font-size="14" text-anchor="middle">rely</text></g><g id="edge19" class="edge"><title>MCD_VOW-&gt;MCD_CAT</title><path fill="none" stroke="#000" d="M1613.1377,-1207.2198C1643.9906,-1153.7811 1733.6317,-998.5181 1769.9957,-935.5337"/><polygon fill="#000" stroke="#000" points="1773.191 -937 1775.16 -926.59 1767.128 -933.5 1773.191 -937"/><text x="1680.684" y="-1058.777" fill="#000" font-family="Times,serif" font-size="14" text-anchor="middle">rely</text></g><g id="edge25" class="edge"><title>MCD_VOW-&gt;MCD_PAUSE_PROXY</title><path fill="none" stroke="#000" d="M1600.0817,-1207.2533C1582.9878,-1077.4125 1480.5451,-299.283 1459.6938,-140.9016"/><polygon fill="#000" stroke="#000" points="1463.163 -140.439 1458.388 -130.981 1456.223 -141.352 1463.163 -140.439"/><text x="1519.005" y="-678.278" fill="#000" font-family="Times,serif" font-size="14" text-anchor="middle">rely</text></g><g id="edge22" class="edge"><title>MCD_VOW-&gt;MCD_END</title><path fill="none" stroke="#000" d="M1575.2747,-1218.345C1418.9111,-1176.4475 635.8731,-966.6331 455.8893,-918.4066"/><polygon fill="#000" stroke="#000" points="456.663 -914.991 446.098 -915.783 454.851 -921.752 456.663 -914.991"/><text x="1004.699" y="-1072.576" fill="#000" font-family="Times,serif" font-size="14" text-anchor="middle">rely</text></g><g id="edge24" class="edge"><title>MCD_CAT-&gt;MCD_PAUSE_PROXY</title><path fill="none" stroke="#000" d="M1778.0925,-890.398C1735.0358,-786.45 1519.4752,-266.0407 1467.3513,-140.2025"/><polygon fill="#000" stroke="#000" points="1470.543 -138.762 1463.483 -130.863 1464.076 -141.441 1470.543 -138.762"/><text x="1611.839" y="-519.5" fill="#000" font-family="Times,serif" font-size="14" text-anchor="middle">rely</text></g><g id="edge21" class="edge"><title>MCD_CAT-&gt;MCD_END</title><path fill="none" stroke="#000" d="M1758.2971,-908.5132C1586.4336,-908.5132 654.9556,-908.5132 456.2623,-908.5132"/><polygon fill="#000" stroke="#000" points="456.049 -905.013 446.049 -908.513 456.049 -912.013 456.049 -905.013"/><text x="1096.397" y="-912.713" fill="#000" font-family="Times,serif" font-size="14" text-anchor="middle">rely</text></g><g id="edge28" class="edge"><title>MCD_SPOT-&gt;MCD_PAUSE_PROXY</title><path fill="none" stroke="#000" d="M1578.9628,-207.1358C1554.1854,-188.1234 1515.0406,-158.0865 1487.5878,-137.0213"/><polygon fill="#000" stroke="#000" points="1489.536 -134.105 1479.472 -130.794 1485.275 -139.658 1489.536 -134.105"/><text x="1522.392" y="-176.279" fill="#000" font-family="Times,serif" font-size="14" text-anchor="middle">rely</text></g><g id="node12" class="node"><title>MCD_GOV</title><polygon fill="none" stroke="#000" points="1312.375 -1426.734 1258.375 -1426.734 1258.375 -1390.734 1312.375 -1390.734 1312.375 -1426.734"/><text x="1285.375" y="-1404.534" fill="#000" font-family="Times,serif" font-size="14" text-anchor="middle">MKR</text></g><g id="edge9" class="edge"><title>MCD_GOV-&gt;deployer</title><path fill="none" stroke="#000" d="M1290.2099,-1426.7785C1294.2994,-1442.0409 1300.2273,-1464.1642 1304.9303,-1481.7162"/><polygon fill="#000" stroke="#000" points="1301.566 -1482.682 1307.535 -1491.436 1308.327 -1480.871 1301.566 -1482.682"/><text x="1280.079" y="-1458.447" fill="#000" font-family="Times,serif" font-size="14" text-anchor="middle">owner</text></g><g id="edge31" class="edge"><title>MCD_GOV-&gt;MCD_FLOP</title><path fill="none" stroke="#000" d="M1312.4095,-1397.5362C1340.5104,-1385.8965 1384.7707,-1367.5633 1416.7252,-1354.3272"/><polygon fill="#000" stroke="#000" points="1418.316 -1357.457 1426.216 -1350.396 1415.637 -1350.989 1418.316 -1357.457"/><text x="1331.128" y="-1363.332" fill="#000" font-family="Times,serif" font-size="14" text-anchor="middle">permit-mint</text></g><g id="node15" class="node"><title>MCD_GOV_GUARD</title><polygon fill="none" stroke="#000" points="787.661 -1356.063 709.482 -1356.063 709.482 -1320.063 787.661 -1320.063 787.661 -1356.063"/><text x="748.572" y="-1333.863" fill="#000" font-family="Times,serif" font-size="14" text-anchor="middle">Gov Guard</text></g><g id="edge3" class="edge"><title>MCD_GOV-&gt;MCD_GOV_GUARD</title><path fill="none" stroke="#000" d="M1258.0168,-1405.1326C1172.3287,-1393.8515 908.2891,-1359.09 797.8905,-1344.5558"/><polygon fill="#000" stroke="#000" points="798.069 -1341.049 787.698 -1343.214 797.155 -1347.989 798.069 -1341.049"/><text x="1002.68" y="-1379.044" fill="#000" font-family="Times,serif" font-size="14" text-anchor="middle">authority</text></g><g id="node13" class="node"><title>MCD_PAUSE</title><polygon fill="none" stroke="#000" points="1135.328 -1450.839 1069.234 -1450.839 1069.234 -1414.839 1135.328 -1414.839 1135.328 -1450.839"/><text x="1102.281" y="-1428.639" fill="#000" font-family="Times,serif" font-size="14" text-anchor="middle">DSPause</text></g><g id="edge8" class="edge"><title>MCD_PAUSE-&gt;zero</title><path fill="none" stroke="#000" d="M1071.0579,-1414.8123C967.5332,-1355.0422 635.9047,-1163.5764 525.6577,-1099.9253"/><polygon fill="#000" stroke="#000" points="527.305 -1096.835 516.895 -1094.866 523.805 -1102.897 527.305 -1096.835"/><text x="780.867" y="-1261.569" fill="#000" font-family="Times,serif" font-size="14" text-anchor="middle">owner</text></g><g id="node17" class="node"><title>MCD_ADM</title><polygon fill="none" stroke="#000" points="951.679 -1426.734 886.696 -1426.734 886.696 -1390.734 951.679 -1390.734 951.679 -1426.734"/><text x="919.188" y="-1404.534" fill="#000" font-family="Times,serif" font-size="14" text-anchor="middle">DSChief</text></g><g id="edge1" class="edge"><title>MCD_PAUSE-&gt;MCD_ADM</title><path fill="none" stroke="#000" d="M1069.1244,-1428.4739C1039.0892,-1424.5197 994.6625,-1418.6708 961.9619,-1414.3657"/><polygon fill="#000" stroke="#000" points="962.161 -1410.862 951.79 -1413.026 961.248 -1417.802 962.161 -1410.862"/><text x="990.27" y="-1425.62" fill="#000" font-family="Times,serif" font-size="14" text-anchor="middle">authority</text></g><g id="edge7" class="edge"><title>MCD_PAUSE_PROXY-&gt;MCD_PAUSE</title><path fill="none" stroke="#000" d="M1451.1255,-130.9347C1412.5823,-274.7797 1156.8425,-1229.2137 1109.7331,-1405.0284"/><polygon fill="#000" stroke="#000" points="1106.318 -1404.25 1107.111 -1414.815 1113.08 -1406.062 1106.318 -1404.25"/><text x="1262.938" y="-772.182" fill="#000" font-family="Times,serif" font-size="14" text-anchor="middle">owner</text></g><g id="edge6" class="edge"><title>MCD_GOV_GUARD-&gt;zero</title><path fill="none" stroke="#000" d="M735.2033,-1319.8157C695.3919,-1274.2638 577.6029,-1156.03 520.8208,-1104.0987"/><polygon fill="#000" stroke="#000" points="522.99 -1101.342 513.228 -1097.226 518.293 -1106.531 522.99 -1101.342"/><text x="653.285" y="-1199.357" fill="#000" font-family="Times,serif" font-size="14" text-anchor="middle">authority</text></g><g id="edge11" class="edge"><title>MCD_GOV_GUARD-&gt;zero</title><path fill="none" stroke="#000" d="M725.0778,-1320.0527C674.58,-1274.8945 556.8568,-1157.2471 509.6415,-1104.8437"/><polygon fill="#000" stroke="#000" points="512.205 -1102.459 502.946 -1097.308 506.972 -1107.108 512.205 -1102.459"/><text x="599.869" y="-1199.848" fill="#000" font-family="Times,serif" font-size="14" text-anchor="middle">owner</text></g><g id="node16" class="node"><title>MCD_IOU</title><polygon fill="none" stroke="#000" points="629.06 -1243.641 575.06 -1243.641 575.06 -1207.641 629.06 -1207.641 629.06 -1243.641"/><text x="602.06" y="-1221.441" fill="#000" font-family="Times,serif" font-size="14" text-anchor="middle">IOU</text></g><g id="edge5" class="edge"><title>MCD_IOU-&gt;zero</title><path fill="none" stroke="#000" d="M588.0491,-1207.3811C568.3344,-1181.6885 532.2989,-1134.7261 509.7327,-1105.3173"/><polygon fill="#000" stroke="#000" points="512.337 -1102.962 503.472 -1097.159 506.783 -1107.223 512.337 -1102.962"/><text x="531.4" y="-1160.549" fill="#000" font-family="Times,serif" font-size="14" text-anchor="middle">owner</text></g><g id="edge2" class="edge"><title>MCD_IOU-&gt;MCD_GOV_GUARD</title><path fill="none" stroke="#000" d="M625.5997,-1243.7032C650.3771,-1262.7156 689.522,-1292.7525 716.9747,-1313.8178"/><polygon fill="#000" stroke="#000" points="715.026 -1316.734 725.09 -1320.045 719.288 -1311.181 715.026 -1316.734"/><text x="646.014" y="-1282.96" fill="#000" font-family="Times,serif" font-size="14" text-anchor="middle">authority</text></g><g id="edge56" class="edge"><title>MCD_IOU-&gt;MCD_ADM</title><path fill="none" stroke="#000" d="M625.5372,-1243.6725C678.9271,-1278.6032 809.8559,-1354.4888 877.4079,-1389.9716"/><polygon fill="#000" stroke="#000" points="876.018 -1393.194 886.505 -1394.702 879.247 -1386.983 876.018 -1393.194"/><text x="718.033" y="-1304.222" fill="#000" font-family="Times,serif" font-size="14" text-anchor="middle">permit-mint</text></g><g id="edge57" class="edge"><title>MCD_IOU-&gt;MCD_ADM</title><path fill="none" stroke="#000" d="M629.1398,-1236.8177C687.3826,-1266.2142 824.1808,-1344.9864 886.8488,-1384.9811"/><polygon fill="#000" stroke="#000" points="885.239 -1388.108 895.539 -1390.59 889.035 -1382.226 885.239 -1388.108"/><text x="791.428" y="-1298.299" fill="#000" font-family="Times,serif" font-size="14" text-anchor="middle">permit-burn</text></g><g id="node20" class="node"><title>Flipper_ETH-A</title><polygon fill="none" stroke="#000" points="1338.294 -60.105 1232.456 -60.105 1232.456 -24.105 1338.294 -24.105 1338.294 -60.105"/><text x="1285.375" y="-37.905" fill="#000" font-family="Times,serif" font-size="14" text-anchor="middle">Flipper_ETH-A</text></g><g id="edge34" class="edge"><title>Flipper_ETH-A-&gt;MCD_PAUSE_PROXY</title><path fill="none" stroke="#000" d="M1328.87,-60.121C1351.4443,-69.4716 1379.2083,-80.9718 1403.0247,-90.8369"/><polygon fill="#000" stroke="#000" points="1401.701 -94.077 1412.279 -94.67 1404.38 -87.61 1401.701 -94.077"/><text x="1355.064" y="-79.679" fill="#000" font-family="Times,serif" font-size="14" text-anchor="middle">rely</text></g><g id="edge33" class="edge"><title>Flipper_ETH-A-&gt;MCD_END</title><path fill="none" stroke="#000" d="M1267.2787,-60.2009C1156.8453,-170.6344 574.1341,-753.3455 444.5271,-882.9526"/><polygon fill="#000" stroke="#000" points="441.925 -880.605 437.328 -890.151 446.874 -885.555 441.925 -880.605"/><text x="845.02" y="-475.777" fill="#000" font-family="Times,serif" font-size="14" text-anchor="middle">rely</text></g><g id="node22" class="node"><title>Flipper_ETH-B</title><polygon fill="none" stroke="#000" points="1154.43 -36 1050.133 -36 1050.133 0 1154.43 0 1154.43 -36"/><text x="1102.281" y="-13.8" fill="#000" font-family="Times,serif" font-size="14" text-anchor="middle">Flipper_ETH-B</text></g><g id="edge37" class="edge"><title>Flipper_ETH-B-&gt;MCD_PAUSE_PROXY</title><path fill="none" stroke="#000" d="M1154.4724,-31.9846C1218.9449,-49.2599 1328.3902,-78.5857 1396.186,-96.7515"/><polygon fill="#000" stroke="#000" points="1395.311 -100.141 1405.876 -99.348 1397.123 -93.379 1395.311 -100.141"/><text x="1264.446" y="-68.568" fill="#000" font-family="Times,serif" font-size="14" text-anchor="middle">rely</text></g><g id="edge36" class="edge"><title>Flipper_ETH-B-&gt;MCD_END</title><path fill="none" stroke="#000" d="M1088.3222,-36.1919C1002.0178,-148.6659 541.4424,-748.8994 439.1175,-882.2518"/><polygon fill="#000" stroke="#000" points="436.214 -880.286 432.903 -890.35 441.768 -884.547 436.214 -880.286"/><text x="752.837" y="-463.422" fill="#000" font-family="Times,serif" font-size="14" text-anchor="middle">rely</text></g><g id="node24" class="node"><title>Flipper_ETH-C</title><polygon fill="none" stroke="#000" points="971.336 -60.105 867.039 -60.105 867.039 -24.105 971.336 -24.105 971.336 -60.105"/><text x="919.188" y="-37.905" fill="#000" font-family="Times,serif" font-size="14" text-anchor="middle">Flipper_ETH-C</text></g><g id="edge40" class="edge"><title>Flipper_ETH-C-&gt;MCD_PAUSE_PROXY</title><path fill="none" stroke="#000" d="M971.636,-49.0097C1071.719,-62.1859 1289.4041,-90.8447 1395.4698,-104.8085"/><polygon fill="#000" stroke="#000" points="1395.315 -108.318 1405.686 -106.153 1396.228 -101.378 1395.315 -108.318"/><text x="1172.67" y="-81.109" fill="#000" font-family="Times,serif" font-size="14" text-anchor="middle">rely</text></g><g id="edge39" class="edge"><title>Flipper_ETH-C-&gt;MCD_END</title><path fill="none" stroke="#000" d="M908.7398,-60.2009C845.235,-170.1944 511.2289,-748.7099 434.6307,-881.382"/><polygon fill="#000" stroke="#000" points="431.537 -879.741 429.568 -890.151 437.599 -883.241 431.537 -879.741"/><text x="660.802" y="-474.991" fill="#000" font-family="Times,serif" font-size="14" text-anchor="middle">rely</text></g><g id="node26" class="node"><title>Flipper_COL1-A</title><polygon fill="none" stroke="#000" points="805.274 -130.776 691.869 -130.776 691.869 -94.776 805.274 -94.776 805.274 -130.776"/><text x="748.572" y="-108.576" fill="#000" font-family="Times,serif" font-size="14" text-anchor="middle">Flipper_COL1-A</text></g><g id="edge43" class="edge"><title>Flipper_COL1-A-&gt;MCD_PAUSE_PROXY</title><path fill="none" stroke="#000" d="M805.2668,-112.7762C936.5987,-112.7762 1260.7272,-112.7762 1395.5975,-112.7762"/><polygon fill="#000" stroke="#000" points="1395.746 -116.276 1405.746 -112.776 1395.746 -109.276 1395.746 -116.276"/><text x="1089.549" y="-116.976" fill="#000" font-family="Times,serif" font-size="14" text-anchor="middle">rely</text></g><g id="edge42" class="edge"><title>Flipper_COL1-A-&gt;MCD_END</title><path fill="none" stroke="#000" d="M741.068,-130.8914C698.0113,-234.8394 482.4507,-755.2488 430.3268,-881.087"/><polygon fill="#000" stroke="#000" points="427.052 -879.848 426.458 -890.426 433.519 -882.527 427.052 -879.848"/><text x="574.814" y="-510.189" fill="#000" font-family="Times,serif" font-size="14" text-anchor="middle">rely</text></g><g id="node28" class="node"><title>Flipper_COL2-A</title><polygon fill="none" stroke="#000" points="658.762 -243.198 545.358 -243.198 545.358 -207.198 658.762 -207.198 658.762 -243.198"/><text x="602.06" y="-220.998" fill="#000" font-family="Times,serif" font-size="14" text-anchor="middle">Flipper_COL2-A</text></g><g id="edge46" class="edge"><title>Flipper_COL2-A-&gt;MCD_PAUSE_PROXY</title><path fill="none" stroke="#000" d="M658.7502,-217.735C812.7517,-197.4603 1237.8538,-141.4946 1395.8379,-120.6956"/><polygon fill="#000" stroke="#000" points="1396.395 -124.153 1405.852 -119.377 1395.481 -117.213 1396.395 -124.153"/><text x="1016.411" y="-173.415" fill="#000" font-family="Times,serif" font-size="14" text-anchor="middle">rely</text></g><g id="edge45" class="edge"><title>Flipper_COL2-A-&gt;MCD_END</title><path fill="none" stroke="#000" d="M597.1628,-243.4754C571.9604,-337.5323 456.8836,-767.0046 426.3965,-880.7839"/><polygon fill="#000" stroke="#000" points="423.001 -879.932 423.794 -890.497 429.763 -881.744 423.001 -879.932"/><text x="500.897" y="-566.33" fill="#000" font-family="Times,serif" font-size="14" text-anchor="middle">rely</text></g><g id="node30" class="node"><title>Flipper_COL3-A</title><polygon fill="none" stroke="#000" points="546.34 -389.71 432.936 -389.71 432.936 -353.71 546.34 -353.71 546.34 -389.71"/><text x="489.638" y="-367.51" fill="#000" font-family="Times,serif" font-size="14" text-anchor="middle">Flipper_COL3-A</text></g><g id="edge49" class="edge"><title>Flipper_COL3-A-&gt;MCD_PAUSE_PROXY</title><path fill="none" stroke="#000" d="M546.48,-356.479C716.7385,-310.8584 1221.5587,-175.5922 1395.9422,-128.8663"/><polygon fill="#000" stroke="#000" points="1396.966 -132.215 1405.719 -126.246 1395.154 -125.454 1396.966 -132.215"/><text x="960.328" y="-246.873" fill="#000" font-family="Times,serif" font-size="14" text-anchor="middle">rely</text></g><g id="edge48" class="edge"><title>Flipper_COL3-A-&gt;MCD_END</title><path fill="none" stroke="#000" d="M487.2461,-389.8778C476.8335,-468.9693 435.4094,-783.6167 422.6963,-880.1826"/><polygon fill="#000" stroke="#000" points="419.193 -879.978 421.358 -890.35 426.133 -880.892 419.193 -879.978"/><text x="444.088" y="-639.23" fill="#000" font-family="Times,serif" font-size="14" text-anchor="middle">rely</text></g><g id="node32" class="node"><title>Flipper_COL4-A</title><polygon fill="none" stroke="#000" points="475.669 -560.326 362.264 -560.326 362.264 -524.326 475.669 -524.326 475.669 -560.326"/><text x="418.966" y="-538.126" fill="#000" font-family="Times,serif" font-size="14" text-anchor="middle">Flipper_COL4-A</text></g><g id="edge52" class="edge"><title>Flipper_COL4-A-&gt;MCD_PAUSE_PROXY</title><path fill="none" stroke="#000" d="M462.5342,-524.2795C628.6124,-455.4877 1221.7421,-209.8053 1402.9961,-134.7275"/><polygon fill="#000" stroke="#000" points="1404.426 -137.924 1412.325 -130.863 1401.747 -131.457 1404.426 -137.924"/><text x="921.882" y="-333.704" fill="#000" font-family="Times,serif" font-size="14" text-anchor="middle">rely</text></g><g id="edge51" class="edge"><title>Flipper_COL4-A-&gt;MCD_END</title><path fill="none" stroke="#000" d="M418.9665,-560.4852C418.9665,-619.7849 418.9665,-808.0633 418.9665,-880.1022"/><polygon fill="#000" stroke="#000" points="415.467 -880.244 418.966 -890.244 422.467 -880.244 415.467 -880.244"/><text x="408.084" y="-707.694" fill="#000" font-family="Times,serif" font-size="14" text-anchor="middle">rely</text></g><g id="node34" class="node"><title>Flipper_COL5-A</title><polygon fill="none" stroke="#000" points="451.564 -743.419 338.16 -743.419 338.16 -707.419 451.564 -707.419 451.564 -743.419"/><text x="394.862" y="-721.22" fill="#000" font-family="Times,serif" font-size="14" text-anchor="middle">Flipper_COL5-A</text></g><g id="edge55" class="edge"><title>Flipper_COL5-A-&gt;MCD_PAUSE_PROXY</title><path fill="none" stroke="#000" d="M426.0447,-707.4161C578.5637,-619.3592 1245.5226,-234.2903 1416.131,-135.7894"/><polygon fill="#000" stroke="#000" points="1417.896 -138.812 1424.806 -130.781 1414.396 -132.75 1417.896 -138.812"/><text x="910.205" y="-425.803" fill="#000" font-family="Times,serif" font-size="14" text-anchor="middle">rely</text></g><g id="edge54" class="edge"><title>Flipper_COL5-A-&gt;MCD_END</title><path fill="none" stroke="#000" d="M397.2611,-743.6446C401.4664,-775.5869 410.1964,-841.8982 415.209,-879.9723"/><polygon fill="#000" stroke="#000" points="411.801 -880.904 416.577 -890.362 418.741 -879.99 411.801 -880.904"/><text x="395.352" y="-816.009" fill="#000" font-family="Times,serif" font-size="14" text-anchor="middle">rely</text></g><g id="node36" class="node"><title>isolated</title><polygon fill="none" stroke="#000" points="2395.973 -1710.72 1794.59 -1710.72 1794.59 -1518.119 2395.973 -1518.119 2395.973 -1710.72"/><text x="2095.281" y="-1694.219" fill="#000" font-family="Times,serif" font-size="14" text-anchor="middle">Isolated Contracts:</text><text x="2095.281" y="-1677.419" fill="#000" font-family="Times,serif" font-size="14" text-anchor="middle">MCD_DAI, MCD_JOIN_DAI, MULTICALL, FAUCET, VOTE_PROXY_FACTORY,</text><text x="2095.281" y="-1660.62" fill="#000" font-family="Times,serif" font-size="14" text-anchor="middle">PROXY_ACTIONS, CDP_MANAGER, GET_CDPS, PROXY_FACTORY,</text><text x="2095.281" y="-1643.82" fill="#000" font-family="Times,serif" font-size="14" text-anchor="middle">PROXY_REGISTRY, PROXY_PAUSE_ACTIONS, PROXY_DEPLOYER, MCD_GOV_ACTIONS,</text><text x="2095.281" y="-1627.02" fill="#000" font-family="Times,serif" font-size="14" text-anchor="middle">GOV_POLL_GEN, VOTE_YES, VOTE_NO, MCD_ESM,</text><text x="2095.281" y="-1610.219" fill="#000" font-family="Times,serif" font-size="14" text-anchor="middle">ETH, PIP_ETH, COL1, PIP_COL1,</text><text x="2095.281" y="-1593.419" fill="#000" font-family="Times,serif" font-size="14" text-anchor="middle">COL2, PIP_COL2, COL3, PIP_COL3,</text><text x="2095.281" y="-1576.62" fill="#000" font-family="Times,serif" font-size="14" text-anchor="middle">COL4, PIP_COL4, COL5, PIP_COL5,</text><text x="2095.281" y="-1559.82" fill="#000" font-family="Times,serif" font-size="14" text-anchor="middle">vatFab, jugFab, vowFab, catFab,</text><text x="2095.281" y="-1543.02" fill="#000" font-family="Times,serif" font-size="14" text-anchor="middle">daiFab, daiJoinFab, flapFab, flopFab,</text><text x="2095.281" y="-1526.219" fill="#000" font-family="Times,serif" font-size="14" text-anchor="middle">flipFab, spotFab, potFab, pauseFab,</text></g></g></svg>