<svg xmlns="http://www.w3.org/2000/svg" xmlns:xlink="http://www.w3.org/1999/xlink" width="2894pt" height="1862pt" viewBox="0 0 2893.67 1862.35"><g id="graph0" class="graph" transform="scale(1 1) rotate(0) translate(4 1858.3513)"><title>%0</title><polygon fill="#fff" stroke="transparent" points="-4 4 -4 -1858.351 2889.666 -1858.351 2889.666 4 -4 4"/><g id="node1" class="node"><title>zero</title><polygon fill="none" stroke="#000" points="1023.48 -633.827 969.48 -633.827 969.48 -597.827 1023.48 -597.827 1023.48 -633.827"/><text x="996.48" y="-611.626" fill="#000" font-family="Times,serif" font-size="14" text-anchor="middle">zero</text></g><g id="node2" class="node"><title>deployer</title><polygon fill="none" stroke="#000" points="1944.497 -192.928 1879.536 -192.928 1879.536 -156.928 1944.497 -156.928 1944.497 -192.928"/><text x="1912.017" y="-170.727" fill="#000" font-family="Times,serif" font-size="14" text-anchor="middle">deployer</text></g><g id="node3" class="node"><title>MCD_DEPLOY</title><polygon fill="none" stroke="#000" points="445.764 -349.734 367.348 -349.734 367.348 -313.734 445.764 -313.734 445.764 -349.734"/><text x="406.556" y="-327.534" fill="#000" font-family="Times,serif" font-size="14" text-anchor="middle">DssDeploy</text></g><g id="edge9" class="edge"><title>MCD_DEPLOY-&gt;zero</title><path fill="none" stroke="#000" d="M444.3555,-349.9371C551.2581,-401.4187 854.8145,-547.6038 960.0353,-598.2754"/><polygon fill="#000" stroke="#000" points="958.77 -601.551 969.298 -602.736 961.807 -595.244 958.77 -601.551"/><text x="684.705" y="-478.306" fill="#000" font-family="Times,serif" font-size="14" text-anchor="middle">owner</text></g><g id="node42" class="node"><title>0x9E225D8780e5B3a24d4379B8d1023C2447e02b1D</title><polygon fill="none" stroke="#000" points="322.629 -231.581 -.21 -231.581 -.21 -195.581 322.629 -195.581 322.629 -231.581"/><text x="161.21" y="-209.381" fill="#000" font-family="Times,serif" font-size="14" text-anchor="middle">0x9E225D8780e5B3a24d4379B8d1023C2447e02b1D</text></g><g id="edge14" class="edge"><title>MCD_DEPLOY-&gt;0x9E225D8780e5B3a24d4379B8d1023C2447e02b1D</title><path fill="none" stroke="#000" d="M369.0258,-313.6603C325.7348,-292.8124 254.5288,-258.5214 207.7499,-235.9939"/><polygon fill="#000" stroke="#000" points="209.264 -232.838 198.735 -231.653 206.226 -239.145 209.264 -232.838"/><text x="263.114" y="-279.027" fill="#000" font-family="Times,serif" font-size="14" text-anchor="middle">authority</text></g><g id="node4" class="node"><title>MCD_VAT</title><polygon fill="none" stroke="#000" points="963.211 -1168.733 909.211 -1168.733 909.211 -1132.733 963.211 -1132.733 963.211 -1168.733"/><text x="936.211" y="-1146.533" fill="#000" font-family="Times,serif" font-size="14" text-anchor="middle">Vat</text></g><g id="node7" class="node"><title>MCD_JUG</title><polygon fill="none" stroke="#000" points="942.779 -987.4 888.779 -987.4 888.779 -951.4 942.779 -951.4 942.779 -987.4"/><text x="915.779" y="-965.2" fill="#000" font-family="Times,serif" font-size="14" text-anchor="middle">Jug</text></g><g id="edge21" class="edge"><title>MCD_VAT-&gt;MCD_JUG</title><path fill="none" stroke="#000" d="M934.1772,-1132.6833C930.6219,-1101.1297 923.2512,-1035.7128 918.9973,-997.9586"/><polygon fill="#000" stroke="#000" points="922.433 -997.191 917.835 -987.646 915.477 -997.975 922.433 -997.191"/><text x="915.704" y="-1069.521" fill="#000" font-family="Times,serif" font-size="14" text-anchor="middle">rely</text></g><g id="node8" class="node"><title>MCD_POT</title><polygon fill="none" stroke="#000" points="1023.48 -1340.974 969.48 -1340.974 969.48 -1304.974 1023.48 -1304.974 1023.48 -1340.974"/><text x="996.48" y="-1318.774" fill="#000" font-family="Times,serif" font-size="14" text-anchor="middle">Pot</text></g><g id="edge22" class="edge"><title>MCD_VAT-&gt;MCD_POT</title><path fill="none" stroke="#000" d="M942.5469,-1168.8404C953.0822,-1198.9485 974.2722,-1259.5063 986.7252,-1295.0947"/><polygon fill="#000" stroke="#000" points="983.532 -1296.568 990.139 -1304.851 990.14 -1294.256 983.532 -1296.568"/><text x="953.753" y="-1236.168" fill="#000" font-family="Times,serif" font-size="14" text-anchor="middle">rely</text></g><g id="node11" class="node"><title>MCD_VOW</title><polygon fill="none" stroke="#000" points="2394.801 -479.316 2340.801 -479.316 2340.801 -443.316 2394.801 -443.316 2394.801 -479.316"/><text x="2367.801" y="-457.116" fill="#000" font-family="Times,serif" font-size="14" text-anchor="middle">Vow</text></g><g id="edge20" class="edge"><title>MCD_VAT-&gt;MCD_VOW</title><path fill="none" stroke="#000" d="M963.2155,-1137.7284C1139.858,-1052.6619 2129.5214,-576.0651 2331.7194,-478.6917"/><polygon fill="#000" stroke="#000" points="2333.255 -481.837 2340.746 -474.345 2330.218 -475.53 2333.255 -481.837"/><text x="1636.585" y="-812.41" fill="#000" font-family="Times,serif" font-size="14" text-anchor="middle">rely</text></g><g id="node12" class="node"><title>MCD_CAT</title><polygon fill="none" stroke="#000" points="2552.156 -806.067 2498.156 -806.067 2498.156 -770.067 2552.156 -770.067 2552.156 -806.067"/><text x="2525.156" y="-783.867" fill="#000" font-family="Times,serif" font-size="14" text-anchor="middle">Cat</text></g><g id="edge25" class="edge"><title>MCD_VAT-&gt;MCD_CAT</title><path fill="none" stroke="#000" d="M963.4557,-1144.5147C1152.6282,-1101.3373 2269.3244,-846.4587 2488.0148,-796.544"/><polygon fill="#000" stroke="#000" points="2489.058 -799.896 2498.029 -794.258 2487.501 -793.071 2489.058 -799.896"/><text x="1714.852" y="-974.729" fill="#000" font-family="Times,serif" font-size="14" text-anchor="middle">rely</text></g><g id="node13" class="node"><title>MCD_SPOT</title><polygon fill="none" stroke="#000" points="1122.007 -1495.484 1065.125 -1495.484 1065.125 -1459.484 1122.007 -1459.484 1122.007 -1495.484"/><text x="1093.566" y="-1473.284" fill="#000" font-family="Times,serif" font-size="14" text-anchor="middle">Spotter</text></g><g id="edge18" class="edge"><title>MCD_VAT-&gt;MCD_SPOT</title><path fill="none" stroke="#000" d="M944.8951,-1168.7662C971.0018,-1222.9772 1048.9023,-1384.7392 1080.2657,-1449.866"/><polygon fill="#000" stroke="#000" points="1077.222 -1451.613 1084.715 -1459.104 1083.529 -1448.576 1077.222 -1451.613"/><text x="1023.463" y="-1296.716" fill="#000" font-family="Times,serif" font-size="14" text-anchor="middle">rely</text></g><g id="node16" class="node"><title>MCD_PAUSE_PROXY</title><polygon fill="none" stroke="#000" points="1272.588 -1624.517 1172.61 -1624.517 1172.61 -1588.517 1272.588 -1588.517 1272.588 -1624.517"/><text x="1222.599" y="-1602.318" fill="#000" font-family="Times,serif" font-size="14" text-anchor="middle">DSPauseProxy</text></g><g id="edge31" class="edge"><title>MCD_VAT-&gt;MCD_PAUSE_PROXY</title><path fill="none" stroke="#000" d="M947.6144,-1168.8817C991.9354,-1239.4182 1152.8899,-1495.5759 1205.6926,-1579.6109"/><polygon fill="#000" stroke="#000" points="1202.879 -1581.712 1211.163 -1588.317 1208.806 -1577.988 1202.879 -1581.712"/><text x="1065.771" y="-1378.446" fill="#000" font-family="Times,serif" font-size="14" text-anchor="middle">rely</text></g><g id="node22" class="node"><title>MCD_END</title><polygon fill="none" stroke="#000" points="2572.587 -987.4 2518.587 -987.4 2518.587 -951.4 2572.587 -951.4 2572.587 -987.4"/><text x="2545.587" y="-965.2" fill="#000" font-family="Times,serif" font-size="14" text-anchor="middle">End</text></g><g id="edge27" class="edge"><title>MCD_VAT-&gt;MCD_END</title><path fill="none" stroke="#000" d="M963.4694,-1147.6619C1154.1725,-1126.1748 2287.412,-998.4894 2508.2839,-973.6031"/><polygon fill="#000" stroke="#000" points="2508.848 -977.062 2518.393 -972.464 2508.064 -970.106 2508.848 -977.062"/><text x="1724.994" y="-1064.832" fill="#000" font-family="Times,serif" font-size="14" text-anchor="middle">rely</text></g><g id="node24" class="node"><title>ETHJoin_A</title><polygon fill="none" stroke="#000" points="695.702 -1854.351 612.393 -1854.351 612.393 -1818.351 695.702 -1818.351 695.702 -1854.351"/><text x="654.047" y="-1832.151" fill="#000" font-family="Times,serif" font-size="14" text-anchor="middle">ETHJoin_A</text></g><g id="edge40" class="edge"><title>MCD_VAT-&gt;ETHJoin_A</title><path fill="none" stroke="#000" d="M928.6637,-1169.0718C889.7853,-1263.5407 712.1235,-1695.234 665.356,-1808.8725"/><polygon fill="#000" stroke="#000" points="662.056 -1807.695 661.487 -1818.274 668.529 -1810.359 662.056 -1807.695"/><text x="786.127" y="-1493.172" fill="#000" font-family="Times,serif" font-size="14" text-anchor="middle">rely</text></g><g id="node26" class="node"><title>ETHJoin_B</title><polygon fill="none" stroke="#000" points="605.039 -1728.207 522.272 -1728.207 522.272 -1692.207 605.039 -1692.207 605.039 -1728.207"/><text x="563.655" y="-1706.007" fill="#000" font-family="Times,serif" font-size="14" text-anchor="middle">ETHJoin_B</text></g><g id="edge43" class="edge"><title>MCD_VAT-&gt;ETHJoin_B</title><path fill="none" stroke="#000" d="M924.0271,-1169.0298C869.3031,-1251.2099 646.0827,-1586.4244 581.3367,-1683.6549"/><polygon fill="#000" stroke="#000" points="578.376 -1681.787 575.746 -1692.05 584.202 -1685.667 578.376 -1681.787"/><text x="741.799" y="-1430.542" fill="#000" font-family="Times,serif" font-size="14" text-anchor="middle">rely</text></g><g id="node28" class="node"><title>ETHJoin_C</title><polygon fill="none" stroke="#000" points="529.525 -1593.072 446.757 -1593.072 446.757 -1557.072 529.525 -1557.072 529.525 -1593.072"/><text x="488.141" y="-1570.872" fill="#000" font-family="Times,serif" font-size="14" text-anchor="middle">ETHJoin_C</text></g><g id="edge46" class="edge"><title>MCD_VAT-&gt;ETHJoin_C</title><path fill="none" stroke="#000" d="M916.9579,-1168.9665C845.7205,-1236.431 596.968,-1472.0092 514.7479,-1549.8748"/><polygon fill="#000" stroke="#000" points="512.177 -1547.489 507.322 -1556.907 516.99 -1552.572 512.177 -1547.489"/><text x="704.97" y="-1363.621" fill="#000" font-family="Times,serif" font-size="14" text-anchor="middle">rely</text></g><g id="node30" class="node"><title>REPJoin_A</title><polygon fill="none" stroke="#000" points="469.453 -1450.704 387.226 -1450.704 387.226 -1414.704 469.453 -1414.704 469.453 -1450.704"/><text x="428.34" y="-1428.504" fill="#000" font-family="Times,serif" font-size="14" text-anchor="middle">REPJoin_A</text></g><g id="edge49" class="edge"><title>MCD_VAT-&gt;REPJoin_A</title><path fill="none" stroke="#000" d="M908.9055,-1165.8931C824.9904,-1212.4829 570.485,-1353.7846 469.8916,-1409.6342"/><polygon fill="#000" stroke="#000" points="467.974 -1406.695 460.93 -1414.61 471.372 -1412.815 467.974 -1406.695"/><text x="678.516" y="-1291.964" fill="#000" font-family="Times,serif" font-size="14" text-anchor="middle">rely</text></g><g id="node32" class="node"><title>ZRXJoin_A</title><polygon fill="none" stroke="#000" points="427.052 -1301.797 342.175 -1301.797 342.175 -1265.797 427.052 -1265.797 427.052 -1301.797"/><text x="384.613" y="-1279.597" fill="#000" font-family="Times,serif" font-size="14" text-anchor="middle">ZRXJoin_A</text></g><g id="edge52" class="edge"><title>MCD_VAT-&gt;ZRXJoin_A</title><path fill="none" stroke="#000" d="M908.8571,-1157.3318C822.024,-1178.2789 551.5946,-1243.5158 436.8911,-1271.1861"/><polygon fill="#000" stroke="#000" points="435.841 -1267.839 426.94 -1273.587 437.482 -1274.644 435.841 -1267.839"/><text x="661.991" y="-1218.459" fill="#000" font-family="Times,serif" font-size="14" text-anchor="middle">rely</text></g><g id="node34" class="node"><title>OMGJoin_A</title><polygon fill="none" stroke="#000" points="402.05 -1145.458 312.851 -1145.458 312.851 -1109.458 402.05 -1109.458 402.05 -1145.458"/><text x="357.451" y="-1123.258" fill="#000" font-family="Times,serif" font-size="14" text-anchor="middle">OMGJoin_A</text></g><g id="edge55" class="edge"><title>MCD_VAT-&gt;OMGJoin_A</title><path fill="none" stroke="#000" d="M909.0724,-1149.6418C819.7137,-1146.0482 533.5001,-1134.538 412.3974,-1129.6678"/><polygon fill="#000" stroke="#000" points="412.371 -1126.164 402.238 -1129.259 412.089 -1133.158 412.371 -1126.164"/><text x="649.852" y="-1143.855" fill="#000" font-family="Times,serif" font-size="14" text-anchor="middle">rely</text></g><g id="node36" class="node"><title>BATJoin_A</title><polygon fill="none" stroke="#000" points="390.823 -987.036 305.946 -987.036 305.946 -951.036 390.823 -951.036 390.823 -987.036"/><text x="348.385" y="-964.836" fill="#000" font-family="Times,serif" font-size="14" text-anchor="middle">BATJoin_A</text></g><g id="edge58" class="edge"><title>MCD_VAT-&gt;BATJoin_A</title><path fill="none" stroke="#000" d="M909.0377,-1142.3339C817.7848,-1114.1277 521.2766,-1022.4769 400.3976,-985.1131"/><polygon fill="#000" stroke="#000" points="401.216 -981.703 390.628 -982.093 399.148 -988.39 401.216 -981.703"/><text x="643.835" y="-1067.924" fill="#000" font-family="Times,serif" font-size="14" text-anchor="middle">rely</text></g><g id="node38" class="node"><title>DGDJoin_A</title><polygon fill="none" stroke="#000" points="400.662 -829.78 314.139 -829.78 314.139 -793.78 400.662 -793.78 400.662 -829.78"/><text x="357.401" y="-807.58" fill="#000" font-family="Times,serif" font-size="14" text-anchor="middle">DGDJoin_A</text></g><g id="edge61" class="edge"><title>MCD_VAT-&gt;DGDJoin_A</title><path fill="none" stroke="#000" d="M909.07,-1134.8394C815.7008,-1080.162 507.428,-899.6365 397.1037,-835.0302"/><polygon fill="#000" stroke="#000" points="398.676 -831.895 388.278 -829.862 395.138 -837.935 398.676 -831.895"/><text x="642.204" y="-989.135" fill="#000" font-family="Times,serif" font-size="14" text-anchor="middle">rely</text></g><g id="node40" class="node"><title>GNTJoin_A</title><polygon fill="none" stroke="#000" points="427.043 -674.196 341.627 -674.196 341.627 -638.196 427.043 -638.196 427.043 -674.196"/><text x="384.335" y="-651.996" fill="#000" font-family="Times,serif" font-size="14" text-anchor="middle">GNTJoin_A</text></g><g id="edge64" class="edge"><title>MCD_VAT-&gt;GNTJoin_A</title><path fill="none" stroke="#000" d="M915.9148,-1132.5458C831.6499,-1057.0357 509.2638,-768.1444 412.1683,-681.1368"/><polygon fill="#000" stroke="#000" points="414.307 -678.354 404.524 -674.287 409.636 -683.567 414.307 -678.354"/><text x="653.159" y="-911.041" fill="#000" font-family="Times,serif" font-size="14" text-anchor="middle">rely</text></g><g id="node5" class="node"><title>MCD_DAI</title><polygon fill="none" stroke="#000" points="733.91 -308.4 679.91 -308.4 679.91 -272.4 733.91 -272.4 733.91 -308.4"/><text x="706.91" y="-286.2" fill="#000" font-family="Times,serif" font-size="14" text-anchor="middle">Dai</text></g><g id="node6" class="node"><title>MCD_JOIN_DAI</title><polygon fill="none" stroke="#000" points="865.232 -308.4 806.135 -308.4 806.135 -272.4 865.232 -272.4 865.232 -308.4"/><text x="835.683" y="-286.2" fill="#000" font-family="Times,serif" font-size="14" text-anchor="middle">DaiJoin</text></g><g id="edge19" class="edge"><title>MCD_DAI-&gt;MCD_JOIN_DAI</title><path fill="none" stroke="#000" d="M734.2195,-290.4C752.0745,-290.4 775.7,-290.4 795.6609,-290.4"/><polygon fill="#000" stroke="#000" points="795.715 -293.9 805.715 -290.4 795.715 -286.9 795.715 -293.9"/><text x="754.057" y="-294.6" fill="#000" font-family="Times,serif" font-size="14" text-anchor="middle">rely</text></g><g id="edge34" class="edge"><title>MCD_JUG-&gt;MCD_PAUSE_PROXY</title><path fill="none" stroke="#000" d="M924.4678,-987.4414C967.4495,-1076.6937 1157.3516,-1471.0294 1209.3795,-1579.0665"/><polygon fill="#000" stroke="#000" points="1206.348 -1580.839 1213.84 -1588.33 1212.655 -1577.801 1206.348 -1580.839"/><text x="1056.041" y="-1287.454" fill="#000" font-family="Times,serif" font-size="14" text-anchor="middle">rely</text></g><g id="edge35" class="edge"><title>MCD_POT-&gt;MCD_PAUSE_PROXY</title><path fill="none" stroke="#000" d="M1010.9691,-1341.1418C1049.8166,-1389.855 1156.4145,-1523.5245 1201.7509,-1580.3746"/><polygon fill="#000" stroke="#000" points="1199.26 -1582.864 1208.231 -1588.501 1204.733 -1578.5 1199.26 -1582.864"/><text x="1117.243" y="-1448.158" fill="#000" font-family="Times,serif" font-size="14" text-anchor="middle">rely</text></g><g id="node9" class="node"><title>MCD_FLAP</title><polygon fill="none" stroke="#000" points="2494.15 -633.827 2435.623 -633.827 2435.623 -597.827 2494.15 -597.827 2494.15 -633.827"/><text x="2464.886" y="-611.626" fill="#000" font-family="Times,serif" font-size="14" text-anchor="middle">Flapper</text></g><g id="edge23" class="edge"><title>MCD_FLAP-&gt;MCD_VOW</title><path fill="none" stroke="#000" d="M2453.5595,-597.7997C2436.6239,-570.8469 2404.5847,-519.8569 2384.8235,-488.407"/><polygon fill="#000" stroke="#000" points="2387.641 -486.312 2379.357 -479.707 2381.713 -490.036 2387.641 -486.312"/><text x="2408.309" y="-547.303" fill="#000" font-family="Times,serif" font-size="14" text-anchor="middle">rely</text></g><g id="edge37" class="edge"><title>MCD_FLAP-&gt;MCD_PAUSE_PROXY</title><path fill="none" stroke="#000" d="M2442.2637,-633.8675C2291.1653,-754.3644 1429.0066,-1441.913 1253.7031,-1581.713"/><polygon fill="#000" stroke="#000" points="1251.285 -1579.165 1245.649 -1588.136 1255.649 -1584.637 1251.285 -1579.165"/><text x="1837.101" y="-1111.99" fill="#000" font-family="Times,serif" font-size="14" text-anchor="middle">rely</text></g><g id="node10" class="node"><title>MCD_FLOP</title><polygon fill="none" stroke="#000" points="2268.318 -350.283 2209.218 -350.283 2209.218 -314.283 2268.318 -314.283 2268.318 -350.283"/><text x="2238.768" y="-328.082" fill="#000" font-family="Times,serif" font-size="14" text-anchor="middle">Flopper</text></g><g id="edge24" class="edge"><title>MCD_FLOP-&gt;MCD_VOW</title><path fill="none" stroke="#000" d="M2256.9813,-350.4961C2279.2678,-372.7826 2317.1345,-410.6493 2342.3067,-435.8215"/><polygon fill="#000" stroke="#000" points="2340.134 -438.599 2349.68 -443.195 2345.084 -433.649 2340.134 -438.599"/><text x="2288.761" y="-397.359" fill="#000" font-family="Times,serif" font-size="14" text-anchor="middle">rely</text></g><g id="edge38" class="edge"><title>MCD_FLOP-&gt;MCD_PAUSE_PROXY</title><path fill="none" stroke="#000" d="M2224.4028,-350.2955C2112.195,-490.9996 1377.022,-1412.8774 1243.4119,-1580.4191"/><polygon fill="#000" stroke="#000" points="1240.664 -1578.252 1237.165 -1588.252 1246.137 -1582.616 1240.664 -1578.252"/><text x="1723.024" y="-952.757" fill="#000" font-family="Times,serif" font-size="14" text-anchor="middle">rely</text></g><g id="edge26" class="edge"><title>MCD_VOW-&gt;MCD_CAT</title><path fill="none" stroke="#000" d="M2376.4851,-479.3487C2402.5918,-533.5598 2480.4923,-695.3218 2511.8557,-760.4486"/><polygon fill="#000" stroke="#000" points="2508.812 -762.196 2516.305 -769.687 2515.119 -759.159 2508.812 -762.196"/><text x="2433.287" y="-624.099" fill="#000" font-family="Times,serif" font-size="14" text-anchor="middle">rely</text></g><g id="edge33" class="edge"><title>MCD_VOW-&gt;MCD_PAUSE_PROXY</title><path fill="none" stroke="#000" d="M2349.3487,-479.768C2216.2352,-612.8814 1403.5431,-1425.5735 1248.2361,-1580.8806"/><polygon fill="#000" stroke="#000" points="1245.535 -1578.632 1240.939 -1588.178 1250.485 -1583.581 1245.535 -1578.632"/><text x="1787.909" y="-1034.524" fill="#000" font-family="Times,serif" font-size="14" text-anchor="middle">rely</text></g><g id="edge29" class="edge"><title>MCD_VOW-&gt;MCD_END</title><path fill="none" stroke="#000" d="M2374.1284,-479.3987C2400.7496,-555.4776 2503.7601,-849.8648 2535.9314,-941.805"/><polygon fill="#000" stroke="#000" points="2532.637 -942.986 2539.243 -951.269 2539.244 -940.674 2532.637 -942.986"/><text x="2444.147" y="-714.802" fill="#000" font-family="Times,serif" font-size="14" text-anchor="middle">rely</text></g><g id="edge32" class="edge"><title>MCD_CAT-&gt;MCD_PAUSE_PROXY</title><path fill="none" stroke="#000" d="M2497.9502,-805.1613C2331.6229,-909.6717 1452.6903,-1461.9416 1259.971,-1583.0352"/><polygon fill="#000" stroke="#000" points="1257.923 -1580.188 1251.318 -1588.472 1261.648 -1586.115 1257.923 -1580.188"/><text x="1868.078" y="-1198.298" fill="#000" font-family="Times,serif" font-size="14" text-anchor="middle">rely</text></g><g id="edge28" class="edge"><title>MCD_CAT-&gt;MCD_END</title><path fill="none" stroke="#000" d="M2527.1897,-806.1167C2530.7449,-837.6703 2538.1156,-903.0872 2542.3695,-940.8414"/><polygon fill="#000" stroke="#000" points="2538.934 -941.609 2543.531 -951.154 2545.89 -940.825 2538.934 -941.609"/><text x="2523.897" y="-877.679" fill="#000" font-family="Times,serif" font-size="14" text-anchor="middle">rely</text></g><g id="edge36" class="edge"><title>MCD_SPOT-&gt;MCD_PAUSE_PROXY</title><path fill="none" stroke="#000" d="M1111.7796,-1495.6979C1134.0661,-1517.9844 1171.9327,-1555.851 1197.105,-1581.0233"/><polygon fill="#000" stroke="#000" points="1194.932 -1583.8 1204.478 -1588.397 1199.882 -1578.851 1194.932 -1583.8"/><text x="1143.559" y="-1542.561" fill="#000" font-family="Times,serif" font-size="14" text-anchor="middle">rely</text></g><g id="node14" class="node"><title>MCD_GOV</title><polygon fill="none" stroke="#000" points="1757.683 -172.496 1703.683 -172.496 1703.683 -136.496 1757.683 -136.496 1757.683 -172.496"/><text x="1730.683" y="-150.296" fill="#000" font-family="Times,serif" font-size="14" text-anchor="middle">MKR</text></g><g id="edge11" class="edge"><title>MCD_GOV-&gt;deployer</title><path fill="none" stroke="#000" d="M1757.8308,-157.5549C1787.2888,-160.874 1834.7247,-166.2188 1869.2104,-170.1044"/><polygon fill="#000" stroke="#000" points="1869.134 -173.618 1879.463 -171.26 1869.918 -166.662 1869.134 -173.618"/><text x="1796.03" y="-168.03" fill="#000" font-family="Times,serif" font-size="14" text-anchor="middle">owner</text></g><g id="edge69" class="edge"><title>MCD_GOV-&gt;MCD_FLOP</title><path fill="none" stroke="#000" d="M1758.0002,-164.0547C1842.5937,-193.6552 2100.4737,-283.8913 2199.4838,-318.5365"/><polygon fill="#000" stroke="#000" points="2198.514 -321.905 2209.109 -321.905 2200.826 -315.298 2198.514 -321.905"/><text x="1945.302" y="-245.496" fill="#000" font-family="Times,serif" font-size="14" text-anchor="middle">permit-mint</text></g><g id="node18" class="node"><title>MCD_GOV_GUARD2</title><polygon fill="none" stroke="#000" points="1593.939 -192.928 1504.762 -192.928 1504.762 -156.928 1593.939 -156.928 1593.939 -192.928"/><text x="1549.35" y="-170.727" fill="#000" font-family="Times,serif" font-size="14" text-anchor="middle">Gov Guard 2</text></g><g id="edge3" class="edge"><title>MCD_GOV-&gt;MCD_GOV_GUARD2</title><path fill="none" stroke="#000" d="M1703.536,-157.5549C1677.3014,-160.5108 1636.808,-165.0734 1603.9016,-168.781"/><polygon fill="#000" stroke="#000" points="1603.502 -165.304 1593.957 -169.901 1604.286 -172.26 1603.502 -165.304"/><text x="1628.445" y="-167.368" fill="#000" font-family="Times,serif" font-size="14" text-anchor="middle">authority</text></g><g id="node15" class="node"><title>MCD_PAUSE</title><polygon fill="none" stroke="#000" points="969.258 -806.067 903.164 -806.067 903.164 -770.067 969.258 -770.067 969.258 -806.067"/><text x="936.211" y="-783.867" fill="#000" font-family="Times,serif" font-size="14" text-anchor="middle">DSPause</text></g><g id="edge10" class="edge"><title>MCD_PAUSE-&gt;zero</title><path fill="none" stroke="#000" d="M942.5469,-769.9596C953.0822,-739.8515 974.2722,-679.2937 986.7252,-643.7053"/><polygon fill="#000" stroke="#000" points="990.14 -644.544 990.139 -633.949 983.532 -642.232 990.14 -644.544"/><text x="947.145" y="-711.033" fill="#000" font-family="Times,serif" font-size="14" text-anchor="middle">owner</text></g><g id="node20" class="node"><title>MCD_ADM</title><polygon fill="none" stroke="#000" points="1126.057 -479.316 1061.074 -479.316 1061.074 -443.316 1126.057 -443.316 1126.057 -479.316"/><text x="1093.566" y="-457.116" fill="#000" font-family="Times,serif" font-size="14" text-anchor="middle">DSChief</text></g><g id="edge5" class="edge"><title>MCD_PAUSE-&gt;MCD_ADM</title><path fill="none" stroke="#000" d="M944.8951,-770.0338C971.0018,-715.8228 1048.9023,-554.0608 1080.2657,-488.934"/><polygon fill="#000" stroke="#000" points="1083.529 -490.224 1084.715 -479.696 1077.222 -487.187 1083.529 -490.224"/><text x="1037.854" y="-633.684" fill="#000" font-family="Times,serif" font-size="14" text-anchor="middle">authority</text></g><g id="edge4" class="edge"><title>MCD_PAUSE_PROXY-&gt;MCD_PAUSE</title><path fill="none" stroke="#000" d="M1216.216,-1588.2755C1179.0918,-1482.1806 991.0759,-944.8621 945.955,-815.9139"/><polygon fill="#000" stroke="#000" points="949.216 -814.636 942.61 -806.353 942.609 -816.948 949.216 -814.636"/><text x="1063.595" y="-1206.295" fill="#000" font-family="Times,serif" font-size="14" text-anchor="middle">owner</text></g><g id="node17" class="node"><title>MCD_GOV_GUARD</title><polygon fill="none" stroke="#000" points="1416.199 -253.197 1338.02 -253.197 1338.02 -217.197 1416.199 -217.197 1416.199 -253.197"/><text x="1377.11" y="-230.997" fill="#000" font-family="Times,serif" font-size="14" text-anchor="middle">Gov Guard</text></g><g id="edge7" class="edge"><title>MCD_GOV_GUARD-&gt;zero</title><path fill="none" stroke="#000" d="M1354.3383,-253.354C1285.9763,-315.2402 1083.7126,-517.406 1017.5847,-589.8141"/><polygon fill="#000" stroke="#000" points="1014.665 -587.825 1010.561 -597.592 1019.861 -592.516 1014.665 -587.825"/><text x="1160.688" y="-425.784" fill="#000" font-family="Times,serif" font-size="14" text-anchor="middle">authority</text></g><g id="edge15" class="edge"><title>MCD_GOV_GUARD-&gt;zero</title><path fill="none" stroke="#000" d="M1363.072,-253.3832C1307.6516,-315.6109 1104.2194,-519.4115 1026.6874,-590.873"/><polygon fill="#000" stroke="#000" points="1024.176 -588.427 1019.156 -597.756 1028.899 -593.594 1024.176 -588.427"/><text x="1212.371" y="-426.328" fill="#000" font-family="Times,serif" font-size="14" text-anchor="middle">owner</text></g><g id="edge8" class="edge"><title>MCD_GOV_GUARD2-&gt;zero</title><path fill="none" stroke="#000" d="M1526.6464,-193.0332C1439.4877,-262.5399 1126.2609,-512.3299 1026.929,-591.5446"/><polygon fill="#000" stroke="#000" points="1024.705 -588.842 1019.068 -597.813 1029.069 -594.315 1024.705 -588.842"/><text x="1251.514" y="-396.489" fill="#000" font-family="Times,serif" font-size="14" text-anchor="middle">authority</text></g><g id="edge16" class="edge"><title>MCD_GOV_GUARD2-&gt;deployer</title><path fill="none" stroke="#000" d="M1594.184,-174.9275C1664.576,-174.9275 1800.1059,-174.9275 1869.2183,-174.9275"/><polygon fill="#000" stroke="#000" points="1869.319 -178.428 1879.319 -174.928 1869.319 -171.428 1869.319 -178.428"/><text x="1714.21" y="-179.127" fill="#000" font-family="Times,serif" font-size="14" text-anchor="middle">owner</text></g><g id="node19" class="node"><title>MCD_IOU</title><polygon fill="none" stroke="#000" points="1249.599 -350.283 1195.599 -350.283 1195.599 -314.283 1249.599 -314.283 1249.599 -350.283"/><text x="1222.599" y="-328.082" fill="#000" font-family="Times,serif" font-size="14" text-anchor="middle">IOU</text></g><g id="edge17" class="edge"><title>MCD_IOU-&gt;zero</title><path fill="none" stroke="#000" d="M1208.1104,-350.4508C1169.263,-399.164 1062.6651,-532.8335 1017.3287,-589.6835"/><polygon fill="#000" stroke="#000" points="1014.347 -587.809 1010.848 -597.809 1019.82 -592.173 1014.347 -587.809"/><text x="1130.21" y="-474.267" fill="#000" font-family="Times,serif" font-size="14" text-anchor="middle">owner</text></g><g id="edge2" class="edge"><title>MCD_IOU-&gt;MCD_GOV_GUARD</title><path fill="none" stroke="#000" d="M1249.8669,-315.149C1274.8045,-299.4797 1311.92,-276.1585 1339.6385,-258.7418"/><polygon fill="#000" stroke="#000" points="1341.675 -261.596 1348.281 -253.312 1337.951 -255.668 1341.675 -261.596"/><text x="1269.479" y="-291.145" fill="#000" font-family="Times,serif" font-size="14" text-anchor="middle">authority</text></g><g id="edge67" class="edge"><title>MCD_IOU-&gt;MCD_ADM</title><path fill="none" stroke="#000" d="M1197.0215,-350.4823C1171.9687,-372.6623 1134.55,-410.0632 1112.1816,-435.2688"/><polygon fill="#000" stroke="#000" points="1109.393 -433.142 1105.483 -442.989 1114.68 -437.73 1109.393 -433.142"/><text x="1121.162" y="-397.076" fill="#000" font-family="Times,serif" font-size="14" text-anchor="middle">permit-mint</text></g><g id="edge68" class="edge"><title>MCD_IOU-&gt;MCD_ADM</title><path fill="none" stroke="#000" d="M1210.7441,-350.536C1191.7181,-373.0743 1154.1099,-411.2553 1126.5633,-436.4351"/><polygon fill="#000" stroke="#000" points="1124.174 -433.876 1119.084 -443.168 1128.858 -439.079 1124.174 -433.876"/><text x="1185.371" y="-380.885" fill="#000" font-family="Times,serif" font-size="14" text-anchor="middle">permit-burn</text></g><g id="edge6" class="edge"><title>MCD_ADM-&gt;zero</title><path fill="none" stroke="#000" d="M1082.239,-479.3425C1065.3034,-506.2953 1033.2642,-557.2853 1013.5029,-588.7352"/><polygon fill="#000" stroke="#000" points="1010.393 -587.106 1008.036 -597.436 1016.32 -590.831 1010.393 -587.106"/><text x="1030.38" y="-538.239" fill="#000" font-family="Times,serif" font-size="14" text-anchor="middle">owner</text></g><g id="edge12" class="edge"><title>MCD_ADM-&gt;MCD_ADM</title><path fill="none" stroke="#000" d="M1126.1057,-468.0592C1136.1635,-467.9229 1144.0617,-465.6751 1144.0617,-461.3157 1144.0617,-458.5911 1140.9765,-456.6914 1136.207,-455.6164"/><polygon fill="#000" stroke="#000" points="1136.413 -452.119 1126.106 -454.572 1135.693 -459.082 1136.413 -452.119"/><text x="1169.335" y="-457.116" fill="#000" font-family="Times,serif" font-size="14" text-anchor="middle">authority</text></g><g id="node21" class="node"><title>PROXY_DEPLOYER</title><polygon fill="none" stroke="#000" points="2136.787 -253.197 2031.727 -253.197 2031.727 -217.197 2136.787 -217.197 2136.787 -253.197"/><text x="2084.257" y="-230.997" fill="#000" font-family="Times,serif" font-size="14" text-anchor="middle">Proxy Deployer</text></g><g id="edge13" class="edge"><title>PROXY_DEPLOYER-&gt;zero</title><path fill="none" stroke="#000" d="M2032.523,-253.2995C1843.7331,-319.3599 1194.5187,-546.5299 1033.0594,-603.0269"/><polygon fill="#000" stroke="#000" points="1031.851 -599.742 1023.568 -606.348 1034.163 -606.349 1031.851 -599.742"/><text x="1507.518" y="-432.363" fill="#000" font-family="Times,serif" font-size="14" text-anchor="middle">authority</text></g><g id="edge1" class="edge"><title>PROXY_DEPLOYER-&gt;deployer</title><path fill="none" stroke="#000" d="M2032.5792,-217.1141C2007.6083,-208.3765 1978.012,-198.0203 1954.3926,-189.7555"/><polygon fill="#000" stroke="#000" points="1955.262 -186.352 1944.667 -186.352 1952.95 -192.959 1955.262 -186.352"/><text x="1975.995" y="-207.635" fill="#000" font-family="Times,serif" font-size="14" text-anchor="middle">owner</text></g><g id="edge39" class="edge"><title>MCD_END-&gt;MCD_PAUSE_PROXY</title><path fill="none" stroke="#000" d="M2518.5606,-982.4154C2353.4661,-1061.9207 1480.9962,-1482.08 1269.0326,-1584.1563"/><polygon fill="#000" stroke="#000" points="1267.513 -1581.003 1260.022 -1588.496 1270.55 -1587.31 1267.513 -1581.003"/><text x="1882.914" y="-1287.486" fill="#000" font-family="Times,serif" font-size="14" text-anchor="middle">rely</text></g><g id="node23" class="node"><title>MCD_ESM</title><polygon fill="none" stroke="#000" points="2671.587 -987.4 2617.587 -987.4 2617.587 -951.4 2671.587 -951.4 2671.587 -987.4"/><text x="2644.587" y="-965.2" fill="#000" font-family="Times,serif" font-size="14" text-anchor="middle">ESM</text></g><g id="edge30" class="edge"><title>MCD_END-&gt;MCD_ESM</title><path fill="none" stroke="#000" d="M2572.6395,-969.4C2583.3345,-969.4 2595.8033,-969.4 2607.3277,-969.4"/><polygon fill="#000" stroke="#000" points="2607.568 -972.9 2617.568 -969.4 2607.568 -965.9 2607.568 -972.9"/><text x="2600.867" y="-973.6" fill="#000" font-family="Times,serif" font-size="14" text-anchor="middle">rely</text></g><g id="node25" class="node"><title>Flipper_ETH-A</title><polygon fill="none" stroke="#000" points="1430.029 -1721.603 1324.191 -1721.603 1324.191 -1685.603 1430.029 -1685.603 1430.029 -1721.603"/><text x="1377.11" y="-1699.403" fill="#000" font-family="Times,serif" font-size="14" text-anchor="middle">Flipper_ETH-A</text></g><g id="edge42" class="edge"><title>Flipper_ETH-A-&gt;MCD_PAUSE_PROXY</title><path fill="none" stroke="#000" d="M1348.4097,-1685.5695C1323.4461,-1669.8838 1287.1076,-1647.0509 1259.8957,-1629.9525"/><polygon fill="#000" stroke="#000" points="1261.737 -1626.976 1251.407 -1624.619 1258.013 -1632.903 1261.737 -1626.976"/><text x="1293.27" y="-1661.961" fill="#000" font-family="Times,serif" font-size="14" text-anchor="middle">rely</text></g><g id="edge41" class="edge"><title>Flipper_ETH-A-&gt;MCD_END</title><path fill="none" stroke="#000" d="M1405.9937,-1685.4541C1565.1511,-1585.4489 2334.3483,-1102.1302 2509.8749,-991.8396"/><polygon fill="#000" stroke="#000" points="2511.881 -994.713 2518.486 -986.429 2508.156 -988.786 2511.881 -994.713"/><text x="1947.051" y="-1342.847" fill="#000" font-family="Times,serif" font-size="14" text-anchor="middle">rely</text></g><g id="node27" class="node"><title>Flipper_ETH-B</title><polygon fill="none" stroke="#000" points="1601.499 -1781.872 1497.202 -1781.872 1497.202 -1745.872 1601.499 -1745.872 1601.499 -1781.872"/><text x="1549.35" y="-1759.672" fill="#000" font-family="Times,serif" font-size="14" text-anchor="middle">Flipper_ETH-B</text></g><g id="edge45" class="edge"><title>Flipper_ETH-B-&gt;MCD_PAUSE_PROXY</title><path fill="none" stroke="#000" d="M1511.8677,-1745.8219C1451.9528,-1716.9684 1334.7209,-1660.5125 1269.395,-1629.0532"/><polygon fill="#000" stroke="#000" points="1270.675 -1625.785 1260.146 -1624.599 1267.638 -1632.092 1270.675 -1625.785"/><text x="1396.073" y="-1674.838" fill="#000" font-family="Times,serif" font-size="14" text-anchor="middle">rely</text></g><g id="edge44" class="edge"><title>Flipper_ETH-B-&gt;MCD_END</title><path fill="none" stroke="#000" d="M1572.0299,-1745.7861C1703.2137,-1641.1705 2364.1947,-1114.0558 2514.9471,-993.8348"/><polygon fill="#000" stroke="#000" points="2517.307 -996.429 2522.943 -987.458 2512.943 -990.957 2517.307 -996.429"/><text x="2032.606" y="-1374.01" fill="#000" font-family="Times,serif" font-size="14" text-anchor="middle">rely</text></g><g id="node29" class="node"><title>Flipper_ETH-C</title><polygon fill="none" stroke="#000" points="1782.832 -1802.304 1678.535 -1802.304 1678.535 -1766.304 1782.832 -1766.304 1782.832 -1802.304"/><text x="1730.683" y="-1780.104" fill="#000" font-family="Times,serif" font-size="14" text-anchor="middle">Flipper_ETH-C</text></g><g id="edge48" class="edge"><title>Flipper_ETH-C-&gt;MCD_PAUSE_PROXY</title><path fill="none" stroke="#000" d="M1679.1695,-1766.2784C1584.4376,-1733.1302 1383.0848,-1662.6739 1282.4534,-1627.4614"/><polygon fill="#000" stroke="#000" points="1283.338 -1624.063 1272.743 -1624.064 1281.026 -1630.67 1283.338 -1624.063"/><text x="1469.929" y="-1701.07" fill="#000" font-family="Times,serif" font-size="14" text-anchor="middle">rely</text></g><g id="edge47" class="edge"><title>Flipper_ETH-C-&gt;MCD_END</title><path fill="none" stroke="#000" d="M1748.8464,-1766.1409C1855.1172,-1659.87 2395.9262,-1119.0611 2520.1344,-994.8528"/><polygon fill="#000" stroke="#000" points="2522.784 -997.153 2527.381 -987.607 2517.834 -992.203 2522.784 -997.153"/><text x="2123.608" y="-1384.697" fill="#000" font-family="Times,serif" font-size="14" text-anchor="middle">rely</text></g><g id="node31" class="node"><title>Flipper_REP-A</title><polygon fill="none" stroke="#000" points="1963.895 -1781.872 1860.139 -1781.872 1860.139 -1745.872 1963.895 -1745.872 1963.895 -1781.872"/><text x="1912.017" y="-1759.672" fill="#000" font-family="Times,serif" font-size="14" text-anchor="middle">Flipper_REP-A</text></g><g id="edge51" class="edge"><title>Flipper_REP-A-&gt;MCD_PAUSE_PROXY</title><path fill="none" stroke="#000" d="M1859.9156,-1751.9808C1734.4154,-1723.3362 1415.9099,-1650.6394 1282.6569,-1620.2253"/><polygon fill="#000" stroke="#000" points="1283.154 -1616.749 1272.626 -1617.936 1281.597 -1623.573 1283.154 -1616.749"/><text x="1560.403" y="-1690.303" fill="#000" font-family="Times,serif" font-size="14" text-anchor="middle">rely</text></g><g id="edge50" class="edge"><title>Flipper_REP-A-&gt;MCD_END</title><path fill="none" stroke="#000" d="M1926.44,-1745.7861C2009.5361,-1641.5869 2426.8873,-1118.245 2524.9411,-995.2895"/><polygon fill="#000" stroke="#000" points="2527.688 -997.459 2531.186 -987.458 2522.215 -993.094 2527.688 -997.459"/><text x="2214.808" y="-1374.738" fill="#000" font-family="Times,serif" font-size="14" text-anchor="middle">rely</text></g><g id="node33" class="node"><title>Flipper_ZRX-A</title><polygon fill="none" stroke="#000" points="2137.459 -1721.603 2031.055 -1721.603 2031.055 -1685.603 2137.459 -1685.603 2137.459 -1721.603"/><text x="2084.257" y="-1699.403" fill="#000" font-family="Times,serif" font-size="14" text-anchor="middle">Flipper_ZRX-A</text></g><g id="edge54" class="edge"><title>Flipper_ZRX-A-&gt;MCD_PAUSE_PROXY</title><path fill="none" stroke="#000" d="M2031.0067,-1697.6031C1878.9563,-1680.4712 1443.4568,-1631.4022 1282.95,-1613.3174"/><polygon fill="#000" stroke="#000" points="1283.11 -1609.813 1272.781 -1612.172 1282.326 -1616.769 1283.11 -1609.813"/><text x="1646.095" y="-1659.66" fill="#000" font-family="Times,serif" font-size="14" text-anchor="middle">rely</text></g><g id="edge53" class="edge"><title>Flipper_ZRX-A-&gt;MCD_END</title><path fill="none" stroke="#000" d="M2095.6607,-1685.4541C2157.7308,-1586.67 2454.8064,-1113.8769 2528.8448,-996.0454"/><polygon fill="#000" stroke="#000" points="2531.812 -997.901 2534.169 -987.572 2525.885 -994.177 2531.812 -997.901"/><text x="2301.37" y="-1344.95" fill="#000" font-family="Times,serif" font-size="14" text-anchor="middle">rely</text></g><g id="node35" class="node"><title>Flipper_OMG-A</title><polygon fill="none" stroke="#000" points="2294.132 -1624.517 2183.404 -1624.517 2183.404 -1588.517 2294.132 -1588.517 2294.132 -1624.517"/><text x="2238.768" y="-1602.318" fill="#000" font-family="Times,serif" font-size="14" text-anchor="middle">Flipper_OMG-A</text></g><g id="edge57" class="edge"><title>Flipper_OMG-A-&gt;MCD_PAUSE_PROXY</title><path fill="none" stroke="#000" d="M2183.05,-1606.5175C2007.2355,-1606.5175 1465.0862,-1606.5175 1282.9728,-1606.5175"/><polygon fill="#000" stroke="#000" points="1282.779 -1603.018 1272.779 -1606.517 1282.779 -1610.018 1282.779 -1603.018"/><text x="1722.129" y="-1610.717" fill="#000" font-family="Times,serif" font-size="14" text-anchor="middle">rely</text></g><g id="edge56" class="edge"><title>Flipper_OMG-A-&gt;MCD_END</title><path fill="none" stroke="#000" d="M2247.4559,-1588.4761C2290.4376,-1499.2238 2480.3397,-1104.8881 2532.3676,-996.851"/><polygon fill="#000" stroke="#000" points="2535.643 -998.116 2536.829 -987.588 2529.336 -995.079 2535.643 -998.116"/><text x="2379.029" y="-1296.863" fill="#000" font-family="Times,serif" font-size="14" text-anchor="middle">rely</text></g><g id="node37" class="node"><title>Flipper_BAT-A</title><polygon fill="none" stroke="#000" points="2421.003 -1495.484 2314.599 -1495.484 2314.599 -1459.484 2421.003 -1459.484 2421.003 -1495.484"/><text x="2367.801" y="-1473.284" fill="#000" font-family="Times,serif" font-size="14" text-anchor="middle">Flipper_BAT-A</text></g><g id="edge60" class="edge"><title>Flipper_BAT-A-&gt;MCD_PAUSE_PROXY</title><path fill="none" stroke="#000" d="M2314.4825,-1483.4918C2124.7108,-1504.8739 1482.7857,-1577.2015 1282.6792,-1599.7481"/><polygon fill="#000" stroke="#000" points="1282.192 -1596.281 1272.647 -1600.879 1282.976 -1603.237 1282.192 -1596.281"/><text x="1787.698" y="-1545.82" fill="#000" font-family="Times,serif" font-size="14" text-anchor="middle">rely</text></g><g id="edge59" class="edge"><title>Flipper_BAT-A-&gt;MCD_END</title><path fill="none" stroke="#000" d="M2374.1284,-1459.4013C2400.7496,-1383.3224 2503.7601,-1088.9352 2535.9314,-996.995"/><polygon fill="#000" stroke="#000" points="2539.244 -998.126 2539.243 -987.531 2532.637 -995.814 2539.244 -998.126"/><text x="2444.147" y="-1232.398" fill="#000" font-family="Times,serif" font-size="14" text-anchor="middle">rely</text></g><g id="node39" class="node"><title>Flipper_DGD-A</title><polygon fill="none" stroke="#000" points="2518.914 -1340.974 2410.859 -1340.974 2410.859 -1304.974 2518.914 -1304.974 2518.914 -1340.974"/><text x="2464.886" y="-1318.774" fill="#000" font-family="Times,serif" font-size="14" text-anchor="middle">Flipper_DGD-A</text></g><g id="edge63" class="edge"><title>Flipper_DGD-A-&gt;MCD_PAUSE_PROXY</title><path fill="none" stroke="#000" d="M2410.7081,-1335.3394C2208.0791,-1381.5881 1495.6211,-1544.202 1282.9647,-1592.7394"/><polygon fill="#000" stroke="#000" points="1281.894 -1589.394 1272.923 -1595.031 1283.451 -1596.218 1281.894 -1589.394"/><text x="1835.954" y="-1468.239" fill="#000" font-family="Times,serif" font-size="14" text-anchor="middle">rely</text></g><g id="edge62" class="edge"><title>Flipper_DGD-A-&gt;MCD_END</title><path fill="none" stroke="#000" d="M2468.9993,-1304.9537C2482.1364,-1247.3964 2523.1585,-1067.667 2539.1312,-997.6859"/><polygon fill="#000" stroke="#000" points="2542.573 -998.336 2541.386 -987.808 2535.748 -996.778 2542.573 -998.336"/><text x="2514.948" y="-1155.52" fill="#000" font-family="Times,serif" font-size="14" text-anchor="middle">rely</text></g><g id="node41" class="node"><title>Flipper_GNT-A</title><polygon fill="none" stroke="#000" points="2578.628 -1168.733 2471.684 -1168.733 2471.684 -1132.733 2578.628 -1132.733 2578.628 -1168.733"/><text x="2525.156" y="-1146.533" fill="#000" font-family="Times,serif" font-size="14" text-anchor="middle">Flipper_GNT-A</text></g><g id="edge66" class="edge"><title>Flipper_GNT-A-&gt;MCD_PAUSE_PROXY</title><path fill="none" stroke="#000" d="M2473.693,-1168.7408C2267.6469,-1240.8395 1502.7374,-1508.4929 1282.3669,-1585.6038"/><polygon fill="#000" stroke="#000" points="1281.186 -1582.309 1272.903 -1588.915 1283.498 -1588.916 1281.186 -1582.309"/><text x="1867.147" y="-1381.372" fill="#000" font-family="Times,serif" font-size="14" text-anchor="middle">rely</text></g><g id="edge65" class="edge"><title>Flipper_GNT-A-&gt;MCD_END</title><path fill="none" stroke="#000" d="M2527.1897,-1132.6833C2530.7449,-1101.1297 2538.1156,-1035.7128 2542.3695,-997.9586"/><polygon fill="#000" stroke="#000" points="2545.89 -997.975 2543.531 -987.646 2538.934 -997.191 2545.89 -997.975"/><text x="2523.897" y="-1069.521" fill="#000" font-family="Times,serif" font-size="14" text-anchor="middle">rely</text></g><g id="node43" class="node"><title>isolated</title><polygon fill="none" stroke="#000" points="2885.649 -192.7 2311.718 -192.7 2311.718 -.1 2885.649 -.1 2885.649 -192.7"/><text x="2598.683" y="-176.2" fill="#000" font-family="Times,serif" font-size="14" text-anchor="middle">Isolated Contracts:</text><text x="2598.683" y="-159.4" fill="#000" font-family="Times,serif" font-size="14" text-anchor="middle">MULTICALL, FAUCET, VOTE_PROXY_FACTORY, PROXY_ACTIONS, CDP_MANAGER,</text><text x="2598.683" y="-142.6" fill="#000" font-family="Times,serif" font-size="14" text-anchor="middle">GET_CDPS, PROXY_FACTORY, PROXY_REGISTRY, PROXY_PAUSE_ACTIONS,</text><text x="2598.683" y="-125.8" fill="#000" font-family="Times,serif" font-size="14" text-anchor="middle">MCD_GOV_ACTIONS, GOV_POLL_GEN, VOTE_YES, VOTE_NO,</text><text x="2598.683" y="-109" fill="#000" font-family="Times,serif" font-size="14" text-anchor="middle">ETH, PIP_ETH, REP, PIP_REP,</text><text x="2598.683" y="-92.2" fill="#000" font-family="Times,serif" font-size="14" text-anchor="middle">ZRX, PIP_ZRX, OMG, PIP_OMG,</text><text x="2598.683" y="-75.4" fill="#000" font-family="Times,serif" font-size="14" text-anchor="middle">BAT, PIP_BAT, DGD, PIP_DGD,</text><text x="2598.683" y="-58.6" fill="#000" font-family="Times,serif" font-size="14" text-anchor="middle">GNT, PIP_GNT, vatFab, jugFab,</text><text x="2598.683" y="-41.8" fill="#000" font-family="Times,serif" font-size="14" text-anchor="middle">vowFab, catFab, daiFab, daiJoinFab,</text><text x="2598.683" y="-25" fill="#000" font-family="Times,serif" font-size="14" text-anchor="middle">flapFab, flopFab, flipFab, spotFab,</text><text x="2598.683" y="-8.2" fill="#000" font-family="Times,serif" font-size="14" text-anchor="middle">potFab, pauseFab, 0x7043cc67743dad8620d41fdd0ad5e416a5512645</text></g></g></svg>