<svg xmlns="http://www.w3.org/2000/svg" xmlns:xlink="http://www.w3.org/1999/xlink" width="3016" height="2132" viewBox="0 0 2262.31 1599.11"><g id="graph0" class="graph" transform="scale(1 1) rotate(0) translate(4 1595.1121)"><title>%0</title><polygon fill="#fff" stroke="transparent" points="-4 4 -4 -1595.112 2258.309 -1595.112 2258.309 4 -4 4"/><g id="node1" class="node"><title>zero</title><polygon fill="none" stroke="#000" points="1718.697 -830.329 1664.697 -830.329 1664.697 -794.329 1718.697 -794.329 1718.697 -830.329"/><text x="1691.697" y="-808.129" fill="#000" font-family="Times,serif" font-size="14" text-anchor="middle">zero</text></g><g id="node2" class="node"><title>deployer</title><polygon fill="none" stroke="#000" points="1229.565 -113.759 1164.604 -113.759 1164.604 -77.759 1229.565 -77.759 1229.565 -113.759"/><text x="1197.085" y="-91.559" fill="#000" font-family="Times,serif" font-size="14" text-anchor="middle">deployer</text></g><g id="node3" class="node"><title>MCD_DEPLOY</title><polygon fill="none" stroke="#000" points="1842.008 -830.329 1763.593 -830.329 1763.593 -794.329 1842.008 -794.329 1842.008 -830.329"/><text x="1802.801" y="-808.129" fill="#000" font-family="Times,serif" font-size="14" text-anchor="middle">DssDeploy</text></g><g id="edge9" class="edge"><title>MCD_DEPLOY-&gt;zero</title><path fill="none" stroke="#000" d="M1763.6296,-812.3286C1752.4562,-812.3286 1740.3119,-812.3286 1729.2382,-812.3286"/><polygon fill="#000" stroke="#000" points="1729.016 -808.829 1719.016 -812.329 1729.016 -815.829 1729.016 -808.829"/><text x="1746.434" y="-799.729" fill="#000" font-family="Times,serif" font-size="14" text-anchor="middle">owner</text></g><g id="node39" class="node"><title>0x7b9212b2655c5EfE906A59a1cC910C3313DEB49c</title><polygon fill="none" stroke="#000" points="2236.504 -830.329 1913.704 -830.329 1913.704 -794.329 2236.504 -794.329 2236.504 -830.329"/><text x="2075.104" y="-808.129" fill="#000" font-family="Times,serif" font-size="14" text-anchor="middle">0x7b9212b2655c5EfE906A59a1cC910C3313DEB49c</text></g><g id="edge1" class="edge"><title>MCD_DEPLOY-&gt;0x7b9212b2655c5EfE906A59a1cC910C3313DEB49c</title><path fill="none" stroke="#000" d="M1842.1051,-812.3286C1859.297,-812.3286 1880.7603,-812.3286 1903.6539,-812.3286"/><polygon fill="#000" stroke="#000" points="1903.902 -815.829 1913.902 -812.329 1903.902 -808.829 1903.902 -815.829"/><text x="1885.516" y="-799.729" fill="#000" font-family="Times,serif" font-size="14" text-anchor="middle">authority</text></g><g id="node4" class="node"><title>MCD_VAT</title><polygon fill="none" stroke="#000" points="273.738 -474.178 219.738 -474.178 219.738 -438.178 273.738 -438.178 273.738 -474.178"/><text x="246.738" y="-451.978" fill="#000" font-family="Times,serif" font-size="14" text-anchor="middle">Vat</text></g><g id="node7" class="node"><title>MCD_JUG</title><polygon fill="none" stroke="#000" points="208.224 -646.924 154.224 -646.924 154.224 -610.924 208.224 -610.924 208.224 -646.924"/><text x="181.224" y="-624.724" fill="#000" font-family="Times,serif" font-size="14" text-anchor="middle">Jug</text></g><g id="edge19" class="edge"><title>MCD_VAT-&gt;MCD_JUG</title><path fill="none" stroke="#000" d="M239.8504,-474.3385C228.3984,-504.535 205.3644,-565.2705 191.8279,-600.9633"/><polygon fill="#000" stroke="#000" points="188.391 -600.157 188.117 -610.748 194.936 -602.639 188.391 -600.157"/><text x="204.956" y="-541.851" fill="#000" font-family="Times,serif" font-size="14" text-anchor="middle">rely</text></g><g id="node8" class="node"><title>MCD_POT</title><polygon fill="none" stroke="#000" points="185.954 -830.329 131.954 -830.329 131.954 -794.329 185.954 -794.329 185.954 -830.329"/><text x="158.954" y="-808.129" fill="#000" font-family="Times,serif" font-size="14" text-anchor="middle">Pot</text></g><g id="edge20" class="edge"><title>MCD_VAT-&gt;MCD_POT</title><path fill="none" stroke="#000" d="M242.2638,-474.3294C227.9406,-532.4409 183.1439,-714.1881 165.8564,-784.3266"/><polygon fill="#000" stroke="#000" points="162.414 -783.667 163.419 -794.214 169.211 -785.342 162.414 -783.667"/><text x="214.943" y="-633.528" fill="#000" font-family="Times,serif" font-size="14" text-anchor="middle">rely</text></g><g id="node11" class="node"><title>MCD_VOW</title><polygon fill="none" stroke="#000" points="680.567 -113.759 626.567 -113.759 626.567 -77.759 680.567 -77.759 680.567 -113.759"/><text x="653.567" y="-91.559" fill="#000" font-family="Times,serif" font-size="14" text-anchor="middle">Vow</text></g><g id="edge18" class="edge"><title>MCD_VAT-&gt;MCD_VOW</title><path fill="none" stroke="#000" d="M267.1912,-438.058C334.1963,-378.6966 547.2394,-189.9569 624.8942,-121.1608"/><polygon fill="#000" stroke="#000" points="627.666 -123.381 632.83 -114.13 623.024 -118.142 627.666 -123.381"/><text x="435.16" y="-283.809" fill="#000" font-family="Times,serif" font-size="14" text-anchor="middle">rely</text></g><g id="node12" class="node"><title>MCD_CAT</title><polygon fill="none" stroke="#000" points="378.689 -322.131 324.689 -322.131 324.689 -286.131 378.689 -286.131 378.689 -322.131"/><text x="351.689" y="-299.931" fill="#000" font-family="Times,serif" font-size="14" text-anchor="middle">Cat</text></g><g id="edge23" class="edge"><title>MCD_VAT-&gt;MCD_CAT</title><path fill="none" stroke="#000" d="M259.1891,-438.1393C277.5731,-411.5054 312.0928,-361.4949 333.3684,-330.672"/><polygon fill="#000" stroke="#000" points="336.453 -332.364 339.253 -322.146 330.692 -328.388 336.453 -332.364"/><text x="285.396" y="-388.606" fill="#000" font-family="Times,serif" font-size="14" text-anchor="middle">rely</text></g><g id="node13" class="node"><title>MCD_SPOT</title><polygon fill="none" stroke="#000" points="209.665 -1013.733 152.783 -1013.733 152.783 -977.733 209.665 -977.733 209.665 -1013.733"/><text x="181.224" y="-991.533" fill="#000" font-family="Times,serif" font-size="14" text-anchor="middle">Spotter</text></g><g id="edge16" class="edge"><title>MCD_VAT-&gt;MCD_SPOT</title><path fill="none" stroke="#000" d="M244.5204,-474.4393C234.8677,-553.9363 196.4667,-870.1966 184.6814,-967.2575"/><polygon fill="#000" stroke="#000" points="181.172 -967.128 183.441 -977.477 188.12 -967.971 181.172 -967.128"/><text x="203.718" y="-725.048" fill="#000" font-family="Times,serif" font-size="14" text-anchor="middle">rely</text></g><g id="node16" class="node"><title>MCD_PAUSE_PROXY</title><polygon fill="none" stroke="#000" points="296.726 -1186.479 196.749 -1186.479 196.749 -1150.479 296.726 -1150.479 296.726 -1186.479"/><text x="246.738" y="-1164.279" fill="#000" font-family="Times,serif" font-size="14" text-anchor="middle">DSPauseProxy</text></g><g id="edge29" class="edge"><title>MCD_VAT-&gt;MCD_PAUSE_PROXY</title><path fill="none" stroke="#000" d="M246.7377,-474.5015C246.7377,-571.2149 246.7377,-1022.3379 246.7377,-1140.2308"/><polygon fill="#000" stroke="#000" points="243.238 -1140.277 246.738 -1150.277 250.238 -1140.277 243.238 -1140.277"/><text x="235.855" y="-811.566" fill="#000" font-family="Times,serif" font-size="14" text-anchor="middle">rely</text></g><g id="node21" class="node"><title>MCD_END</title><polygon fill="none" stroke="#000" points="1525.963 -1338.527 1471.963 -1338.527 1471.963 -1302.527 1525.963 -1302.527 1525.963 -1338.527"/><text x="1498.963" y="-1316.327" fill="#000" font-family="Times,serif" font-size="14" text-anchor="middle">End</text></g><g id="edge25" class="edge"><title>MCD_VAT-&gt;MCD_END</title><path fill="none" stroke="#000" d="M272.8922,-474.2313C433.1451,-584.8459 1281.4926,-1170.418 1464.251,-1296.567"/><polygon fill="#000" stroke="#000" points="1462.471 -1299.591 1472.689 -1302.391 1466.447 -1293.83 1462.471 -1299.591"/><text x="857.689" y="-889.599" fill="#000" font-family="Times,serif" font-size="14" text-anchor="middle">rely</text></g><g id="node23" class="node"><title>ETHJoin_A</title><polygon fill="none" stroke="#000" points="93.357 -965.968 10.048 -965.968 10.048 -929.968 93.357 -929.968 93.357 -965.968"/><text x="51.703" y="-943.768" fill="#000" font-family="Times,serif" font-size="14" text-anchor="middle">ETHJoin_A</text></g><g id="edge39" class="edge"><title>MCD_VAT-&gt;ETHJoin_A</title><path fill="none" stroke="#000" d="M239.565,-474.2645C210.1175,-548.5177 98.3834,-830.2607 62.7164,-920.1968"/><polygon fill="#000" stroke="#000" points="59.374 -919.132 58.941 -929.717 65.881 -921.712 59.374 -919.132"/><text x="140.258" y="-701.431" fill="#000" font-family="Times,serif" font-size="14" text-anchor="middle">rely</text></g><g id="node25" class="node"><title>ETHJoin_B</title><polygon fill="none" stroke="#000" points="82.826 -811.239 .058 -811.239 .058 -775.239 82.826 -775.239 82.826 -811.239"/><text x="41.442" y="-789.039" fill="#000" font-family="Times,serif" font-size="14" text-anchor="middle">ETHJoin_B</text></g><g id="edge42" class="edge"><title>MCD_VAT-&gt;ETHJoin_B</title><path fill="none" stroke="#000" d="M235.7001,-474.3001C201.6553,-530.1958 98.1482,-700.1368 57.795,-766.3898"/><polygon fill="#000" stroke="#000" points="54.747 -764.666 52.534 -775.028 60.725 -768.308 54.747 -764.666"/><text x="135.865" y="-624.545" fill="#000" font-family="Times,serif" font-size="14" text-anchor="middle">rely</text></g><g id="node27" class="node"><title>ETHJoin_C</title><polygon fill="none" stroke="#000" points="99.682 -657.475 16.915 -657.475 16.915 -621.475 99.682 -621.475 99.682 -657.475"/><text x="58.298" y="-635.275" fill="#000" font-family="Times,serif" font-size="14" text-anchor="middle">ETHJoin_C</text></g><g id="edge45" class="edge"><title>MCD_VAT-&gt;ETHJoin_C</title><path fill="none" stroke="#000" d="M227.9805,-474.4235C194.1179,-507.3618 122.7255,-576.8057 84.2211,-614.2592"/><polygon fill="#000" stroke="#000" points="81.707 -611.822 76.98 -621.303 86.588 -616.839 81.707 -611.822"/><text x="145.218" y="-548.541" fill="#000" font-family="Times,serif" font-size="14" text-anchor="middle">rely</text></g><g id="node29" class="node"><title>COL1Join_A</title><polygon fill="none" stroke="#000" points="149.2 -505.021 57.322 -505.021 57.322 -469.021 149.2 -469.021 149.2 -505.021"/><text x="103.261" y="-482.821" fill="#000" font-family="Times,serif" font-size="14" text-anchor="middle">COL1Join_A</text></g><g id="edge48" class="edge"><title>MCD_VAT-&gt;COL1Join_A</title><path fill="none" stroke="#000" d="M219.4131,-462.0521C202.3644,-465.717 179.7982,-470.568 159.0934,-475.0189"/><polygon fill="#000" stroke="#000" points="158.152 -471.641 149.111 -477.165 159.623 -478.485 158.152 -471.641"/><text x="178.37" y="-472.736" fill="#000" font-family="Times,serif" font-size="14" text-anchor="middle">rely</text></g><g id="node31" class="node"><title>COL2Join_A</title><polygon fill="none" stroke="#000" points="223.003 -359.457 131.126 -359.457 131.126 -323.457 223.003 -323.457 223.003 -359.457"/><text x="177.064" y="-337.257" fill="#000" font-family="Times,serif" font-size="14" text-anchor="middle">COL2Join_A</text></g><g id="edge51" class="edge"><title>MCD_VAT-&gt;COL2Join_A</title><path fill="none" stroke="#000" d="M235.6977,-438.0003C224.2824,-419.2041 206.3369,-389.6557 193.3041,-368.1964"/><polygon fill="#000" stroke="#000" points="196.235 -366.28 188.053 -359.55 190.252 -369.914 196.235 -366.28"/><text x="203.618" y="-407.298" fill="#000" font-family="Times,serif" font-size="14" text-anchor="middle">rely</text></g><g id="node33" class="node"><title>COL3Join_A</title><polygon fill="none" stroke="#000" points="322.306 -229.939 230.428 -229.939 230.428 -193.939 322.306 -193.939 322.306 -229.939"/><text x="276.367" y="-207.739" fill="#000" font-family="Times,serif" font-size="14" text-anchor="middle">COL3Join_A</text></g><g id="edge54" class="edge"><title>MCD_VAT-&gt;COL3Join_A</title><path fill="none" stroke="#000" d="M248.9647,-437.8206C254.0928,-395.5484 266.7652,-291.0881 272.9123,-240.4161"/><polygon fill="#000" stroke="#000" points="276.425 -240.525 274.154 -230.177 269.476 -239.682 276.425 -240.525"/><text x="250.056" y="-343.318" fill="#000" font-family="Times,serif" font-size="14" text-anchor="middle">rely</text></g><g id="node35" class="node"><title>COL4Join_A</title><polygon fill="none" stroke="#000" points="443.723 -120.881 351.846 -120.881 351.846 -84.881 443.723 -84.881 443.723 -120.881"/><text x="397.785" y="-98.681" fill="#000" font-family="Times,serif" font-size="14" text-anchor="middle">COL4Join_A</text></g><g id="edge57" class="edge"><title>MCD_VAT-&gt;COL4Join_A</title><path fill="none" stroke="#000" d="M254.4358,-438.1724C279.0748,-380.5421 356.1205,-200.3333 385.8845,-130.7157"/><polygon fill="#000" stroke="#000" points="389.208 -131.845 389.921 -121.274 382.772 -129.093 389.208 -131.845"/><text x="309.277" y="-288.644" fill="#000" font-family="Times,serif" font-size="14" text-anchor="middle">rely</text></g><g id="node37" class="node"><title>COL5Join_A</title><polygon fill="none" stroke="#000" points="583.119 -36 491.241 -36 491.241 0 583.119 0 583.119 -36"/><text x="537.18" y="-13.8" fill="#000" font-family="Times,serif" font-size="14" text-anchor="middle">COL5Join_A</text></g><g id="edge60" class="edge"><title>MCD_VAT-&gt;COL5Join_A</title><path fill="none" stroke="#000" d="M258.8478,-437.9081C304.3333,-369.286 465.1241,-126.7076 519.2483,-45.0527"/><polygon fill="#000" stroke="#000" points="522.41 -46.617 525.018 -36.348 516.576 -42.75 522.41 -46.617"/><text x="378.165" y="-245.68" fill="#000" font-family="Times,serif" font-size="14" text-anchor="middle">rely</text></g><g id="node5" class="node"><title>MCD_DAI</title><polygon fill="none" stroke="#000" points="1254.552 -636.329 1200.552 -636.329 1200.552 -600.329 1254.552 -600.329 1254.552 -636.329"/><text x="1227.552" y="-614.129" fill="#000" font-family="Times,serif" font-size="14" text-anchor="middle">Dai</text></g><g id="node6" class="node"><title>MCD_JOIN_DAI</title><polygon fill="none" stroke="#000" points="1385.874 -636.329 1326.777 -636.329 1326.777 -600.329 1385.874 -600.329 1385.874 -636.329"/><text x="1356.326" y="-614.129" fill="#000" font-family="Times,serif" font-size="14" text-anchor="middle">DaiJoin</text></g><g id="edge17" class="edge"><title>MCD_DAI-&gt;MCD_JOIN_DAI</title><path fill="none" stroke="#000" d="M1254.8617,-618.3286C1272.7167,-618.3286 1296.3422,-618.3286 1316.3031,-618.3286"/><polygon fill="#000" stroke="#000" points="1316.357 -621.829 1326.357 -618.329 1316.357 -614.829 1316.357 -621.829"/><text x="1274.699" y="-622.529" fill="#000" font-family="Times,serif" font-size="14" text-anchor="middle">rely</text></g><g id="edge32" class="edge"><title>MCD_JUG-&gt;MCD_PAUSE_PROXY</title><path fill="none" stroke="#000" d="M183.4411,-647.1851C193.0938,-726.6821 231.4948,-1042.9424 243.2801,-1140.0033"/><polygon fill="#000" stroke="#000" points="239.841 -1140.717 244.521 -1150.223 246.79 -1139.873 239.841 -1140.717"/><text x="202.478" y="-897.794" fill="#000" font-family="Times,serif" font-size="14" text-anchor="middle">rely</text></g><g id="edge33" class="edge"><title>MCD_POT-&gt;MCD_PAUSE_PROXY</title><path fill="none" stroke="#000" d="M163.4283,-830.4798C177.7516,-888.5914 222.5482,-1070.3386 239.8358,-1140.477"/><polygon fill="#000" stroke="#000" points="236.481 -1141.493 242.273 -1150.364 243.278 -1139.817 236.481 -1141.493"/><text x="212.515" y="-972.878" fill="#000" font-family="Times,serif" font-size="14" text-anchor="middle">rely</text></g><g id="node9" class="node"><title>MCD_FLAP</title><polygon fill="none" stroke="#000" points="519.241 -199.618 460.714 -199.618 460.714 -163.618 519.241 -163.618 519.241 -199.618"/><text x="489.977" y="-177.417" fill="#000" font-family="Times,serif" font-size="14" text-anchor="middle">Flapper</text></g><g id="edge21" class="edge"><title>MCD_FLAP-&gt;MCD_VOW</title><path fill="none" stroke="#000" d="M519.602,-166.0692C547.0193,-151.6795 587.8583,-130.2456 617.2335,-114.8283"/><polygon fill="#000" stroke="#000" points="619.109 -117.797 626.337 -110.051 615.855 -111.599 619.109 -117.797"/><text x="557.535" y="-144.649" fill="#000" font-family="Times,serif" font-size="14" text-anchor="middle">rely</text></g><g id="edge35" class="edge"><title>MCD_FLAP-&gt;MCD_PAUSE_PROXY</title><path fill="none" stroke="#000" d="M485.4421,-200.0171C455.8119,-320.2314 289.9038,-993.3473 253.7108,-1140.1879"/><polygon fill="#000" stroke="#000" points="250.236 -1139.659 251.242 -1150.206 257.033 -1141.334 250.236 -1139.659"/><text x="358.694" y="-674.303" fill="#000" font-family="Times,serif" font-size="14" text-anchor="middle">rely</text></g><g id="node10" class="node"><title>MCD_FLOP</title><polygon fill="none" stroke="#000" points="862.5 -69.545 803.4 -69.545 803.4 -33.545 862.5 -33.545 862.5 -69.545"/><text x="832.95" y="-47.345" fill="#000" font-family="Times,serif" font-size="14" text-anchor="middle">Flopper</text></g><g id="edge22" class="edge"><title>MCD_FLOP-&gt;MCD_VOW</title><path fill="none" stroke="#000" d="M803.3283,-58.8462C772.3958,-66.4704 723.8219,-78.4428 690.4287,-86.6735"/><polygon fill="#000" stroke="#000" points="689.461 -83.307 680.589 -89.099 691.136 -90.104 689.461 -83.307"/><text x="735.996" y="-76.96" fill="#000" font-family="Times,serif" font-size="14" text-anchor="middle">rely</text></g><g id="edge36" class="edge"><title>MCD_FLOP-&gt;MCD_PAUSE_PROXY</title><path fill="none" stroke="#000" d="M823.2641,-69.9998C754.7325,-200.5758 343.3426,-984.4137 261.0568,-1141.1962"/><polygon fill="#000" stroke="#000" points="257.875 -1139.726 256.327 -1150.207 264.074 -1142.979 257.875 -1139.726"/><text x="531.278" y="-609.798" fill="#000" font-family="Times,serif" font-size="14" text-anchor="middle">rely</text></g><g id="edge24" class="edge"><title>MCD_VOW-&gt;MCD_CAT</title><path fill="none" stroke="#000" d="M627.3051,-113.8862C572.8892,-151.4468 447.8101,-237.7827 386.6485,-279.9995"/><polygon fill="#000" stroke="#000" points="384.346 -277.336 378.104 -285.897 388.322 -283.097 384.346 -277.336"/><text x="517.86" y="-201.143" fill="#000" font-family="Times,serif" font-size="14" text-anchor="middle">rely</text></g><g id="edge31" class="edge"><title>MCD_VOW-&gt;MCD_PAUSE_PROXY</title><path fill="none" stroke="#000" d="M646.6761,-113.9281C598.8054,-240.1528 315.989,-985.8784 257.3704,-1140.443"/><polygon fill="#000" stroke="#000" points="253.964 -1139.555 253.69 -1150.146 260.509 -1142.037 253.964 -1139.555"/><text x="441.14" y="-631.386" fill="#000" font-family="Times,serif" font-size="14" text-anchor="middle">rely</text></g><g id="edge27" class="edge"><title>MCD_VOW-&gt;MCD_END</title><path fill="none" stroke="#000" d="M666.1734,-114.0231C761.3231,-251.8712 1366.0241,-1127.9319 1480.3327,-1293.5365"/><polygon fill="#000" stroke="#000" points="1477.722 -1295.916 1486.283 -1302.157 1483.483 -1291.939 1477.722 -1295.916"/><text x="1062.37" y="-707.98" fill="#000" font-family="Times,serif" font-size="14" text-anchor="middle">rely</text></g><g id="edge30" class="edge"><title>MCD_CAT-&gt;MCD_PAUSE_PROXY</title><path fill="none" stroke="#000" d="M349.4965,-322.1837C336.2126,-431.5865 266.5151,-1005.5971 250.1703,-1140.2092"/><polygon fill="#000" stroke="#000" points="246.693 -1139.812 248.962 -1150.161 253.642 -1140.656 246.693 -1139.812"/><text x="288.95" y="-735.396" fill="#000" font-family="Times,serif" font-size="14" text-anchor="middle">rely</text></g><g id="edge26" class="edge"><title>MCD_CAT-&gt;MCD_END</title><path fill="none" stroke="#000" d="M372.0886,-322.2034C510.4488,-444.7798 1310.5816,-1153.6356 1470.9736,-1295.7306"/><polygon fill="#000" stroke="#000" points="1468.737 -1298.426 1478.543 -1302.437 1473.379 -1293.186 1468.737 -1298.426"/><text x="910.648" y="-813.167" fill="#000" font-family="Times,serif" font-size="14" text-anchor="middle">rely</text></g><g id="edge34" class="edge"><title>MCD_SPOT-&gt;MCD_PAUSE_PROXY</title><path fill="none" stroke="#000" d="M188.1111,-1013.8936C199.5632,-1044.0901 222.5971,-1104.8256 236.1336,-1140.5184"/><polygon fill="#000" stroke="#000" points="233.026 -1142.194 239.844 -1150.303 239.571 -1139.711 233.026 -1142.194"/><text x="201.239" y="-1081.406" fill="#000" font-family="Times,serif" font-size="14" text-anchor="middle">rely</text></g><g id="node14" class="node"><title>MCD_GOV</title><polygon fill="none" stroke="#000" points="1044.701 -69.545 990.702 -69.545 990.702 -33.545 1044.701 -33.545 1044.701 -69.545"/><text x="1017.702" y="-47.345" fill="#000" font-family="Times,serif" font-size="14" text-anchor="middle">MKR</text></g><g id="edge11" class="edge"><title>MCD_GOV-&gt;deployer</title><path fill="none" stroke="#000" d="M1044.9459,-58.2603C1073.991,-65.4193 1120.381,-76.8534 1154.3072,-85.2155"/><polygon fill="#000" stroke="#000" points="1153.856 -88.709 1164.403 -87.704 1155.531 -81.912 1153.856 -88.709"/><text x="1082.136" y="-75.938" fill="#000" font-family="Times,serif" font-size="14" text-anchor="middle">owner</text></g><g id="edge38" class="edge"><title>MCD_GOV-&gt;MCD_FLOP</title><path fill="none" stroke="#000" d="M990.4407,-51.5452C959.3795,-51.5452 908.3337,-51.5452 872.8073,-51.5452"/><polygon fill="#000" stroke="#000" points="872.774 -48.045 862.774 -51.545 872.774 -55.045 872.774 -48.045"/><text x="898.184" y="-55.745" fill="#000" font-family="Times,serif" font-size="14" text-anchor="middle">permit-mint</text></g><g id="node17" class="node"><title>MCD_GOV_GUARD</title><polygon fill="none" stroke="#000" points="1538.052 -322.131 1459.873 -322.131 1459.873 -286.131 1538.052 -286.131 1538.052 -322.131"/><text x="1498.963" y="-299.931" fill="#000" font-family="Times,serif" font-size="14" text-anchor="middle">Gov Guard</text></g><g id="edge8" class="edge"><title>MCD_GOV-&gt;MCD_GOV_GUARD</title><path fill="none" stroke="#000" d="M1044.9551,-65.849C1124.7037,-107.7043 1358.0924,-230.1961 1455.4873,-281.3129"/><polygon fill="#000" stroke="#000" points="1453.997 -284.484 1464.478 -286.032 1457.25 -278.285 1453.997 -284.484"/><text x="1224.948" y="-177.781" fill="#000" font-family="Times,serif" font-size="14" text-anchor="middle">authority</text></g><g id="node15" class="node"><title>MCD_PAUSE</title><polygon fill="none" stroke="#000" points="1702.475 -1013.733 1636.38 -1013.733 1636.38 -977.733 1702.475 -977.733 1702.475 -1013.733"/><text x="1669.427" y="-991.533" fill="#000" font-family="Times,serif" font-size="14" text-anchor="middle">DSPause</text></g><g id="edge2" class="edge"><title>MCD_PAUSE-&gt;zero</title><path fill="none" stroke="#000" d="M1671.6441,-977.4772C1675.5292,-945.4807 1683.5945,-879.0567 1688.2254,-840.918"/><polygon fill="#000" stroke="#000" points="1691.758 -840.86 1689.489 -830.511 1684.809 -840.016 1691.758 -840.86"/><text x="1662.444" y="-913.398" fill="#000" font-family="Times,serif" font-size="14" text-anchor="middle">owner</text></g><g id="node19" class="node"><title>MCD_ADM</title><polygon fill="none" stroke="#000" points="1701.919 -646.924 1636.936 -646.924 1636.936 -610.924 1701.919 -610.924 1701.919 -646.924"/><text x="1669.427" y="-624.724" fill="#000" font-family="Times,serif" font-size="14" text-anchor="middle">DSChief</text></g><g id="edge3" class="edge"><title>MCD_PAUSE-&gt;MCD_ADM</title><path fill="none" stroke="#000" d="M1669.4274,-977.5431C1669.4274,-918.1427 1669.4274,-729.5445 1669.4274,-657.3833"/><polygon fill="#000" stroke="#000" points="1672.928 -657.224 1669.427 -647.224 1665.928 -657.224 1672.928 -657.224"/><text x="1644.154" y="-821.663" fill="#000" font-family="Times,serif" font-size="14" text-anchor="middle">authority</text></g><g id="edge14" class="edge"><title>MCD_PAUSE_PROXY-&gt;MCD_PAUSE</title><path fill="none" stroke="#000" d="M296.9541,-1162.3817C519.9091,-1135.3101 1418.3613,-1026.2182 1626.3117,-1000.9684"/><polygon fill="#000" stroke="#000" points="1626.741 -1004.442 1636.247 -999.762 1625.898 -997.493 1626.741 -1004.442"/><text x="944.142" y="-1085.875" fill="#000" font-family="Times,serif" font-size="14" text-anchor="middle">owner</text></g><g id="edge4" class="edge"><title>MCD_GOV_GUARD-&gt;zero</title><path fill="none" stroke="#000" d="M1503.0073,-322.2704C1526.3474,-398.5691 1637.9686,-693.5196 1677.8101,-785.0762"/><polygon fill="#000" stroke="#000" points="1674.624 -786.526 1681.872 -794.254 1681.025 -783.693 1674.624 -786.526"/><text x="1565.135" y="-557.873" fill="#000" font-family="Times,serif" font-size="14" text-anchor="middle">authority</text></g><g id="edge13" class="edge"><title>MCD_GOV_GUARD-&gt;zero</title><path fill="none" stroke="#000" d="M1508.7592,-322.1417C1543.0482,-398.0482 1654.6969,-692.0076 1684.5614,-784.3922"/><polygon fill="#000" stroke="#000" points="1681.294 -785.668 1687.641 -794.151 1687.969 -783.562 1681.294 -785.668"/><text x="1579.169" y="-540.667" fill="#000" font-family="Times,serif" font-size="14" text-anchor="middle">owner</text></g><g id="node18" class="node"><title>MCD_IOU</title><polygon fill="none" stroke="#000" points="1630.914 -474.178 1576.914 -474.178 1576.914 -438.178 1630.914 -438.178 1630.914 -474.178"/><text x="1603.914" y="-451.978" fill="#000" font-family="Times,serif" font-size="14" text-anchor="middle">IOU</text></g><g id="edge12" class="edge"><title>MCD_IOU-&gt;zero</title><path fill="none" stroke="#000" d="M1608.3875,-474.3294C1622.7107,-532.4409 1667.5073,-714.1881 1684.7949,-784.3266"/><polygon fill="#000" stroke="#000" points="1681.44 -785.342 1687.232 -794.214 1688.237 -783.667 1681.44 -785.342"/><text x="1629.1" y="-633.528" fill="#000" font-family="Times,serif" font-size="14" text-anchor="middle">owner</text></g><g id="edge5" class="edge"><title>MCD_IOU-&gt;MCD_GOV_GUARD</title><path fill="none" stroke="#000" d="M1591.4622,-438.1393C1573.0782,-411.5054 1538.5585,-361.4949 1517.2829,-330.672"/><polygon fill="#000" stroke="#000" points="1519.959 -328.388 1511.398 -322.146 1514.198 -332.364 1519.959 -328.388"/><text x="1529.099" y="-388.606" fill="#000" font-family="Times,serif" font-size="14" text-anchor="middle">authority</text></g><g id="edge63" class="edge"><title>MCD_IOU-&gt;MCD_ADM</title><path fill="none" stroke="#000" d="M1606.2881,-474.2236C1614.5415,-504.5562 1637.417,-565.8471 1653.4567,-601.5162"/><polygon fill="#000" stroke="#000" points="1650.402 -603.248 1657.782 -610.85 1656.753 -600.305 1650.402 -603.248"/><text x="1663.312" y="-542.07" fill="#000" font-family="Times,serif" font-size="14" text-anchor="middle">permit-mint</text></g><g id="edge64" class="edge"><title>MCD_IOU-&gt;MCD_ADM</title><path fill="none" stroke="#000" d="M1615.6308,-474.4008C1630.1102,-504.6148 1653.2706,-565.1975 1664.1531,-600.8851"/><polygon fill="#000" stroke="#000" points="1660.846 -602.046 1666.997 -610.673 1667.568 -600.093 1660.846 -602.046"/><text x="1673.326" y="-525.043" fill="#000" font-family="Times,serif" font-size="14" text-anchor="middle">permit-burn</text></g><g id="edge10" class="edge"><title>MCD_ADM-&gt;zero</title><path fill="none" stroke="#000" d="M1671.6441,-647.1801C1675.5292,-679.1766 1683.5945,-745.6005 1688.2254,-783.7393"/><polygon fill="#000" stroke="#000" points="1684.809 -784.641 1689.489 -794.146 1691.758 -783.797 1684.809 -784.641"/><text x="1662.444" y="-719.66" fill="#000" font-family="Times,serif" font-size="14" text-anchor="middle">owner</text></g><g id="edge6" class="edge"><title>MCD_ADM-&gt;MCD_ADM</title><path fill="none" stroke="#000" d="M1701.9672,-635.6674C1712.0251,-635.5312 1719.9232,-633.2834 1719.9232,-628.924 1719.9232,-626.1994 1716.838,-624.2996 1712.0686,-623.2247"/><polygon fill="#000" stroke="#000" points="1712.274 -619.727 1701.967 -622.181 1711.554 -626.69 1712.274 -619.727"/><text x="1745.197" y="-624.724" fill="#000" font-family="Times,serif" font-size="14" text-anchor="middle">authority</text></g><g id="node20" class="node"><title>PROXY_DEPLOYER</title><polygon fill="none" stroke="#000" points="1413.204 -199.618 1308.144 -199.618 1308.144 -163.618 1413.204 -163.618 1413.204 -199.618"/><text x="1360.674" y="-177.417" fill="#000" font-family="Times,serif" font-size="14" text-anchor="middle">Proxy Deployer</text></g><g id="edge7" class="edge"><title>PROXY_DEPLOYER-&gt;zero</title><path fill="none" stroke="#000" d="M1370.224,-199.8133C1416.9403,-288.8239 1621.4064,-678.4014 1677.448,-785.1798"/><polygon fill="#000" stroke="#000" points="1674.362 -786.831 1682.108 -794.059 1680.56 -783.578 1674.362 -786.831"/><text x="1498.563" y="-496.697" fill="#000" font-family="Times,serif" font-size="14" text-anchor="middle">authority</text></g><g id="edge15" class="edge"><title>PROXY_DEPLOYER-&gt;deployer</title><path fill="none" stroke="#000" d="M1325.981,-163.4092C1300.56,-150.0672 1265.9313,-131.8927 1238.9678,-117.7412"/><polygon fill="#000" stroke="#000" points="1240.259 -114.466 1229.778 -112.918 1237.006 -120.664 1240.259 -114.466"/><text x="1264.984" y="-144.775" fill="#000" font-family="Times,serif" font-size="14" text-anchor="middle">owner</text></g><g id="edge37" class="edge"><title>MCD_END-&gt;MCD_PAUSE_PROXY</title><path fill="none" stroke="#000" d="M1471.937,-1317.2452C1316.0636,-1298.3187 531.0415,-1202.9998 306.6973,-1175.7595"/><polygon fill="#000" stroke="#000" points="307.104 -1172.283 296.755 -1174.552 306.26 -1179.232 307.104 -1172.283"/><text x="878.434" y="-1250.702" fill="#000" font-family="Times,serif" font-size="14" text-anchor="middle">rely</text></g><g id="node22" class="node"><title>MCD_ESM</title><polygon fill="none" stroke="#000" points="1600.065 -1404.176 1546.065 -1404.176 1546.065 -1368.176 1600.065 -1368.176 1600.065 -1404.176"/><text x="1573.065" y="-1381.976" fill="#000" font-family="Times,serif" font-size="14" text-anchor="middle">ESM</text></g><g id="edge28" class="edge"><title>MCD_END-&gt;MCD_ESM</title><path fill="none" stroke="#000" d="M1519.6044,-1338.8137C1527.4735,-1345.7851 1536.5801,-1353.8528 1545.0224,-1361.3321"/><polygon fill="#000" stroke="#000" points="1542.728 -1363.976 1552.534 -1367.987 1547.37 -1358.736 1542.728 -1363.976"/><text x="1521.43" y="-1354.273" fill="#000" font-family="Times,serif" font-size="14" text-anchor="middle">rely</text></g><g id="node24" class="node"><title>Flipper_ETH-A</title><polygon fill="none" stroke="#000" points="404.607 -1338.527 298.77 -1338.527 298.77 -1302.527 404.607 -1302.527 404.607 -1338.527"/><text x="351.689" y="-1316.327" fill="#000" font-family="Times,serif" font-size="14" text-anchor="middle">Flipper_ETH-A</text></g><g id="edge41" class="edge"><title>Flipper_ETH-A-&gt;MCD_PAUSE_PROXY</title><path fill="none" stroke="#000" d="M339.2372,-1302.4878C320.8532,-1275.8539 286.3335,-1225.8435 265.0579,-1195.0205"/><polygon fill="#000" stroke="#000" points="267.734 -1192.736 259.173 -1186.495 261.973 -1196.713 267.734 -1192.736"/><text x="291.265" y="-1252.954" fill="#000" font-family="Times,serif" font-size="14" text-anchor="middle">rely</text></g><g id="edge40" class="edge"><title>Flipper_ETH-A-&gt;MCD_END</title><path fill="none" stroke="#000" d="M404.7231,-1320.5267C602.3219,-1320.5267 1293.0398,-1320.5267 1461.6332,-1320.5267"/><polygon fill="#000" stroke="#000" points="1461.75 -1324.027 1471.75 -1320.527 1461.75 -1317.027 1461.75 -1324.027"/><text x="922.295" y="-1324.727" fill="#000" font-family="Times,serif" font-size="14" text-anchor="middle">rely</text></g><g id="node26" class="node"><title>Flipper_ETH-B</title><polygon fill="none" stroke="#000" points="542.126 -1461.04 437.829 -1461.04 437.829 -1425.04 542.126 -1425.04 542.126 -1461.04"/><text x="489.977" y="-1438.84" fill="#000" font-family="Times,serif" font-size="14" text-anchor="middle">Flipper_ETH-B</text></g><g id="edge44" class="edge"><title>Flipper_ETH-B-&gt;MCD_PAUSE_PROXY</title><path fill="none" stroke="#000" d="M474.0176,-1425.025C432.01,-1377.6083 318.2616,-1249.2129 269.4676,-1194.1358"/><polygon fill="#000" stroke="#000" points="272.007 -1191.724 262.756 -1186.56 266.767 -1196.366 272.007 -1191.724"/><text x="360.86" y="-1296.98" fill="#000" font-family="Times,serif" font-size="14" text-anchor="middle">rely</text></g><g id="edge43" class="edge"><title>Flipper_ETH-B-&gt;MCD_END</title><path fill="none" stroke="#000" d="M542.4515,-1436.6682C721.598,-1414.9159 1306.4841,-1343.8978 1461.1579,-1325.117"/><polygon fill="#000" stroke="#000" points="1462.034 -1328.536 1471.539 -1323.857 1461.19 -1321.588 1462.034 -1328.536"/><text x="990.922" y="-1385.093" fill="#000" font-family="Times,serif" font-size="14" text-anchor="middle">rely</text></g><g id="node28" class="node"><title>Flipper_ETH-C</title><polygon fill="none" stroke="#000" points="705.715 -1546.898 601.418 -1546.898 601.418 -1510.898 705.715 -1510.898 705.715 -1546.898"/><text x="653.567" y="-1524.698" fill="#000" font-family="Times,serif" font-size="14" text-anchor="middle">Flipper_ETH-C</text></g><g id="edge47" class="edge"><title>Flipper_ETH-C-&gt;MCD_PAUSE_PROXY</title><path fill="none" stroke="#000" d="M633.1132,-1510.7779C566.1081,-1451.4166 353.065,-1262.6768 275.4102,-1193.8807"/><polygon fill="#000" stroke="#000" points="277.281 -1190.862 267.474 -1186.85 272.639 -1196.101 277.281 -1190.862"/><text x="443.379" y="-1356.529" fill="#000" font-family="Times,serif" font-size="14" text-anchor="middle">rely</text></g><g id="edge46" class="edge"><title>Flipper_ETH-C-&gt;MCD_END</title><path fill="none" stroke="#000" d="M705.812,-1516.0208C862.6422,-1477.3656 1326.8232,-1362.9553 1461.7735,-1329.693"/><polygon fill="#000" stroke="#000" points="1462.767 -1333.053 1471.639 -1327.261 1461.092 -1326.256 1462.767 -1333.053"/><text x="1072.91" y="-1427.057" fill="#000" font-family="Times,serif" font-size="14" text-anchor="middle">rely</text></g><g id="node30" class="node"><title>Flipper_COL1-A</title><polygon fill="none" stroke="#000" points="889.652 -1591.112 776.248 -1591.112 776.248 -1555.112 889.652 -1555.112 889.652 -1591.112"/><text x="832.95" y="-1568.912" fill="#000" font-family="Times,serif" font-size="14" text-anchor="middle">Flipper_COL1-A</text></g><g id="edge50" class="edge"><title>Flipper_COL1-A-&gt;MCD_PAUSE_PROXY</title><path fill="none" stroke="#000" d="M806.6227,-1554.9398C711.927,-1489.5761 388.5901,-1266.3928 281.5013,-1192.4746"/><polygon fill="#000" stroke="#000" points="283.21 -1189.401 272.992 -1186.601 279.234 -1195.162 283.21 -1189.401"/><text x="533.179" y="-1377.907" fill="#000" font-family="Times,serif" font-size="14" text-anchor="middle">rely</text></g><g id="edge49" class="edge"><title>Flipper_COL1-A-&gt;MCD_END</title><path fill="none" stroke="#000" d="M880.5805,-1555.0481C1007.0183,-1507.0966 1349.1539,-1377.3417 1462.1733,-1334.4791"/><polygon fill="#000" stroke="#000" points="1463.659 -1337.659 1471.768 -1330.84 1461.177 -1331.114 1463.659 -1337.659"/><text x="1160.494" y="-1448.964" fill="#000" font-family="Times,serif" font-size="14" text-anchor="middle">rely</text></g><g id="node32" class="node"><title>Flipper_COL2-A</title><polygon fill="none" stroke="#000" points="1074.404 -1591.112 960.999 -1591.112 960.999 -1555.112 1074.404 -1555.112 1074.404 -1591.112"/><text x="1017.702" y="-1568.912" fill="#000" font-family="Times,serif" font-size="14" text-anchor="middle">Flipper_COL2-A</text></g><g id="edge53" class="edge"><title>Flipper_COL2-A-&gt;MCD_PAUSE_PROXY</title><path fill="none" stroke="#000" d="M983.3286,-1555.0718C858.5014,-1489.5574 429.208,-1264.2469 290.4042,-1191.397"/><polygon fill="#000" stroke="#000" points="291.785 -1188.169 281.304 -1186.621 288.532 -1194.367 291.785 -1188.169"/><text x="625.984" y="-1377.434" fill="#000" font-family="Times,serif" font-size="14" text-anchor="middle">rely</text></g><g id="edge52" class="edge"><title>Flipper_COL2-A-&gt;MCD_END</title><path fill="none" stroke="#000" d="M1052.3126,-1554.9468C1140.4677,-1508.6794 1372.8266,-1386.728 1462.7262,-1339.5451"/><polygon fill="#000" stroke="#000" points="1464.495 -1342.57 1471.723 -1334.823 1461.242 -1336.371 1464.495 -1342.57"/><text x="1246.637" y="-1451.446" fill="#000" font-family="Times,serif" font-size="14" text-anchor="middle">rely</text></g><g id="node34" class="node"><title>Flipper_COL3-A</title><polygon fill="none" stroke="#000" points="1253.787 -1546.898 1140.382 -1546.898 1140.382 -1510.898 1253.787 -1510.898 1253.787 -1546.898"/><text x="1197.085" y="-1524.698" fill="#000" font-family="Times,serif" font-size="14" text-anchor="middle">Flipper_COL3-A</text></g><g id="edge56" class="edge"><title>Flipper_COL3-A-&gt;MCD_PAUSE_PROXY</title><path fill="none" stroke="#000" d="M1149.3055,-1510.7779C989.8123,-1450.2901 476.106,-1255.467 303.7353,-1190.0954"/><polygon fill="#000" stroke="#000" points="304.921 -1186.802 294.33 -1186.528 302.439 -1193.347 304.921 -1186.802"/><text x="715.638" y="-1354.637" fill="#000" font-family="Times,serif" font-size="14" text-anchor="middle">rely</text></g><g id="edge55" class="edge"><title>Flipper_COL3-A-&gt;MCD_END</title><path fill="none" stroke="#000" d="M1223.3462,-1510.771C1277.7621,-1473.2105 1402.8412,-1386.8746 1464.0028,-1344.6578"/><polygon fill="#000" stroke="#000" points="1466.305 -1347.321 1472.547 -1338.76 1462.329 -1341.561 1466.305 -1347.321"/><text x="1349.116" y="-1415.114" fill="#000" font-family="Times,serif" font-size="14" text-anchor="middle">rely</text></g><g id="node36" class="node"><title>Flipper_COL4-A</title><polygon fill="none" stroke="#000" points="1417.376 -1461.04 1303.972 -1461.04 1303.972 -1425.04 1417.376 -1425.04 1417.376 -1461.04"/><text x="1360.674" y="-1438.84" fill="#000" font-family="Times,serif" font-size="14" text-anchor="middle">Flipper_COL4-A</text></g><g id="edge59" class="edge"><title>Flipper_COL4-A-&gt;MCD_PAUSE_PROXY</title><path fill="none" stroke="#000" d="M1303.9024,-1429.0468C1113.9024,-1382.216 501.3325,-1231.231 306.6937,-1183.2569"/><polygon fill="#000" stroke="#000" points="307.472 -1179.844 296.925 -1180.849 305.796 -1186.641 307.472 -1179.844"/><text x="794.415" y="-1310.352" fill="#000" font-family="Times,serif" font-size="14" text-anchor="middle">rely</text></g><g id="edge58" class="edge"><title>Flipper_COL4-A-&gt;MCD_END</title><path fill="none" stroke="#000" d="M1381.079,-1424.9625C1404.8757,-1403.8805 1444.3434,-1368.9152 1470.9863,-1345.3116"/><polygon fill="#000" stroke="#000" points="1473.31 -1347.929 1478.474 -1338.678 1468.668 -1342.69 1473.31 -1347.929"/><text x="1415.15" y="-1389.337" fill="#000" font-family="Times,serif" font-size="14" text-anchor="middle">rely</text></g><g id="node38" class="node"><title>Flipper_COL5-A</title><polygon fill="none" stroke="#000" points="1660.616 -1186.479 1547.211 -1186.479 1547.211 -1150.479 1660.616 -1150.479 1660.616 -1186.479"/><text x="1603.914" y="-1164.279" fill="#000" font-family="Times,serif" font-size="14" text-anchor="middle">Flipper_COL5-A</text></g><g id="edge62" class="edge"><title>Flipper_COL5-A-&gt;MCD_PAUSE_PROXY</title><path fill="none" stroke="#000" d="M1546.8955,-1168.4791C1326.7611,-1168.4791 533.3234,-1168.4791 307.2441,-1168.4791"/><polygon fill="#000" stroke="#000" points="306.912 -1164.979 296.912 -1168.479 306.912 -1171.979 306.912 -1164.979"/><text x="916.187" y="-1172.679" fill="#000" font-family="Times,serif" font-size="14" text-anchor="middle">rely</text></g><g id="edge61" class="edge"><title>Flipper_COL5-A-&gt;MCD_END</title><path fill="none" stroke="#000" d="M1591.4622,-1186.518C1573.0782,-1213.1518 1538.5585,-1263.1623 1517.2829,-1293.9853"/><polygon fill="#000" stroke="#000" points="1514.198 -1292.293 1511.398 -1302.511 1519.959 -1296.27 1514.198 -1292.293"/><text x="1543.49" y="-1244.452" fill="#000" font-family="Times,serif" font-size="14" text-anchor="middle">rely</text></g><g id="node40" class="node"><title>isolated</title><polygon fill="none" stroke="#000" points="2254.291 -312.629 1680.36 -312.629 1680.36 -120.028 2254.291 -120.028 2254.291 -312.629"/><text x="1967.326" y="-296.129" fill="#000" font-family="Times,serif" font-size="14" text-anchor="middle">Isolated Contracts:</text><text x="1967.326" y="-279.329" fill="#000" font-family="Times,serif" font-size="14" text-anchor="middle">MULTICALL, FAUCET, VOTE_PROXY_FACTORY, PROXY_ACTIONS, CDP_MANAGER,</text><text x="1967.326" y="-262.529" fill="#000" font-family="Times,serif" font-size="14" text-anchor="middle">GET_CDPS, PROXY_FACTORY, PROXY_REGISTRY, PROXY_PAUSE_ACTIONS,</text><text x="1967.326" y="-245.729" fill="#000" font-family="Times,serif" font-size="14" text-anchor="middle">MCD_GOV_ACTIONS, GOV_POLL_GEN, VOTE_YES, VOTE_NO,</text><text x="1967.326" y="-228.929" fill="#000" font-family="Times,serif" font-size="14" text-anchor="middle">ETH, PIP_ETH, COL1, PIP_COL1,</text><text x="1967.326" y="-212.129" fill="#000" font-family="Times,serif" font-size="14" text-anchor="middle">COL2, PIP_COL2, COL3, PIP_COL3,</text><text x="1967.326" y="-195.329" fill="#000" font-family="Times,serif" font-size="14" text-anchor="middle">COL4, PIP_COL4, COL5, PIP_COL5,</text><text x="1967.326" y="-178.529" fill="#000" font-family="Times,serif" font-size="14" text-anchor="middle">vatFab, jugFab, vowFab, catFab,</text><text x="1967.326" y="-161.729" fill="#000" font-family="Times,serif" font-size="14" text-anchor="middle">daiFab, daiJoinFab, flapFab, flopFab,</text><text x="1967.326" y="-144.929" fill="#000" font-family="Times,serif" font-size="14" text-anchor="middle">flipFab, spotFab, potFab, pauseFab,</text><text x="1967.326" y="-128.129" fill="#000" font-family="Times,serif" font-size="14" text-anchor="middle">0x22e5f08e97534c1457d49834d3d31d8c1680dac4</text></g></g></svg>