<svg xmlns="http://www.w3.org/2000/svg" xmlns:xlink="http://www.w3.org/1999/xlink" width="2453pt" height="1421pt" viewBox="0 0 2452.98 1421.17"><g id="graph0" class="graph" transform="scale(1 1) rotate(0) translate(4 1417.1727)"><title>%0</title><polygon fill="#fff" stroke="transparent" points="-4 4 -4 -1417.173 2448.983 -1417.173 2448.983 4 -4 4"/><g id="node1" class="node"><title>zero</title><polygon fill="none" stroke="#000" points="886.189 -633.861 832.189 -633.861 832.189 -597.861 886.189 -597.861 886.189 -633.861"/><text x="859.189" y="-611.661" fill="#000" font-family="Times,serif" font-size="14" text-anchor="middle">zero</text></g><g id="node2" class="node"><title>deployer</title><polygon fill="none" stroke="#000" points="656.966 -968.365 592.005 -968.365 592.005 -932.365 656.966 -932.365 656.966 -968.365"/><text x="624.486" y="-946.165" fill="#000" font-family="Times,serif" font-size="14" text-anchor="middle">deployer</text></g><g id="node3" class="node"><title>MCD_DEPLOY</title><polygon fill="none" stroke="#000" points="1133.848 -985.687 1055.432 -985.687 1055.432 -949.687 1133.848 -949.687 1133.848 -985.687"/><text x="1094.64" y="-963.487" fill="#000" font-family="Times,serif" font-size="14" text-anchor="middle">DssDeploy</text></g><g id="edge2" class="edge"><title>MCD_DEPLOY-&gt;zero</title><path fill="none" stroke="#000" d="M1082.3125,-949.2668C1043.3739,-891.0822 922.8864,-711.0416 877.0962,-642.6188"/><polygon fill="#000" stroke="#000" points="879.865 -640.463 871.394 -634.099 874.047 -644.356 879.865 -640.463"/><text x="962.213" y="-800.143" fill="#000" font-family="Times,serif" font-size="14" text-anchor="middle">owner</text></g><g id="node32" class="node"><title>0xd1d1c361D4770c24591FF487df7c9614e015768D</title><polygon fill="none" stroke="#000" points="1369.433 -1225.234 1056.838 -1225.234 1056.838 -1189.234 1369.433 -1189.234 1369.433 -1225.234"/><text x="1213.136" y="-1203.034" fill="#000" font-family="Times,serif" font-size="14" text-anchor="middle">0xd1d1c361D4770c24591FF487df7c9614e015768D</text></g><g id="edge7" class="edge"><title>MCD_DEPLOY-&gt;0xd1d1c361D4770c24591FF487df7c9614e015768D</title><path fill="none" stroke="#000" d="M1103.5463,-985.6921C1124.1338,-1027.3109 1175.1241,-1130.391 1199.6009,-1179.8725"/><polygon fill="#000" stroke="#000" points="1196.555 -1181.609 1204.126 -1189.02 1202.829 -1178.505 1196.555 -1181.609"/><text x="1126.3" y="-1086.982" fill="#000" font-family="Times,serif" font-size="14" text-anchor="middle">authority</text></g><g id="node4" class="node"><title>MCD_VAT</title><polygon fill="none" stroke="#000" points="2311.44 -402.916 2257.44 -402.916 2257.44 -366.916 2311.44 -366.916 2311.44 -402.916"/><text x="2284.44" y="-380.716" fill="#000" font-family="Times,serif" font-size="14" text-anchor="middle">Vat</text></g><g id="node7" class="node"><title>MCD_JUG</title><polygon fill="none" stroke="#000" points="2213.072 -255.696 2159.072 -255.696 2159.072 -219.696 2213.072 -219.696 2213.072 -255.696"/><text x="2186.072" y="-233.496" fill="#000" font-family="Times,serif" font-size="14" text-anchor="middle">Jug</text></g><g id="edge18" class="edge"><title>MCD_VAT-&gt;MCD_JUG</title><path fill="none" stroke="#000" d="M2272.3784,-366.8637C2255.2688,-341.2573 2223.8302,-294.2062 2203.9888,-264.5114"/><polygon fill="#000" stroke="#000" points="2206.698 -262.266 2198.232 -255.896 2200.878 -266.155 2206.698 -262.266"/><text x="2227.301" y="-319.888" fill="#000" font-family="Times,serif" font-size="14" text-anchor="middle">rely</text></g><g id="node8" class="node"><title>MCD_POT</title><polygon fill="none" stroke="#000" points="1571.319 -255.696 1517.319 -255.696 1517.319 -219.696 1571.319 -219.696 1571.319 -255.696"/><text x="1544.319" y="-233.496" fill="#000" font-family="Times,serif" font-size="14" text-anchor="middle">Pot</text></g><g id="edge19" class="edge"><title>MCD_VAT-&gt;MCD_POT</title><path fill="none" stroke="#000" d="M2257.2213,-379.5015C2144.1,-357.0002 1710.9921,-270.8497 1581.2544,-245.0433"/><polygon fill="#000" stroke="#000" points="1581.885 -241.6 1571.394 -243.082 1580.519 -248.466 1581.885 -241.6"/><text x="1908.355" y="-316.472" fill="#000" font-family="Times,serif" font-size="14" text-anchor="middle">rely</text></g><g id="node12" class="node"><title>MCD_CAT</title><polygon fill="none" stroke="#000" points="1892.195 -1030.36 1838.195 -1030.36 1838.195 -994.36 1892.195 -994.36 1892.195 -1030.36"/><text x="1865.195" y="-1008.16" fill="#000" font-family="Times,serif" font-size="14" text-anchor="middle">Cat</text></g><g id="edge22" class="edge"><title>MCD_VAT-&gt;MCD_CAT</title><path fill="none" stroke="#000" d="M2272.3453,-403.0172C2213.1188,-491.6559 1953.6978,-879.9068 1883.0279,-985.6719"/><polygon fill="#000" stroke="#000" points="1879.985 -983.926 1877.339 -994.185 1885.805 -987.815 1879.985 -983.926"/><text x="2066.804" y="-698.544" fill="#000" font-family="Times,serif" font-size="14" text-anchor="middle">rely</text></g><g id="node13" class="node"><title>MCD_SPOT</title><polygon fill="none" stroke="#000" points="1474.391 -402.916 1417.509 -402.916 1417.509 -366.916 1474.391 -366.916 1474.391 -402.916"/><text x="1445.95" y="-380.716" fill="#000" font-family="Times,serif" font-size="14" text-anchor="middle">Spotter</text></g><g id="edge16" class="edge"><title>MCD_VAT-&gt;MCD_SPOT</title><path fill="none" stroke="#000" d="M2257.019,-384.9157C2133.5236,-384.9157 1628.7605,-384.9157 1484.5768,-384.9157"/><polygon fill="#000" stroke="#000" points="1484.441 -381.416 1474.441 -384.916 1484.441 -388.416 1484.441 -381.416"/><text x="1859.915" y="-389.116" fill="#000" font-family="Times,serif" font-size="14" text-anchor="middle">rely</text></g><g id="node16" class="node"><title>MCD_PAUSE_PROXY</title><polygon fill="none" stroke="#000" points="1461.396 -576.573 1361.419 -576.573 1361.419 -540.573 1461.396 -540.573 1461.396 -576.573"/><text x="1411.408" y="-554.373" fill="#000" font-family="Times,serif" font-size="14" text-anchor="middle">DSPauseProxy</text></g><g id="edge30" class="edge"><title>MCD_VAT-&gt;MCD_PAUSE_PROXY</title><path fill="none" stroke="#000" d="M2257.3549,-390.3033C2136.3666,-414.3694 1643.7842,-512.3501 1471.3604,-546.6473"/><polygon fill="#000" stroke="#000" points="1470.568 -543.236 1461.443 -548.62 1471.934 -550.102 1470.568 -543.236"/><text x="1853.475" y="-472.675" fill="#000" font-family="Times,serif" font-size="14" text-anchor="middle">rely</text></g><g id="node19" class="node"><title>MCD_END</title><polygon fill="none" stroke="#000" points="2345.983 -576.573 2291.983 -576.573 2291.983 -540.573 2345.983 -540.573 2345.983 -576.573"/><text x="2318.983" y="-554.373" fill="#000" font-family="Times,serif" font-size="14" text-anchor="middle">End</text></g><g id="edge24" class="edge"><title>MCD_VAT-&gt;MCD_END</title><path fill="none" stroke="#000" d="M2288.0717,-403.1718C2294.1256,-433.6068 2306.3181,-494.9025 2313.4476,-530.7451"/><polygon fill="#000" stroke="#000" points="2310.016 -531.436 2315.4 -540.561 2316.882 -530.071 2310.016 -531.436"/><text x="2289.877" y="-471.158" fill="#000" font-family="Times,serif" font-size="14" text-anchor="middle">rely</text></g><g id="node23" class="node"><title>ETHJoin_A</title><polygon fill="none" stroke="#000" points="2080.507 -157.328 1997.198 -157.328 1997.198 -121.328 2080.507 -121.328 2080.507 -157.328"/><text x="2038.852" y="-135.128" fill="#000" font-family="Times,serif" font-size="14" text-anchor="middle">ETHJoin_A</text></g><g id="edge39" class="edge"><title>MCD_VAT-&gt;ETHJoin_A</title><path fill="none" stroke="#000" d="M2266.3817,-366.857C2223.1825,-323.6579 2113.7884,-214.2637 2064.1005,-164.5758"/><polygon fill="#000" stroke="#000" points="2066.483 -162.009 2056.937 -157.413 2061.534 -166.959 2066.483 -162.009"/><text x="2154.358" y="-269.916" fill="#000" font-family="Times,serif" font-size="14" text-anchor="middle">rely</text></g><g id="node25" class="node"><title>BATJoin_A</title><polygon fill="none" stroke="#000" points="1907.634 -122.785 1822.756 -122.785 1822.756 -86.785 1907.634 -86.785 1907.634 -122.785"/><text x="1865.195" y="-100.585" fill="#000" font-family="Times,serif" font-size="14" text-anchor="middle">BATJoin_A</text></g><g id="edge43" class="edge"><title>MCD_VAT-&gt;BATJoin_A</title><path fill="none" stroke="#000" d="M2257.2555,-366.7514C2184.0758,-317.8542 1982.9192,-183.4456 1900.808,-128.5807"/><polygon fill="#000" stroke="#000" points="1902.578 -125.554 1892.318 -122.908 1898.689 -131.374 1902.578 -125.554"/><text x="2068.149" y="-251.866" fill="#000" font-family="Times,serif" font-size="14" text-anchor="middle">rely</text></g><g id="node28" class="node"><title>SAIJoin_A</title><polygon fill="none" stroke="#000" points="1731.03 -157.328 1652.047 -157.328 1652.047 -121.328 1731.03 -121.328 1731.03 -157.328"/><text x="1691.538" y="-135.128" fill="#000" font-family="Times,serif" font-size="14" text-anchor="middle">SAIJoin_A</text></g><g id="edge47" class="edge"><title>MCD_VAT-&gt;SAIJoin_A</title><path fill="none" stroke="#000" d="M2257.4239,-373.7251C2165.006,-335.4444 1860.6032,-209.3566 1740.6993,-159.6908"/><polygon fill="#000" stroke="#000" points="1741.95 -156.42 1731.372 -155.827 1739.271 -162.888 1741.95 -156.42"/><text x="1988.179" y="-270.908" fill="#000" font-family="Times,serif" font-size="14" text-anchor="middle">rely</text></g><g id="node5" class="node"><title>MCD_DAI</title><polygon fill="none" stroke="#000" points="1422.491 -1061.573 1368.491 -1061.573 1368.491 -1025.573 1422.491 -1025.573 1422.491 -1061.573"/><text x="1395.491" y="-1039.373" fill="#000" font-family="Times,serif" font-size="14" text-anchor="middle">Dai</text></g><g id="node6" class="node"><title>MCD_JOIN_DAI</title><polygon fill="none" stroke="#000" points="1553.813 -1061.573 1494.716 -1061.573 1494.716 -1025.573 1553.813 -1025.573 1553.813 -1061.573"/><text x="1524.264" y="-1039.373" fill="#000" font-family="Times,serif" font-size="14" text-anchor="middle">DaiJoin</text></g><g id="edge17" class="edge"><title>MCD_DAI-&gt;MCD_JOIN_DAI</title><path fill="none" stroke="#000" d="M1422.8005,-1043.5727C1440.6555,-1043.5727 1464.281,-1043.5727 1484.2419,-1043.5727"/><polygon fill="#000" stroke="#000" points="1484.296 -1047.073 1494.296 -1043.573 1484.296 -1040.073 1484.296 -1047.073"/><text x="1442.638" y="-1047.773" fill="#000" font-family="Times,serif" font-size="14" text-anchor="middle">rely</text></g><g id="edge33" class="edge"><title>MCD_JUG-&gt;MCD_PAUSE_PROXY</title><path fill="none" stroke="#000" d="M2158.9551,-248.9284C2046.5401,-295.4922 1615.9458,-473.8502 1464.483,-536.5881"/><polygon fill="#000" stroke="#000" points="1462.816 -533.49 1454.916 -540.551 1465.495 -539.957 1462.816 -533.49"/><text x="1800.836" y="-396.958" fill="#000" font-family="Times,serif" font-size="14" text-anchor="middle">rely</text></g><g id="edge34" class="edge"><title>MCD_POT-&gt;MCD_PAUSE_PROXY</title><path fill="none" stroke="#000" d="M1536.7922,-255.8674C1514.6384,-309.3513 1449.5535,-466.4801 1422.9443,-530.7206"/><polygon fill="#000" stroke="#000" points="1419.61 -529.625 1419.016 -540.203 1426.077 -532.304 1419.61 -529.625"/><text x="1490.751" y="-397.494" fill="#000" font-family="Times,serif" font-size="14" text-anchor="middle">rely</text></g><g id="edge27" class="edge"><title>MCD_POT-&gt;MCD_END</title><path fill="none" stroke="#000" d="M1571.4354,-248.9284C1688.2164,-297.3006 2148.3718,-487.9033 2282.257,-543.3603"/><polygon fill="#000" stroke="#000" points="2281.107 -546.672 2291.685 -547.265 2283.786 -540.205 2281.107 -546.672"/><text x="1915.963" y="-400.344" fill="#000" font-family="Times,serif" font-size="14" text-anchor="middle">rely</text></g><g id="node9" class="node"><title>MCD_FLAP</title><polygon fill="none" stroke="#000" points="1475.214 -750.23 1416.687 -750.23 1416.687 -714.23 1475.214 -714.23 1475.214 -750.23"/><text x="1445.95" y="-728.03" fill="#000" font-family="Times,serif" font-size="14" text-anchor="middle">Flapper</text></g><g id="node11" class="node"><title>MCD_VOW</title><polygon fill="none" stroke="#000" points="1718.538 -995.818 1664.538 -995.818 1664.538 -959.818 1718.538 -959.818 1718.538 -995.818"/><text x="1691.538" y="-973.618" fill="#000" font-family="Times,serif" font-size="14" text-anchor="middle">Vow</text></g><g id="edge20" class="edge"><title>MCD_FLAP-&gt;MCD_VOW</title><path fill="none" stroke="#000" d="M1464.0088,-750.2884C1507.2079,-793.4875 1616.602,-902.8817 1666.29,-952.5696"/><polygon fill="#000" stroke="#000" points="1663.907 -955.136 1673.453 -959.733 1668.857 -950.187 1663.907 -955.136"/><text x="1554.266" y="-838.829" fill="#000" font-family="Times,serif" font-size="14" text-anchor="middle">rely</text></g><g id="edge36" class="edge"><title>MCD_FLAP-&gt;MCD_PAUSE_PROXY</title><path fill="none" stroke="#000" d="M1442.3187,-713.9736C1436.2648,-683.5386 1424.0724,-622.2429 1416.9428,-586.4003"/><polygon fill="#000" stroke="#000" points="1420.374 -585.709 1414.99 -576.584 1413.508 -587.075 1420.374 -585.709"/><text x="1418.748" y="-654.387" fill="#000" font-family="Times,serif" font-size="14" text-anchor="middle">rely</text></g><g id="node10" class="node"><title>MCD_FLOP</title><polygon fill="none" stroke="#000" points="1573.869 -897.449 1514.769 -897.449 1514.769 -861.449 1573.869 -861.449 1573.869 -897.449"/><text x="1544.319" y="-875.249" fill="#000" font-family="Times,serif" font-size="14" text-anchor="middle">Flopper</text></g><g id="edge21" class="edge"><title>MCD_FLOP-&gt;MCD_VOW</title><path fill="none" stroke="#000" d="M1571.3212,-897.4914C1595.1119,-913.3878 1629.9369,-936.6572 1655.9883,-954.0642"/><polygon fill="#000" stroke="#000" points="1654.199 -957.078 1664.458 -959.724 1658.088 -951.258 1654.199 -957.078"/><text x="1602.772" y="-929.978" fill="#000" font-family="Times,serif" font-size="14" text-anchor="middle">rely</text></g><g id="edge37" class="edge"><title>MCD_FLOP-&gt;MCD_PAUSE_PROXY</title><path fill="none" stroke="#000" d="M1536.7922,-861.278C1514.6384,-807.7941 1449.5535,-650.6653 1422.9443,-586.4248"/><polygon fill="#000" stroke="#000" points="1426.077 -584.842 1419.016 -576.942 1419.61 -587.52 1426.077 -584.842"/><text x="1490.751" y="-728.051" fill="#000" font-family="Times,serif" font-size="14" text-anchor="middle">rely</text></g><g id="edge23" class="edge"><title>MCD_VOW-&gt;MCD_CAT</title><path fill="none" stroke="#000" d="M1718.6721,-983.2151C1748.0244,-989.0536 1795.0166,-998.401 1827.8452,-1004.931"/><polygon fill="#000" stroke="#000" points="1827.475 -1008.426 1837.966 -1006.944 1828.841 -1001.56 1827.475 -1008.426"/><text x="1762.376" y="-998.273" fill="#000" font-family="Times,serif" font-size="14" text-anchor="middle">rely</text></g><g id="edge32" class="edge"><title>MCD_VOW-&gt;MCD_PAUSE_PROXY</title><path fill="none" stroke="#000" d="M1679.5013,-959.8034C1635.3343,-893.7028 1482.0233,-664.2566 1429.3452,-585.4183"/><polygon fill="#000" stroke="#000" points="1432.181 -583.362 1423.715 -576.992 1426.361 -587.251 1432.181 -583.362"/><text x="1543.54" y="-776.811" fill="#000" font-family="Times,serif" font-size="14" text-anchor="middle">rely</text></g><g id="edge26" class="edge"><title>MCD_VOW-&gt;MCD_END</title><path fill="none" stroke="#000" d="M1718.4987,-959.8034C1818.7435,-892.822 2170.0111,-658.1124 2283.4014,-582.3475"/><polygon fill="#000" stroke="#000" points="2285.4 -585.221 2291.771 -576.755 2281.511 -579.401 2285.4 -585.221"/><text x="1990.067" y="-775.275" fill="#000" font-family="Times,serif" font-size="14" text-anchor="middle">rely</text></g><g id="edge31" class="edge"><title>MCD_CAT-&gt;MCD_PAUSE_PROXY</title><path fill="none" stroke="#000" d="M1847.1262,-994.2913C1776.5429,-923.7081 1519.2744,-666.4396 1436.938,-584.1032"/><polygon fill="#000" stroke="#000" points="1439.074 -581.29 1429.528 -576.693 1434.124 -586.239 1439.074 -581.29"/><text x="1631.149" y="-793.397" fill="#000" font-family="Times,serif" font-size="14" text-anchor="middle">rely</text></g><g id="edge25" class="edge"><title>MCD_CAT-&gt;MCD_END</title><path fill="none" stroke="#000" d="M1883.2643,-994.2913C1953.8475,-923.7081 2211.116,-666.4396 2293.4524,-584.1032"/><polygon fill="#000" stroke="#000" points="2296.266 -586.239 2300.862 -576.693 2291.316 -581.29 2296.266 -586.239"/><text x="2077.475" y="-793.397" fill="#000" font-family="Times,serif" font-size="14" text-anchor="middle">rely</text></g><g id="edge35" class="edge"><title>MCD_SPOT-&gt;MCD_PAUSE_PROXY</title><path fill="none" stroke="#000" d="M1442.3187,-403.1718C1436.2648,-433.6068 1424.0724,-494.9025 1416.9428,-530.7451"/><polygon fill="#000" stroke="#000" points="1413.508 -530.071 1414.99 -540.561 1420.374 -531.436 1413.508 -530.071"/><text x="1418.748" y="-471.158" fill="#000" font-family="Times,serif" font-size="14" text-anchor="middle">rely</text></g><g id="edge28" class="edge"><title>MCD_SPOT-&gt;MCD_END</title><path fill="none" stroke="#000" d="M1474.5011,-390.5948C1603.9441,-416.3426 2135.6901,-522.1135 2281.7268,-551.162"/><polygon fill="#000" stroke="#000" points="2281.463 -554.678 2291.954 -553.196 2282.829 -547.813 2281.463 -554.678"/><text x="1888.997" y="-475.078" fill="#000" font-family="Times,serif" font-size="14" text-anchor="middle">rely</text></g><g id="node14" class="node"><title>MCD_GOV</title><polygon fill="none" stroke="#000" points="577.29 -1076.922 523.29 -1076.922 523.29 -1040.922 577.29 -1040.922 577.29 -1076.922"/><text x="550.29" y="-1054.723" fill="#000" font-family="Times,serif" font-size="14" text-anchor="middle">MKR</text></g><g id="edge14" class="edge"><title>MCD_GOV-&gt;deployer</title><path fill="none" stroke="#000" d="M562.8763,-1040.5072C574.8332,-1023.0128 592.9392,-996.5215 606.4328,-976.7789"/><polygon fill="#000" stroke="#000" points="609.332 -978.739 612.085 -968.509 603.553 -974.789 609.332 -978.739"/><text x="567.164" y="-1012.843" fill="#000" font-family="Times,serif" font-size="14" text-anchor="middle">owner</text></g><g id="node31" class="node"><title>0x2F1b834D8Bb7f469a7C75cc75873CD94EFc363AD</title><polygon fill="none" stroke="#000" points="565.722 -1293.67 238.576 -1293.67 238.576 -1257.67 565.722 -1257.67 565.722 -1293.67"/><text x="402.149" y="-1271.47" fill="#000" font-family="Times,serif" font-size="14" text-anchor="middle">0x2F1b834D8Bb7f469a7C75cc75873CD94EFc363AD</text></g><g id="edge6" class="edge"><title>MCD_GOV-&gt;0x2F1b834D8Bb7f469a7C75cc75873CD94EFc363AD</title><path fill="none" stroke="#000" d="M537.9144,-1077.0295C511.772,-1115.2791 450.8251,-1204.4517 420.2784,-1249.1452"/><polygon fill="#000" stroke="#000" points="417.347 -1247.232 414.594 -1257.463 423.126 -1251.182 417.347 -1247.232"/><text x="453.823" y="-1167.287" fill="#000" font-family="Times,serif" font-size="14" text-anchor="middle">authority</text></g><g id="node15" class="node"><title>MCD_PAUSE</title><polygon fill="none" stroke="#000" points="991.462 -576.573 925.368 -576.573 925.368 -540.573 991.462 -540.573 991.462 -576.573"/><text x="958.415" y="-554.373" fill="#000" font-family="Times,serif" font-size="14" text-anchor="middle">DSPause</text></g><g id="edge13" class="edge"><title>MCD_PAUSE-&gt;zero</title><path fill="none" stroke="#000" d="M927.0194,-576.699C916.9192,-582.5304 905.6492,-589.0371 895.2416,-595.0459"/><polygon fill="#000" stroke="#000" points="893.279 -592.138 886.369 -600.169 896.779 -598.2 893.279 -592.138"/><text x="893.64" y="-573.273" fill="#000" font-family="Times,serif" font-size="14" text-anchor="middle">owner</text></g><g id="node17" class="node"><title>MCD_ADM</title><polygon fill="none" stroke="#000" points="891.681 -519.284 826.697 -519.284 826.697 -483.284 891.681 -483.284 891.681 -519.284"/><text x="859.189" y="-497.084" fill="#000" font-family="Times,serif" font-size="14" text-anchor="middle">DSChief</text></g><g id="edge5" class="edge"><title>MCD_PAUSE-&gt;MCD_ADM</title><path fill="none" stroke="#000" d="M927.0194,-540.4464C918.1558,-535.329 908.3915,-529.6916 899.0997,-524.3269"/><polygon fill="#000" stroke="#000" points="900.791 -521.262 890.381 -519.293 897.291 -527.324 900.791 -521.262"/><text x="887.786" y="-536.587" fill="#000" font-family="Times,serif" font-size="14" text-anchor="middle">authority</text></g><g id="edge12" class="edge"><title>MCD_PAUSE_PROXY-&gt;MCD_PAUSE</title><path fill="none" stroke="#000" d="M1361.1986,-558.5727C1271.7311,-558.5727 1086.2245,-558.5727 1001.8663,-558.5727"/><polygon fill="#000" stroke="#000" points="1001.613 -555.073 991.613 -558.573 1001.613 -562.073 1001.613 -555.073"/><text x="1164.042" y="-562.773" fill="#000" font-family="Times,serif" font-size="14" text-anchor="middle">owner</text></g><g id="edge11" class="edge"><title>MCD_ADM-&gt;zero</title><path fill="none" stroke="#000" d="M859.1891,-519.4395C859.1891,-537.7928 859.1891,-566.4108 859.1891,-587.708"/><polygon fill="#000" stroke="#000" points="855.689 -587.791 859.189 -597.791 862.689 -587.791 855.689 -587.791"/><text x="841.698" y="-557.774" fill="#000" font-family="Times,serif" font-size="14" text-anchor="middle">owner</text></g><g id="edge4" class="edge"><title>MCD_ADM-&gt;MCD_ADM</title><path fill="none" stroke="#000" d="M891.7289,-508.028C901.7867,-507.8917 909.6849,-505.6439 909.6849,-501.2845 909.6849,-498.5599 906.5997,-496.6602 901.8302,-495.5852"/><polygon fill="#000" stroke="#000" points="902.036 -492.088 891.729 -494.541 901.316 -499.051 902.036 -492.088"/><text x="934.958" y="-497.084" fill="#000" font-family="Times,serif" font-size="14" text-anchor="middle">authority</text></g><g id="node18" class="node"><title>PROXY_DEPLOYER</title><polygon fill="none" stroke="#000" points="765.609 -838.743 660.548 -838.743 660.548 -802.743 765.609 -802.743 765.609 -838.743"/><text x="713.079" y="-816.543" fill="#000" font-family="Times,serif" font-size="14" text-anchor="middle">Proxy Deployer</text></g><g id="edge3" class="edge"><title>PROXY_DEPLOYER-&gt;zero</title><path fill="none" stroke="#000" d="M726.0451,-802.561C751.9308,-766.263 810.1108,-684.6806 840.2645,-642.3978"/><polygon fill="#000" stroke="#000" points="843.295 -644.176 846.252 -634.002 837.596 -640.112 843.295 -644.176"/><text x="757.881" y="-726.679" fill="#000" font-family="Times,serif" font-size="14" text-anchor="middle">authority</text></g><g id="edge10" class="edge"><title>PROXY_DEPLOYER-&gt;deployer</title><path fill="none" stroke="#000" d="M700.7603,-838.7664C685.7045,-860.7947 660.0955,-898.2638 642.7464,-923.6476"/><polygon fill="#000" stroke="#000" points="639.738 -921.846 636.985 -932.077 645.518 -925.796 639.738 -921.846"/><text x="654.262" y="-885.407" fill="#000" font-family="Times,serif" font-size="14" text-anchor="middle">owner</text></g><g id="edge38" class="edge"><title>MCD_END-&gt;MCD_PAUSE_PROXY</title><path fill="none" stroke="#000" d="M2291.821,-558.5727C2167.3291,-558.5727 1649.7417,-558.5727 1471.8018,-558.5727"/><polygon fill="#000" stroke="#000" points="1471.578 -555.073 1461.578 -558.573 1471.578 -562.073 1471.578 -555.073"/><text x="1870.928" y="-562.773" fill="#000" font-family="Times,serif" font-size="14" text-anchor="middle">rely</text></g><g id="node20" class="node"><title>MCD_ESM</title><polygon fill="none" stroke="#000" points="2444.983 -576.573 2390.983 -576.573 2390.983 -540.573 2444.983 -540.573 2444.983 -576.573"/><text x="2417.983" y="-554.373" fill="#000" font-family="Times,serif" font-size="14" text-anchor="middle">ESM</text></g><g id="edge29" class="edge"><title>MCD_END-&gt;MCD_ESM</title><path fill="none" stroke="#000" d="M2346.0351,-558.5727C2356.7301,-558.5727 2369.1989,-558.5727 2380.7233,-558.5727"/><polygon fill="#000" stroke="#000" points="2380.963 -562.073 2390.963 -558.573 2380.963 -555.073 2380.963 -562.073"/><text x="2374.262" y="-562.773" fill="#000" font-family="Times,serif" font-size="14" text-anchor="middle">rely</text></g><g id="node21" class="node"><title>SAI_TUB</title><polygon fill="none" stroke="#000" points="454.152 -571.104 397.268 -571.104 397.268 -535.104 454.152 -535.104 454.152 -571.104"/><text x="425.71" y="-548.904" fill="#000" font-family="Times,serif" font-size="14" text-anchor="middle">SaiTub</text></g><g id="edge9" class="edge"><title>SAI_TUB-&gt;zero</title><path fill="none" stroke="#000" d="M454.1517,-557.2217C530.0027,-568.203 737.1038,-598.186 822.0669,-610.4865"/><polygon fill="#000" stroke="#000" points="821.644 -613.962 832.042 -611.931 822.647 -607.034 821.644 -613.962"/><text x="620.618" y="-588.054" fill="#000" font-family="Times,serif" font-size="14" text-anchor="middle">owner</text></g><g id="node30" class="node"><title>0x6a884c7aF48e29a20be9Ff04bddE112b5596FcEE</title><polygon fill="none" stroke="#000" points="309.253 -410.303 -.084 -410.303 -.084 -374.303 309.253 -374.303 309.253 -410.303"/><text x="154.584" y="-388.103" fill="#000" font-family="Times,serif" font-size="14" text-anchor="middle">0x6a884c7aF48e29a20be9Ff04bddE112b5596FcEE</text></g><g id="edge8" class="edge"><title>SAI_TUB-&gt;0x6a884c7aF48e29a20be9Ff04bddE112b5596FcEE</title><path fill="none" stroke="#000" d="M397.462,-536.3507C348.8978,-507.548 249.4715,-448.5797 194.076,-415.7255"/><polygon fill="#000" stroke="#000" points="195.637 -412.582 185.25 -410.491 192.066 -418.603 195.637 -412.582"/><text x="270.495" y="-480.238" fill="#000" font-family="Times,serif" font-size="14" text-anchor="middle">authority</text></g><g id="node22" class="node"><title>MIGRATION</title><polygon fill="none" stroke="#000" points="1700.431 -36 1582.134 -36 1582.134 0 1700.431 0 1700.431 -36"/><text x="1641.283" y="-13.8" fill="#000" font-family="Times,serif" font-size="14" text-anchor="middle">ScdMcdMigration</text></g><g id="edge53" class="edge"><title>ETHJoin_A-&gt;MCD_PAUSE_PROXY</title><path fill="none" stroke="#000" d="M2011.8917,-157.342C1911.6469,-224.3234 1560.3793,-459.0329 1446.9891,-534.7979"/><polygon fill="#000" stroke="#000" points="1444.99 -531.924 1438.62 -540.39 1448.879 -537.744 1444.99 -531.924"/><text x="1718.557" y="-350.27" fill="#000" font-family="Times,serif" font-size="14" text-anchor="middle">rely</text></g><g id="node24" class="node"><title>Flipper_ETH-A</title><polygon fill="none" stroke="#000" points="2091.771 -995.818 1985.933 -995.818 1985.933 -959.818 2091.771 -959.818 2091.771 -995.818"/><text x="2038.852" y="-973.618" fill="#000" font-family="Times,serif" font-size="14" text-anchor="middle">Flipper_ETH-A</text></g><g id="edge40" class="edge"><title>Flipper_ETH-A-&gt;MCD_CAT</title><path fill="none" stroke="#000" d="M1985.8058,-988.3694C1958.75,-993.7512 1926.5097,-1000.1642 1902.172,-1005.0052"/><polygon fill="#000" stroke="#000" points="1901.389 -1001.592 1892.264 -1006.976 1902.754 -1008.458 1901.389 -1001.592"/><text x="1933.106" y="-1000.887" fill="#000" font-family="Times,serif" font-size="14" text-anchor="middle">rely</text></g><g id="edge42" class="edge"><title>Flipper_ETH-A-&gt;MCD_PAUSE_PROXY</title><path fill="none" stroke="#000" d="M2011.8917,-959.8034C1911.6469,-892.822 1560.3793,-658.1124 1446.9891,-582.3475"/><polygon fill="#000" stroke="#000" points="1448.879 -579.401 1438.62 -576.755 1444.99 -585.221 1448.879 -579.401"/><text x="1718.557" y="-775.275" fill="#000" font-family="Times,serif" font-size="14" text-anchor="middle">rely</text></g><g id="edge41" class="edge"><title>Flipper_ETH-A-&gt;MCD_END</title><path fill="none" stroke="#000" d="M2050.8891,-959.8034C2095.0561,-893.7028 2248.3672,-664.2566 2301.0452,-585.4183"/><polygon fill="#000" stroke="#000" points="2304.03 -587.251 2306.675 -576.992 2298.209 -583.362 2304.03 -587.251"/><text x="2165.084" y="-776.811" fill="#000" font-family="Times,serif" font-size="14" text-anchor="middle">rely</text></g><g id="edge54" class="edge"><title>BATJoin_A-&gt;MCD_PAUSE_PROXY</title><path fill="none" stroke="#000" d="M1847.1262,-122.8541C1776.5429,-193.4373 1519.2744,-450.7058 1436.938,-533.0422"/><polygon fill="#000" stroke="#000" points="1434.124 -530.906 1429.528 -540.452 1439.074 -535.856 1434.124 -530.906"/><text x="1631.149" y="-332.148" fill="#000" font-family="Times,serif" font-size="14" text-anchor="middle">rely</text></g><g id="node26" class="node"><title>Flipper_BAT-A</title><polygon fill="none" stroke="#000" points="2239.274 -897.449 2132.869 -897.449 2132.869 -861.449 2239.274 -861.449 2239.274 -897.449"/><text x="2186.072" y="-875.249" fill="#000" font-family="Times,serif" font-size="14" text-anchor="middle">Flipper_BAT-A</text></g><g id="edge44" class="edge"><title>Flipper_BAT-A-&gt;MCD_CAT</title><path fill="none" stroke="#000" d="M2142.4628,-897.5124C2078.6717,-923.9355 1961.0613,-972.6513 1901.6203,-997.2726"/><polygon fill="#000" stroke="#000" points="1900.153 -994.092 1892.253 -1001.153 1902.832 -1000.559 1900.153 -994.092"/><text x="2011.159" y="-934.793" fill="#000" font-family="Times,serif" font-size="14" text-anchor="middle">rely</text></g><g id="edge46" class="edge"><title>Flipper_BAT-A-&gt;MCD_PAUSE_PROXY</title><path fill="none" stroke="#000" d="M2142.4829,-861.394C2009.6508,-806.3732 1610.1498,-640.8944 1464.9232,-580.7396"/><polygon fill="#000" stroke="#000" points="1465.9 -577.356 1455.322 -576.763 1463.221 -583.823 1465.9 -577.356"/><text x="1792.82" y="-725.267" fill="#000" font-family="Times,serif" font-size="14" text-anchor="middle">rely</text></g><g id="edge45" class="edge"><title>Flipper_BAT-A-&gt;MCD_END</title><path fill="none" stroke="#000" d="M2193.5983,-861.278C2215.752,-807.7941 2280.8369,-650.6653 2307.4462,-586.4248"/><polygon fill="#000" stroke="#000" points="2310.781 -587.52 2311.374 -576.942 2304.314 -584.842 2310.781 -587.52"/><text x="2239.639" y="-711.251" fill="#000" font-family="Times,serif" font-size="14" text-anchor="middle">rely</text></g><g id="node27" class="node"><title>SAI</title><polygon fill="none" stroke="#000" points="177.89 -725.506 123.89 -725.506 123.89 -689.506 177.89 -689.506 177.89 -725.506"/><text x="150.89" y="-703.306" fill="#000" font-family="Times,serif" font-size="14" text-anchor="middle">SAI</text></g><g id="edge15" class="edge"><title>SAI-&gt;zero</title><path fill="none" stroke="#000" d="M178.2218,-703.9691C287.8926,-689.7792 696.1466,-636.9564 822.0062,-620.6718"/><polygon fill="#000" stroke="#000" points="822.47 -624.141 831.938 -619.387 821.572 -617.199 822.47 -624.141"/><text x="482.623" y="-666.52" fill="#000" font-family="Times,serif" font-size="14" text-anchor="middle">owner</text></g><g id="edge1" class="edge"><title>SAI-&gt;0x6a884c7aF48e29a20be9Ff04bddE112b5596FcEE</title><path fill="none" stroke="#000" d="M151.1042,-689.1966C151.7215,-636.5337 153.505,-484.3776 154.2505,-420.7758"/><polygon fill="#000" stroke="#000" points="157.751 -420.703 154.369 -410.663 150.752 -420.621 157.751 -420.703"/><text x="127.404" y="-559.186" fill="#000" font-family="Times,serif" font-size="14" text-anchor="middle">authority</text></g><g id="edge52" class="edge"><title>SAIJoin_A-&gt;MCD_PAUSE_PROXY</title><path fill="none" stroke="#000" d="M1679.5013,-157.342C1635.3343,-223.4426 1482.0233,-452.8888 1429.3452,-531.7271"/><polygon fill="#000" stroke="#000" points="1426.361 -529.894 1423.715 -540.153 1432.181 -533.783 1426.361 -529.894"/><text x="1543.54" y="-348.735" fill="#000" font-family="Times,serif" font-size="14" text-anchor="middle">rely</text></g><g id="edge51" class="edge"><title>SAIJoin_A-&gt;MIGRATION</title><path fill="none" stroke="#000" d="M1684.0144,-121.1636C1675.7245,-101.15 1662.2974,-68.7341 1652.707,-45.5807"/><polygon fill="#000" stroke="#000" points="1655.918 -44.188 1648.858 -36.288 1649.451 -46.866 1655.918 -44.188"/><text x="1657.478" y="-87.572" fill="#000" font-family="Times,serif" font-size="14" text-anchor="middle">rely</text></g><g id="node29" class="node"><title>Flipper_SAI-A</title><polygon fill="none" stroke="#000" points="2334.697 -750.23 2234.184 -750.23 2234.184 -714.23 2334.697 -714.23 2334.697 -750.23"/><text x="2284.44" y="-728.03" fill="#000" font-family="Times,serif" font-size="14" text-anchor="middle">Flipper_SAI-A</text></g><g id="edge48" class="edge"><title>Flipper_SAI-A-&gt;MCD_CAT</title><path fill="none" stroke="#000" d="M2257.2555,-750.394C2184.0758,-799.2912 1982.9192,-933.6997 1900.808,-988.5647"/><polygon fill="#000" stroke="#000" points="1898.689 -985.771 1892.318 -994.237 1902.578 -991.592 1898.689 -985.771"/><text x="2068.149" y="-873.679" fill="#000" font-family="Times,serif" font-size="14" text-anchor="middle">rely</text></g><g id="edge50" class="edge"><title>Flipper_SAI-A-&gt;MCD_PAUSE_PROXY</title><path fill="none" stroke="#000" d="M2234.0482,-722.2061C2082.9755,-692.1559 1634.2451,-602.8978 1471.347,-570.4954"/><polygon fill="#000" stroke="#000" points="1471.987 -567.054 1461.496 -568.536 1470.621 -573.92 1471.987 -567.054"/><text x="1841.815" y="-650.551" fill="#000" font-family="Times,serif" font-size="14" text-anchor="middle">rely</text></g><g id="edge49" class="edge"><title>Flipper_SAI-A-&gt;MCD_END</title><path fill="none" stroke="#000" d="M2288.0717,-713.9736C2294.1256,-683.5386 2306.3181,-622.2429 2313.4476,-586.4003"/><polygon fill="#000" stroke="#000" points="2316.882 -587.075 2315.4 -576.584 2310.016 -585.709 2316.882 -587.075"/><text x="2289.877" y="-654.387" fill="#000" font-family="Times,serif" font-size="14" text-anchor="middle">rely</text></g><g id="node33" class="node"><title>isolated</title><polygon fill="none" stroke="#000" points="2429.833 -1413.273 1824.696 -1413.273 1824.696 -1253.873 2429.833 -1253.873 2429.833 -1413.273"/><text x="2127.264" y="-1396.573" fill="#000" font-family="Times,serif" font-size="14" text-anchor="middle">Isolated Contracts:</text><text x="2127.264" y="-1379.773" fill="#000" font-family="Times,serif" font-size="14" text-anchor="middle">MULTICALL, FAUCET, PROXY_ACTIONS, PROXY_ACTIONS_END, PROXY_ACTIONS_DSR,</text><text x="2127.264" y="-1362.973" fill="#000" font-family="Times,serif" font-size="14" text-anchor="middle">CDP_MANAGER, GET_CDPS, PROXY_FACTORY, PROXY_REGISTRY,</text><text x="2127.264" y="-1346.173" fill="#000" font-family="Times,serif" font-size="14" text-anchor="middle">PROXY_PAUSE_ACTIONS, MCD_GOV_ACTIONS, MIGRATION_PROXY_ACTIONS, ETH,</text><text x="2127.264" y="-1329.373" fill="#000" font-family="Times,serif" font-size="14" text-anchor="middle">PIP_ETH, BAT, PIP_BAT, PIP_SAI,</text><text x="2127.264" y="-1312.573" fill="#000" font-family="Times,serif" font-size="14" text-anchor="middle">vatFab, jugFab, vowFab, catFab,</text><text x="2127.264" y="-1295.773" fill="#000" font-family="Times,serif" font-size="14" text-anchor="middle">daiFab, daiJoinFab, flapFab, flopFab,</text><text x="2127.264" y="-1278.973" fill="#000" font-family="Times,serif" font-size="14" text-anchor="middle">flipFab, spotFab, potFab, pauseFab,</text><text x="2127.264" y="-1262.173" fill="#000" font-family="Times,serif" font-size="14" text-anchor="middle">0x2bd0df3a3fe867b05f9bb807cbb0c938e6e24648</text></g></g></svg>