<svg xmlns="http://www.w3.org/2000/svg" xmlns:xlink="http://www.w3.org/1999/xlink" width="4132" height="2216pt" viewBox="0 0 3098.69 2215.81"><g id="graph0" class="graph" transform="scale(1 1) rotate(0) translate(4 2211.8075)"><title>%0</title><polygon fill="#fff" stroke="transparent" points="-4 4 -4 -2211.807 3094.687 -2211.807 3094.687 4 -4 4"/><g id="node1" class="node"><title>zero</title><polygon fill="none" stroke="#000" points="541.664 -706.48 487.664 -706.48 487.664 -670.48 541.664 -670.48 541.664 -706.48"/><text x="514.664" y="-684.279" fill="#000" font-family="Times,serif" font-size="14" text-anchor="middle">zero</text></g><g id="node2" class="node"><title>deployer</title><polygon fill="none" stroke="#000" points="1134.779 -2125.155 1069.818 -2125.155 1069.818 -2089.155 1134.779 -2089.155 1134.779 -2125.155"/><text x="1102.299" y="-2102.955" fill="#000" font-family="Times,serif" font-size="14" text-anchor="middle">deployer</text></g><g id="node3" class="node"><title>MCD_DEPLOY</title><polygon fill="none" stroke="#000" points="451.225 -663.962 372.81 -663.962 372.81 -627.962 451.225 -627.962 451.225 -663.962"/><text x="412.017" y="-641.762" fill="#000" font-family="Times,serif" font-size="14" text-anchor="middle">DssDeploy</text></g><g id="edge13" class="edge"><title>MCD_DEPLOY-&gt;zero</title><path fill="none" stroke="#000" d="M451.4098,-662.2787C460.2004,-665.9199 469.4853,-669.7658 478.1537,-673.3564"/><polygon fill="#000" stroke="#000" points="477.041 -676.684 487.619 -677.277 479.72 -670.217 477.041 -676.684"/><text x="447.291" y="-672.018" fill="#000" font-family="Times,serif" font-size="14" text-anchor="middle">owner</text></g><g id="node42" class="node"><title>0x276Fb22a5af7fD8800cB6C1c79EAbFb02a3bAA56</title><polygon fill="none" stroke="#000" points="321.418 -559.907 .194 -559.907 .194 -523.907 321.418 -523.907 321.418 -559.907"/><text x="160.806" y="-537.707" fill="#000" font-family="Times,serif" font-size="14" text-anchor="middle">0x276Fb22a5af7fD8800cB6C1c79EAbFb02a3bAA56</text></g><g id="edge15" class="edge"><title>MCD_DEPLOY-&gt;0x276Fb22a5af7fD8800cB6C1c79EAbFb02a3bAA56</title><path fill="none" stroke="#000" d="M372.7657,-629.7032C330.0334,-612.003 261.456,-583.5972 213.9281,-563.9106"/><polygon fill="#000" stroke="#000" points="214.998 -560.566 204.42 -559.972 212.32 -567.033 214.998 -560.566"/><text x="268.073" y="-601.007" fill="#000" font-family="Times,serif" font-size="14" text-anchor="middle">authority</text></g><g id="node4" class="node"><title>MCD_VAT</title><polygon fill="none" stroke="#000" points="2630.627 -1122 2576.627 -1122 2576.627 -1086 2630.627 -1086 2630.627 -1122"/><text x="2603.627" y="-1099.8" fill="#000" font-family="Times,serif" font-size="14" text-anchor="middle">Vat</text></g><g id="node5" class="node"><title>MCD_JUG</title><polygon fill="none" stroke="#000" points="2547.975 -706.48 2493.975 -706.48 2493.975 -670.48 2547.975 -670.48 2547.975 -706.48"/><text x="2520.975" y="-684.279" fill="#000" font-family="Times,serif" font-size="14" text-anchor="middle">Jug</text></g><g id="edge30" class="edge"><title>MCD_VAT-&gt;MCD_JUG</title><path fill="none" stroke="#000" d="M2600.0222,-1085.8784C2587.0246,-1020.5351 2542.4976,-796.6828 2526.6394,-716.9579"/><polygon fill="#000" stroke="#000" points="2529.982 -715.822 2524.598 -706.697 2523.117 -717.187 2529.982 -715.822"/><text x="2552.448" y="-905.618" fill="#000" font-family="Times,serif" font-size="14" text-anchor="middle">rely</text></g><g id="node6" class="node"><title>MCD_POT</title><polygon fill="none" stroke="#000" points="2447.635 -518.758 2393.635 -518.758 2393.635 -482.758 2447.635 -482.758 2447.635 -518.758"/><text x="2420.635" y="-496.558" fill="#000" font-family="Times,serif" font-size="14" text-anchor="middle">Pot</text></g><g id="edge31" class="edge"><title>MCD_VAT-&gt;MCD_POT</title><path fill="none" stroke="#000" d="M2598.1503,-1085.9462C2572.1345,-1000.1837 2460.9775,-633.7481 2429.1696,-528.8916"/><polygon fill="#000" stroke="#000" points="2432.432 -527.589 2426.18 -519.036 2425.733 -529.621 2432.432 -527.589"/><text x="2502.777" y="-811.619" fill="#000" font-family="Times,serif" font-size="14" text-anchor="middle">rely</text></g><g id="node9" class="node"><title>MCD_VOW</title><polygon fill="none" stroke="#000" points="2447.635 -1725.242 2393.635 -1725.242 2393.635 -1689.242 2447.635 -1689.242 2447.635 -1725.242"/><text x="2420.635" y="-1703.042" fill="#000" font-family="Times,serif" font-size="14" text-anchor="middle">Vow</text></g><g id="edge29" class="edge"><title>MCD_VAT-&gt;MCD_VOW</title><path fill="none" stroke="#000" d="M2598.1503,-1122.0538C2572.1345,-1207.8163 2460.9775,-1574.2519 2429.1696,-1679.1084"/><polygon fill="#000" stroke="#000" points="2425.733 -1678.379 2426.18 -1688.964 2432.432 -1680.411 2425.733 -1678.379"/><text x="2502.777" y="-1404.781" fill="#000" font-family="Times,serif" font-size="14" text-anchor="middle">rely</text></g><g id="node10" class="node"><title>MCD_CAT</title><polygon fill="none" stroke="#000" points="2609.763 -1333.831 2555.763 -1333.831 2555.763 -1297.831 2609.763 -1297.831 2609.763 -1333.831"/><text x="2582.763" y="-1311.63" fill="#000" font-family="Times,serif" font-size="14" text-anchor="middle">Cat</text></g><g id="edge34" class="edge"><title>MCD_VAT-&gt;MCD_CAT</title><path fill="none" stroke="#000" d="M2601.848,-1122.0606C2598.2066,-1159.0328 2589.8801,-1243.573 2585.5282,-1287.7584"/><polygon fill="#000" stroke="#000" points="2582.035 -1287.521 2584.538 -1297.816 2589.001 -1288.207 2582.035 -1287.521"/><text x="2582.805" y="-1209.11" fill="#000" font-family="Times,serif" font-size="14" text-anchor="middle">rely</text></g><g id="node11" class="node"><title>MCD_SPOT</title><polygon fill="none" stroke="#000" points="2611.204 -910.169 2554.323 -910.169 2554.323 -874.169 2611.204 -874.169 2611.204 -910.169"/><text x="2582.763" y="-887.97" fill="#000" font-family="Times,serif" font-size="14" text-anchor="middle">Spotter</text></g><g id="edge28" class="edge"><title>MCD_VAT-&gt;MCD_SPOT</title><path fill="none" stroke="#000" d="M2601.848,-1085.9394C2598.2066,-1048.9672 2589.8801,-964.427 2585.5282,-920.2416"/><polygon fill="#000" stroke="#000" points="2589.001 -919.793 2584.538 -910.184 2582.035 -920.479 2589.001 -919.793"/><text x="2582.805" y="-1007.29" fill="#000" font-family="Times,serif" font-size="14" text-anchor="middle">rely</text></g><g id="node14" class="node"><title>MCD_PAUSE_PROXY</title><polygon fill="none" stroke="#000" points="2335.59 -354.218 2235.612 -354.218 2235.612 -318.218 2335.59 -318.218 2335.59 -354.218"/><text x="2285.601" y="-332.018" fill="#000" font-family="Times,serif" font-size="14" text-anchor="middle">DSPauseProxy</text></g><g id="edge39" class="edge"><title>MCD_VAT-&gt;MCD_PAUSE_PROXY</title><path fill="none" stroke="#000" d="M2596.0792,-1085.7783C2553.9478,-984.0643 2347.9189,-486.6665 2296.998,-363.7325"/><polygon fill="#000" stroke="#000" points="2300.139 -362.169 2293.078 -354.27 2293.672 -364.848 2300.139 -362.169"/><text x="2435.656" y="-728.955" fill="#000" font-family="Times,serif" font-size="14" text-anchor="middle">rely</text></g><g id="node19" class="node"><title>MCD_END</title><polygon fill="none" stroke="#000" points="777.038 -354.218 723.038 -354.218 723.038 -318.218 777.038 -318.218 777.038 -354.218"/><text x="750.038" y="-332.018" fill="#000" font-family="Times,serif" font-size="14" text-anchor="middle">End</text></g><g id="edge36" class="edge"><title>MCD_VAT-&gt;MCD_END</title><path fill="none" stroke="#000" d="M2576.3487,-1092.701C2367.665,-1006.2614 1025.7358,-450.4161 786.4993,-351.3211"/><polygon fill="#000" stroke="#000" points="787.771 -348.059 777.192 -347.466 785.092 -354.527 787.771 -348.059"/><text x="1670.541" y="-726.211" fill="#000" font-family="Times,serif" font-size="14" text-anchor="middle">rely</text></g><g id="node21" class="node"><title>ETHJoin_A</title><polygon fill="none" stroke="#000" points="2633.485 -578.884 2550.176 -578.884 2550.176 -542.884 2633.485 -542.884 2633.485 -578.884"/><text x="2591.831" y="-556.684" fill="#000" font-family="Times,serif" font-size="14" text-anchor="middle">ETHJoin_A</text></g><g id="edge48" class="edge"><title>MCD_VAT-&gt;ETHJoin_A</title><path fill="none" stroke="#000" d="M2603.2343,-1085.9296C2601.506,-1006.3532 2594.5653,-686.7945 2592.4474,-589.2806"/><polygon fill="#000" stroke="#000" points="2595.941 -588.944 2592.225 -579.022 2588.943 -589.096 2595.941 -588.944"/><text x="2586.958" y="-841.805" fill="#000" font-family="Times,serif" font-size="14" text-anchor="middle">rely</text></g><g id="node23" class="node"><title>ETHJoin_B</title><polygon fill="none" stroke="#000" points="2694.163 -721.573 2611.395 -721.573 2611.395 -685.573 2694.163 -685.573 2694.163 -721.573"/><text x="2652.779" y="-699.373" fill="#000" font-family="Times,serif" font-size="14" text-anchor="middle">ETHJoin_B</text></g><g id="edge51" class="edge"><title>MCD_VAT-&gt;ETHJoin_B</title><path fill="none" stroke="#000" d="M2605.8665,-1085.754C2613.687,-1022.0432 2639.8179,-809.1638 2649.3021,-731.8989"/><polygon fill="#000" stroke="#000" points="2652.782 -732.278 2650.526 -721.926 2645.834 -731.425 2652.782 -732.278"/><text x="2638.467" y="-913.026" fill="#000" font-family="Times,serif" font-size="14" text-anchor="middle">rely</text></g><g id="node25" class="node"><title>ETHJoin_C</title><polygon fill="none" stroke="#000" points="2736.167 -870.541 2653.399 -870.541 2653.399 -834.541 2736.167 -834.541 2736.167 -870.541"/><text x="2694.783" y="-848.341" fill="#000" font-family="Times,serif" font-size="14" text-anchor="middle">ETHJoin_C</text></g><g id="edge54" class="edge"><title>MCD_VAT-&gt;ETHJoin_C</title><path fill="none" stroke="#000" d="M2610.1826,-1085.9157C2625.9121,-1042.5249 2665.8804,-932.2706 2684.6966,-880.3653"/><polygon fill="#000" stroke="#000" points="2688.047 -881.394 2688.164 -870.799 2681.466 -879.008 2688.047 -881.394"/><text x="2636.557" y="-987.341" fill="#000" font-family="Times,serif" font-size="14" text-anchor="middle">rely</text></g><g id="node28" class="node"><title>COL1Join_A</title><polygon fill="none" stroke="#000" points="2763.602 -1027.931 2671.725 -1027.931 2671.725 -991.931 2763.602 -991.931 2763.602 -1027.931"/><text x="2717.664" y="-1005.731" fill="#000" font-family="Times,serif" font-size="14" text-anchor="middle">COL1Join_A</text></g><g id="edge57" class="edge"><title>MCD_VAT-&gt;COL1Join_A</title><path fill="none" stroke="#000" d="M2625.6143,-1085.8626C2643.3624,-1071.2223 2668.5036,-1050.4833 2688.0277,-1034.3779"/><polygon fill="#000" stroke="#000" points="2690.257 -1037.076 2695.744 -1028.013 2685.802 -1031.676 2690.257 -1037.076"/><text x="2645.938" y="-1064.32" fill="#000" font-family="Times,serif" font-size="14" text-anchor="middle">rely</text></g><g id="node31" class="node"><title>COL2Join_A</title><polygon fill="none" stroke="#000" points="2765.291 -1191.235 2673.414 -1191.235 2673.414 -1155.235 2765.291 -1155.235 2765.291 -1191.235"/><text x="2719.353" y="-1169.035" fill="#000" font-family="Times,serif" font-size="14" text-anchor="middle">COL2Join_A</text></g><g id="edge60" class="edge"><title>MCD_VAT-&gt;COL2Join_A</title><path fill="none" stroke="#000" d="M2630.7594,-1120.2324C2645.5278,-1129.0679 2664.0588,-1140.1543 2680.3502,-1149.9008"/><polygon fill="#000" stroke="#000" points="2678.754 -1153.024 2689.132 -1155.155 2682.348 -1147.017 2678.754 -1153.024"/><text x="2644.672" y="-1139.267" fill="#000" font-family="Times,serif" font-size="14" text-anchor="middle">rely</text></g><g id="node34" class="node"><title>COL3Join_A</title><polygon fill="none" stroke="#000" points="2744.856 -1353.263 2652.979 -1353.263 2652.979 -1317.263 2744.856 -1317.263 2744.856 -1353.263"/><text x="2698.918" y="-1331.063" fill="#000" font-family="Times,serif" font-size="14" text-anchor="middle">COL3Join_A</text></g><g id="edge63" class="edge"><title>MCD_VAT-&gt;COL3Join_A</title><path fill="none" stroke="#000" d="M2611.1041,-1122.1468C2627.7344,-1162.5072 2667.8685,-1259.9096 2687.5918,-1307.7765"/><polygon fill="#000" stroke="#000" points="2684.429 -1309.288 2691.475 -1317.2 2690.901 -1306.621 2684.429 -1309.288"/><text x="2638.465" y="-1219.162" fill="#000" font-family="Times,serif" font-size="14" text-anchor="middle">rely</text></g><g id="node37" class="node"><title>COL4Join_A</title><polygon fill="none" stroke="#000" points="2702.673 -1511.033 2610.796 -1511.033 2610.796 -1475.033 2702.673 -1475.033 2702.673 -1511.033"/><text x="2656.735" y="-1488.833" fill="#000" font-family="Times,serif" font-size="14" text-anchor="middle">COL4Join_A</text></g><g id="edge66" class="edge"><title>MCD_VAT-&gt;COL4Join_A</title><path fill="none" stroke="#000" d="M2606.1171,-1122.2421C2614.6196,-1184.5253 2642.5443,-1389.083 2652.8602,-1464.6497"/><polygon fill="#000" stroke="#000" points="2649.43 -1465.396 2654.25 -1474.831 2656.365 -1464.449 2649.43 -1465.396"/><text x="2618.606" y="-1280.846" fill="#000" font-family="Times,serif" font-size="14" text-anchor="middle">rely</text></g><g id="node40" class="node"><title>COL5Join_A</title><polygon fill="none" stroke="#000" points="2639.52 -1661.64 2547.643 -1661.64 2547.643 -1625.64 2639.52 -1625.64 2639.52 -1661.64"/><text x="2593.581" y="-1639.44" fill="#000" font-family="Times,serif" font-size="14" text-anchor="middle">COL5Join_A</text></g><g id="edge69" class="edge"><title>MCD_VAT-&gt;COL5Join_A</title><path fill="none" stroke="#000" d="M2603.2868,-1122.264C2601.8068,-1201.7735 2595.9186,-1518.0838 2594.1115,-1615.16"/><polygon fill="#000" stroke="#000" points="2590.608 -1615.317 2593.921 -1625.381 2597.607 -1615.448 2590.608 -1615.317"/><text x="2587.816" y="-1372.912" fill="#000" font-family="Times,serif" font-size="14" text-anchor="middle">rely</text></g><g id="edge42" class="edge"><title>MCD_JUG-&gt;MCD_PAUSE_PROXY</title><path fill="none" stroke="#000" d="M2508.6514,-670.0363C2469.7255,-611.7797 2349.2775,-431.5166 2303.5024,-363.0092"/><polygon fill="#000" stroke="#000" points="2306.268 -360.849 2297.802 -354.479 2300.448 -364.738 2306.268 -360.849"/><text x="2395.194" y="-520.723" fill="#000" font-family="Times,serif" font-size="14" text-anchor="middle">rely</text></g><g id="edge43" class="edge"><title>MCD_POT-&gt;MCD_PAUSE_PROXY</title><path fill="none" stroke="#000" d="M2405.6683,-482.5204C2381.6765,-453.2863 2334.5167,-395.8219 2306.9811,-362.2697"/><polygon fill="#000" stroke="#000" points="2309.479 -359.796 2300.429 -354.286 2304.068 -364.237 2309.479 -359.796"/><text x="2345.442" y="-426.595" fill="#000" font-family="Times,serif" font-size="14" text-anchor="middle">rely</text></g><g id="node7" class="node"><title>MCD_FLAP</title><polygon fill="none" stroke="#000" points="2550.238 -1537.521 2491.711 -1537.521 2491.711 -1501.521 2550.238 -1501.521 2550.238 -1537.521"/><text x="2520.975" y="-1515.321" fill="#000" font-family="Times,serif" font-size="14" text-anchor="middle">Flapper</text></g><g id="edge32" class="edge"><title>MCD_FLAP-&gt;MCD_VOW</title><path fill="none" stroke="#000" d="M2511.171,-1537.8619C2493.4416,-1571.0312 2455.9687,-1641.1381 2435.2228,-1679.951"/><polygon fill="#000" stroke="#000" points="2431.958 -1678.634 2430.331 -1689.103 2438.132 -1681.934 2431.958 -1678.634"/><text x="2462.314" y="-1613.106" fill="#000" font-family="Times,serif" font-size="14" text-anchor="middle">rely</text></g><g id="edge45" class="edge"><title>MCD_FLAP-&gt;MCD_PAUSE_PROXY</title><path fill="none" stroke="#000" d="M2517.3717,-1501.4072C2490.6871,-1367.2546 2323.8953,-528.7355 2291.1693,-364.2109"/><polygon fill="#000" stroke="#000" points="2294.594 -363.488 2289.211 -354.363 2287.729 -364.854 2294.594 -363.488"/><text x="2393.388" y="-937.009" fill="#000" font-family="Times,serif" font-size="14" text-anchor="middle">rely</text></g><g id="node8" class="node"><title>MCD_FLOP</title><polygon fill="none" stroke="#000" points="2315.151 -1889.782 2256.051 -1889.782 2256.051 -1853.782 2315.151 -1853.782 2315.151 -1889.782"/><text x="2285.601" y="-1867.582" fill="#000" font-family="Times,serif" font-size="14" text-anchor="middle">Flopper</text></g><g id="edge33" class="edge"><title>MCD_FLOP-&gt;MCD_VOW</title><path fill="none" stroke="#000" d="M2300.5681,-1853.5446C2324.5599,-1824.3105 2371.7198,-1766.846 2399.2554,-1733.2938"/><polygon fill="#000" stroke="#000" points="2402.169 -1735.261 2405.807 -1725.311 2396.758 -1730.82 2402.169 -1735.261"/><text x="2339.029" y="-1797.619" fill="#000" font-family="Times,serif" font-size="14" text-anchor="middle">rely</text></g><g id="edge46" class="edge"><title>MCD_FLOP-&gt;MCD_PAUSE_PROXY</title><path fill="none" stroke="#000" d="M2285.6012,-1853.7373C2285.6012,-1696.4398 2285.6012,-559.2001 2285.6012,-364.5322"/><polygon fill="#000" stroke="#000" points="2289.101 -364.275 2285.601 -354.275 2282.101 -364.275 2289.101 -364.275"/><text x="2274.718" y="-1113.335" fill="#000" font-family="Times,serif" font-size="14" text-anchor="middle">rely</text></g><g id="edge35" class="edge"><title>MCD_VOW-&gt;MCD_CAT</title><path fill="none" stroke="#000" d="M2428.1299,-1689.1487C2454.0562,-1626.5571 2540.0548,-1418.9382 2571.2949,-1343.5178"/><polygon fill="#000" stroke="#000" points="2574.568 -1344.762 2575.161 -1334.184 2568.101 -1342.083 2574.568 -1344.762"/><text x="2488.829" y="-1503.733" fill="#000" font-family="Times,serif" font-size="14" text-anchor="middle">rely</text></g><g id="edge41" class="edge"><title>MCD_VOW-&gt;MCD_PAUSE_PROXY</title><path fill="none" stroke="#000" d="M2418.8536,-1689.1528C2404.3894,-1542.2955 2306.2868,-546.2426 2288.3979,-364.6138"/><polygon fill="#000" stroke="#000" points="2291.867 -364.125 2287.403 -354.517 2284.901 -364.811 2291.867 -364.125"/><text x="2342.743" y="-1031.083" fill="#000" font-family="Times,serif" font-size="14" text-anchor="middle">rely</text></g><g id="edge38" class="edge"><title>MCD_VOW-&gt;MCD_END</title><path fill="none" stroke="#000" d="M2398.5931,-1689.1528C2218.3038,-1541.1932 987.6744,-531.2417 779.8227,-360.6622"/><polygon fill="#000" stroke="#000" points="781.995 -357.918 772.045 -354.279 777.554 -363.329 781.995 -357.918"/><text x="1578.325" y="-1029.108" fill="#000" font-family="Times,serif" font-size="14" text-anchor="middle">rely</text></g><g id="edge40" class="edge"><title>MCD_CAT-&gt;MCD_PAUSE_PROXY</title><path fill="none" stroke="#000" d="M2577.2229,-1297.5661C2541.0241,-1178.2349 2338.3366,-510.0635 2294.1202,-364.3015"/><polygon fill="#000" stroke="#000" points="2297.356 -362.91 2291.103 -354.357 2290.657 -364.942 2297.356 -362.91"/><text x="2424.789" y="-835.134" fill="#000" font-family="Times,serif" font-size="14" text-anchor="middle">rely</text></g><g id="edge37" class="edge"><title>MCD_CAT-&gt;MCD_END</title><path fill="none" stroke="#000" d="M2555.4334,-1301.2224C2347.9206,-1190.3045 1022.4493,-481.8253 786.0764,-355.4814"/><polygon fill="#000" stroke="#000" points="787.66 -352.359 777.191 -350.732 784.361 -358.533 787.66 -352.359"/><text x="1659.872" y="-832.552" fill="#000" font-family="Times,serif" font-size="14" text-anchor="middle">rely</text></g><g id="edge44" class="edge"><title>MCD_SPOT-&gt;MCD_PAUSE_PROXY</title><path fill="none" stroke="#000" d="M2573.0452,-873.9881C2529.4835,-792.4899 2352.0646,-460.5624 2300.018,-363.1901"/><polygon fill="#000" stroke="#000" points="2303.046 -361.43 2295.245 -354.261 2296.872 -364.73 2303.046 -361.43"/><text x="2425.649" y="-622.789" fill="#000" font-family="Times,serif" font-size="14" text-anchor="middle">rely</text></g><g id="node12" class="node"><title>MCD_GOV</title><polygon fill="none" stroke="#000" points="1332.989 -2186.944 1278.989 -2186.944 1278.989 -2150.944 1332.989 -2150.944 1332.989 -2186.944"/><text x="1305.989" y="-2164.744" fill="#000" font-family="Times,serif" font-size="14" text-anchor="middle">MKR</text></g><g id="edge12" class="edge"><title>MCD_GOV-&gt;deployer</title><path fill="none" stroke="#000" d="M1278.9404,-2160.7389C1244.6217,-2150.3285 1185.0496,-2132.2575 1144.6732,-2120.0094"/><polygon fill="#000" stroke="#000" points="1145.434 -2116.583 1134.849 -2117.029 1143.402 -2123.281 1145.434 -2116.583"/><text x="1194.316" y="-2144.574" fill="#000" font-family="Times,serif" font-size="14" text-anchor="middle">owner</text></g><g id="edge47" class="edge"><title>MCD_GOV-&gt;MCD_FLOP</title><path fill="none" stroke="#000" d="M1333.2117,-2160.686C1470.1724,-2119.1394 2083.7059,-1933.0261 2246.073,-1883.7726"/><polygon fill="#000" stroke="#000" points="2247.116 -1887.114 2255.67 -1880.861 2245.084 -1880.415 2247.116 -1887.114"/><text x="1756.203" y="-2026.429" fill="#000" font-family="Times,serif" font-size="14" text-anchor="middle">permit-mint</text></g><g id="node15" class="node"><title>MCD_GOV_GUARD</title><polygon fill="none" stroke="#000" points="1556.909 -2207.807 1478.73 -2207.807 1478.73 -2171.807 1556.909 -2171.807 1556.909 -2207.807"/><text x="1517.819" y="-2185.608" fill="#000" font-family="Times,serif" font-size="14" text-anchor="middle">Gov Guard</text></g><g id="edge16" class="edge"><title>MCD_GOV-&gt;MCD_GOV_GUARD</title><path fill="none" stroke="#000" d="M1333.2483,-2171.6288C1367.3144,-2174.984 1426.2507,-2180.7888 1468.3621,-2184.9364"/><polygon fill="#000" stroke="#000" points="1468.117 -2188.429 1478.412 -2185.926 1468.803 -2181.463 1468.117 -2188.429"/><text x="1375.532" y="-2182.483" fill="#000" font-family="Times,serif" font-size="14" text-anchor="middle">authority</text></g><g id="node13" class="node"><title>MCD_PAUSE</title><polygon fill="none" stroke="#000" points="2154.109 -2024.816 2088.015 -2024.816 2088.015 -1988.816 2154.109 -1988.816 2154.109 -2024.816"/><text x="2121.062" y="-2002.616" fill="#000" font-family="Times,serif" font-size="14" text-anchor="middle">DSPause</text></g><g id="edge11" class="edge"><title>MCD_PAUSE-&gt;zero</title><path fill="none" stroke="#000" d="M2098.9644,-1988.6812C1922.7842,-1844.0938 747.3701,-879.4564 544.4695,-712.9401"/><polygon fill="#000" stroke="#000" points="546.548 -710.119 536.598 -706.48 542.108 -715.53 546.548 -710.119"/><text x="1304.226" y="-1355.011" fill="#000" font-family="Times,serif" font-size="14" text-anchor="middle">owner</text></g><g id="node17" class="node"><title>MCD_ADM</title><polygon fill="none" stroke="#000" points="1965.832 -2125.155 1900.848 -2125.155 1900.848 -2089.155 1965.832 -2089.155 1965.832 -2125.155"/><text x="1933.34" y="-2102.955" fill="#000" font-family="Times,serif" font-size="14" text-anchor="middle">DSChief</text></g><g id="edge17" class="edge"><title>MCD_PAUSE-&gt;MCD_ADM</title><path fill="none" stroke="#000" d="M2087.9329,-2024.5236C2056.5682,-2041.2884 2009.3475,-2066.5284 1975.3513,-2084.6997"/><polygon fill="#000" stroke="#000" points="1973.307 -2081.824 1966.138 -2089.625 1976.607 -2087.997 1973.307 -2081.824"/><text x="2006.369" y="-2058.812" fill="#000" font-family="Times,serif" font-size="14" text-anchor="middle">authority</text></g><g id="edge10" class="edge"><title>MCD_PAUSE_PROXY-&gt;MCD_PAUSE</title><path fill="none" stroke="#000" d="M2283.8094,-354.4104C2267.4457,-520.5539 2144.0579,-1773.3316 2123.8556,-1978.4482"/><polygon fill="#000" stroke="#000" points="2120.344 -1978.398 2122.847 -1988.693 2127.31 -1979.084 2120.344 -1978.398"/><text x="2186.342" y="-1170.629" fill="#000" font-family="Times,serif" font-size="14" text-anchor="middle">owner</text></g><g id="edge9" class="edge"><title>MCD_GOV_GUARD-&gt;zero</title><path fill="none" stroke="#000" d="M1507.7056,-2171.8029C1411.8702,-2016.246 667.1313,-901.4243 534.7212,-714.9051"/><polygon fill="#000" stroke="#000" points="537.375 -712.599 528.714 -706.496 531.679 -716.668 537.375 -712.599"/><text x="1003.722" y="-1430.754" fill="#000" font-family="Times,serif" font-size="14" text-anchor="middle">owner</text></g><g id="edge18" class="edge"><title>MCD_GOV_GUARD-&gt;zero</title><path fill="none" stroke="#000" d="M1503.744,-2171.7551C1391.8034,-2016.24 648.9041,-904.5769 530.5146,-715.7072"/><polygon fill="#000" stroke="#000" points="533.314 -713.581 525.059 -706.94 527.371 -717.279 533.314 -713.581"/><text x="991.856" y="-1447.931" fill="#000" font-family="Times,serif" font-size="14" text-anchor="middle">authority</text></g><g id="node16" class="node"><title>MCD_IOU</title><polygon fill="none" stroke="#000" points="1756.65 -2186.944 1702.65 -2186.944 1702.65 -2150.944 1756.65 -2150.944 1756.65 -2186.944"/><text x="1729.65" y="-2164.744" fill="#000" font-family="Times,serif" font-size="14" text-anchor="middle">IOU</text></g><g id="edge8" class="edge"><title>MCD_IOU-&gt;zero</title><path fill="none" stroke="#000" d="M1714.7263,-2150.7596C1587.5773,-1995.8281 687.194,-898.7079 536.1419,-714.6503"/><polygon fill="#000" stroke="#000" points="538.763 -712.327 529.714 -706.817 533.352 -716.768 538.763 -712.327"/><text x="1107.943" y="-1436.905" fill="#000" font-family="Times,serif" font-size="14" text-anchor="middle">owner</text></g><g id="edge19" class="edge"><title>MCD_IOU-&gt;MCD_GOV_GUARD</title><path fill="none" stroke="#000" d="M1702.3904,-2171.6288C1668.3243,-2174.984 1609.388,-2180.7888 1567.2766,-2184.9364"/><polygon fill="#000" stroke="#000" points="1566.835 -2181.463 1557.227 -2185.926 1567.522 -2188.429 1566.835 -2181.463"/><text x="1609.56" y="-2182.483" fill="#000" font-family="Times,serif" font-size="14" text-anchor="middle">authority</text></g><g id="edge72" class="edge"><title>MCD_IOU-&gt;MCD_ADM</title><path fill="none" stroke="#000" d="M1756.8039,-2165.5904C1791.2208,-2157.6452 1850.8862,-2139.8896 1891.2277,-2125.8444"/><polygon fill="#000" stroke="#000" points="1892.533 -2129.095 1900.787 -2122.453 1890.193 -2122.498 1892.533 -2129.095"/><text x="1790.576" y="-2149.917" fill="#000" font-family="Times,serif" font-size="14" text-anchor="middle">permit-mint</text></g><g id="edge73" class="edge"><title>MCD_IOU-&gt;MCD_ADM</title><path fill="none" stroke="#000" d="M1756.9871,-2155.5592C1791.3106,-2142.7877 1850.5382,-2124.5904 1890.8011,-2114.2747"/><polygon fill="#000" stroke="#000" points="1891.746 -2117.646 1900.602 -2111.83 1890.052 -2110.854 1891.746 -2117.646"/><text x="1790.46" y="-2122.317" fill="#000" font-family="Times,serif" font-size="14" text-anchor="middle">permit-burn</text></g><g id="edge7" class="edge"><title>MCD_ADM-&gt;zero</title><path fill="none" stroke="#000" d="M1915.144,-2088.9594C1763.9985,-1937.8139 717.8421,-891.6575 540.2557,-714.0712"/><polygon fill="#000" stroke="#000" points="542.692 -711.558 533.146 -706.962 537.742 -716.508 542.692 -711.558"/><text x="1210.209" y="-1405.715" fill="#000" font-family="Times,serif" font-size="14" text-anchor="middle">owner</text></g><g id="edge20" class="edge"><title>MCD_ADM-&gt;MCD_ADM</title><path fill="none" stroke="#000" d="M1965.8796,-2113.8987C1975.9375,-2113.7625 1983.8357,-2111.5147 1983.8357,-2107.1553 1983.8357,-2104.4307 1980.7505,-2102.5309 1975.981,-2101.456"/><polygon fill="#000" stroke="#000" points="1976.187 -2097.959 1965.88 -2100.412 1975.467 -2104.922 1976.187 -2097.959"/><text x="2009.109" y="-2102.955" fill="#000" font-family="Times,serif" font-size="14" text-anchor="middle">authority</text></g><g id="node18" class="node"><title>PROXY_DEPLOYER</title><polygon fill="none" stroke="#000" points="505.406 -910.169 400.345 -910.169 400.345 -874.169 505.406 -874.169 505.406 -910.169"/><text x="452.875" y="-887.97" fill="#000" font-family="Times,serif" font-size="14" text-anchor="middle">Proxy Deployer</text></g><g id="edge21" class="edge"><title>PROXY_DEPLOYER-&gt;zero</title><path fill="none" stroke="#000" d="M458.3587,-874.0933C469.191,-838.384 493.396,-758.5907 506.257,-716.1939"/><polygon fill="#000" stroke="#000" points="509.639 -717.101 509.193 -706.515 502.941 -715.068 509.639 -717.101"/><text x="457.034" y="-799.344" fill="#000" font-family="Times,serif" font-size="14" text-anchor="middle">authority</text></g><g id="edge6" class="edge"><title>PROXY_DEPLOYER-&gt;deployer</title><path fill="none" stroke="#000" d="M462.5597,-910.2875C535.5798,-1046.8987 999.2529,-1914.3699 1087.7242,-2079.8881"/><polygon fill="#000" stroke="#000" points="1084.758 -2081.763 1092.559 -2088.933 1090.931 -2078.463 1084.758 -2081.763"/><text x="757.651" y="-1499.288" fill="#000" font-family="Times,serif" font-size="14" text-anchor="middle">owner</text></g><g id="node20" class="node"><title>PIP_ETH</title><polygon fill="none" stroke="#000" points="498.926 -1122 365.097 -1122 365.097 -1086 498.926 -1086 498.926 -1122"/><text x="432.012" y="-1099.8" fill="#000" font-family="Times,serif" font-size="14" text-anchor="middle">PIP_ETH - DSValue</text></g><g id="edge22" class="edge"><title>PIP_ETH-&gt;zero</title><path fill="none" stroke="#000" d="M435.6165,-1085.8784C448.6141,-1020.5351 493.1411,-796.6828 508.9993,-716.9579"/><polygon fill="#000" stroke="#000" points="512.522 -717.187 511.041 -706.697 505.657 -715.822 512.522 -717.187"/><text x="497.581" y="-905.618" fill="#000" font-family="Times,serif" font-size="14" text-anchor="middle">authority</text></g><g id="edge5" class="edge"><title>PIP_ETH-&gt;deployer</title><path fill="none" stroke="#000" d="M444.2181,-1122.268C525.4674,-1243.866 987.7705,-1935.7515 1084.5387,-2080.5753"/><polygon fill="#000" stroke="#000" points="1081.663 -2082.572 1090.129 -2088.942 1087.484 -2078.683 1081.663 -2082.572"/><text x="746.888" y="-1605.622" fill="#000" font-family="Times,serif" font-size="14" text-anchor="middle">owner</text></g><g id="node22" class="node"><title>Flipper_ETH-A</title><polygon fill="none" stroke="#000" points="2173.981 -219.184 2068.143 -219.184 2068.143 -183.184 2173.981 -183.184 2173.981 -219.184"/><text x="2121.062" y="-196.984" fill="#000" font-family="Times,serif" font-size="14" text-anchor="middle">Flipper_ETH-A</text></g><g id="edge50" class="edge"><title>Flipper_ETH-A-&gt;MCD_PAUSE_PROXY</title><path fill="none" stroke="#000" d="M2143.2522,-219.3954C2172.2831,-243.2205 2223.2601,-285.0561 2255.6817,-311.6639"/><polygon fill="#000" stroke="#000" points="2253.55 -314.442 2263.5 -318.08 2257.99 -309.031 2253.55 -314.442"/><text x="2188.584" y="-269.73" fill="#000" font-family="Times,serif" font-size="14" text-anchor="middle">rely</text></g><g id="edge49" class="edge"><title>Flipper_ETH-A-&gt;MCD_END</title><path fill="none" stroke="#000" d="M2068.156,-206.3948C1844.2931,-228.4434 977.7141,-313.794 787.2103,-332.557"/><polygon fill="#000" stroke="#000" points="786.748 -329.086 777.139 -333.549 787.434 -336.052 786.748 -329.086"/><text x="1416.8" y="-273.676" fill="#000" font-family="Times,serif" font-size="14" text-anchor="middle">rely</text></g><g id="node24" class="node"><title>Flipper_ETH-B</title><polygon fill="none" stroke="#000" points="1985.488 -118.845 1881.191 -118.845 1881.191 -82.845 1985.488 -82.845 1985.488 -118.845"/><text x="1933.34" y="-96.645" fill="#000" font-family="Times,serif" font-size="14" text-anchor="middle">Flipper_ETH-B</text></g><g id="edge53" class="edge"><title>Flipper_ETH-B-&gt;MCD_PAUSE_PROXY</title><path fill="none" stroke="#000" d="M1960.3963,-118.9232C2023.2771,-160.9388 2179.2734,-265.1722 2249.8761,-312.3475"/><polygon fill="#000" stroke="#000" points="2248.193 -315.432 2258.453 -318.078 2252.082 -309.612 2248.193 -315.432"/><text x="2116.019" y="-219.835" fill="#000" font-family="Times,serif" font-size="14" text-anchor="middle">rely</text></g><g id="edge52" class="edge"><title>Flipper_ETH-B-&gt;MCD_END</title><path fill="none" stroke="#000" d="M1880.968,-111.2621C1679.779,-151.2811 959.2107,-294.611 787.1344,-328.8391"/><polygon fill="#000" stroke="#000" points="786.409 -325.415 777.284 -330.798 787.775 -332.28 786.409 -325.415"/><text x="1323.168" y="-224.251" fill="#000" font-family="Times,serif" font-size="14" text-anchor="middle">rely</text></g><g id="node26" class="node"><title>Flipper_ETH-C</title><polygon fill="none" stroke="#000" points="1781.799 -57.056 1677.501 -57.056 1677.501 -21.056 1781.799 -21.056 1781.799 -57.056"/><text x="1729.65" y="-34.856" fill="#000" font-family="Times,serif" font-size="14" text-anchor="middle">Flipper_ETH-C</text></g><g id="edge56" class="edge"><title>Flipper_ETH-C-&gt;MCD_PAUSE_PROXY</title><path fill="none" stroke="#000" d="M1763.5902,-57.1975C1860.1457,-108.8075 2136.253,-256.3899 2242.8708,-313.3783"/><polygon fill="#000" stroke="#000" points="2241.284 -316.498 2251.753 -318.126 2244.583 -310.325 2241.284 -316.498"/><text x="1992.348" y="-189.488" fill="#000" font-family="Times,serif" font-size="14" text-anchor="middle">rely</text></g><g id="edge55" class="edge"><title>Flipper_ETH-C-&gt;MCD_END</title><path fill="none" stroke="#000" d="M1677.328,-54.9277C1501.9489,-108.1283 937.4834,-279.3571 787.126,-324.9675"/><polygon fill="#000" stroke="#000" points="785.981 -321.657 777.427 -327.91 788.013 -328.356 785.981 -321.657"/><text x="1221.344" y="-194.148" fill="#000" font-family="Times,serif" font-size="14" text-anchor="middle">rely</text></g><g id="node27" class="node"><title>PIP_COL1</title><polygon fill="none" stroke="#000" points="523.573 -1333.831 382.177 -1333.831 382.177 -1297.831 523.573 -1297.831 523.573 -1333.831"/><text x="452.875" y="-1311.63" fill="#000" font-family="Times,serif" font-size="14" text-anchor="middle">PIP_COL1 - DSValue</text></g><g id="edge23" class="edge"><title>PIP_COL1-&gt;zero</title><path fill="none" stroke="#000" d="M454.6579,-1297.7317C463.3429,-1209.5515 501.2369,-824.8071 511.8767,-716.7795"/><polygon fill="#000" stroke="#000" points="515.377 -716.947 512.874 -706.652 508.411 -716.26 515.377 -716.947"/><text x="457.994" y="-1011.456" fill="#000" font-family="Times,serif" font-size="14" text-anchor="middle">authority</text></g><g id="edge4" class="edge"><title>PIP_COL1-&gt;deployer</title><path fill="none" stroke="#000" d="M467.6597,-1333.8453C552.7427,-1437.5192 979.7023,-1957.771 1080.8082,-2080.9689"/><polygon fill="#000" stroke="#000" points="1078.204 -2083.313 1087.253 -2088.822 1083.615 -2078.872 1078.204 -2083.313"/><text x="756.743" y="-1711.607" fill="#000" font-family="Times,serif" font-size="14" text-anchor="middle">owner</text></g><g id="node29" class="node"><title>Flipper_COL1-A</title><polygon fill="none" stroke="#000" points="1574.522 -36.193 1461.117 -36.193 1461.117 -.193 1574.522 -.193 1574.522 -36.193"/><text x="1517.819" y="-13.992" fill="#000" font-family="Times,serif" font-size="14" text-anchor="middle">Flipper_COL1-A</text></g><g id="edge59" class="edge"><title>Flipper_COL1-A-&gt;MCD_PAUSE_PROXY</title><path fill="none" stroke="#000" d="M1561.2985,-36.2022C1693.2461,-90.8567 2088.8299,-254.7128 2232.6178,-314.2717"/><polygon fill="#000" stroke="#000" points="2231.546 -317.616 2242.124 -318.209 2234.225 -311.149 2231.546 -317.616"/><text x="1886.075" y="-179.437" fill="#000" font-family="Times,serif" font-size="14" text-anchor="middle">rely</text></g><g id="edge58" class="edge"><title>Flipper_COL1-A-&gt;MCD_END</title><path fill="none" stroke="#000" d="M1474.3402,-36.2022C1336.9138,-93.1261 913.503,-268.5086 786.4488,-321.1361"/><polygon fill="#000" stroke="#000" points="785.032 -317.935 777.133 -324.995 787.711 -324.402 785.032 -317.935"/><text x="1119.512" y="-182.869" fill="#000" font-family="Times,serif" font-size="14" text-anchor="middle">rely</text></g><g id="node30" class="node"><title>PIP_COL2</title><polygon fill="none" stroke="#000" points="585.362 -1537.521 443.966 -1537.521 443.966 -1501.521 585.362 -1501.521 585.362 -1537.521"/><text x="514.664" y="-1515.321" fill="#000" font-family="Times,serif" font-size="14" text-anchor="middle">PIP_COL2 - DSValue</text></g><g id="edge24" class="edge"><title>PIP_COL2-&gt;zero</title><path fill="none" stroke="#000" d="M514.664,-1501.3902C514.664,-1394.6102 514.664,-847.9229 514.664,-716.7824"/><polygon fill="#000" stroke="#000" points="518.164 -716.727 514.664 -706.727 511.164 -716.727 518.164 -716.727"/><text x="539.938" y="-1113.286" fill="#000" font-family="Times,serif" font-size="14" text-anchor="middle">authority</text></g><g id="edge3" class="edge"><title>PIP_COL2-&gt;deployer</title><path fill="none" stroke="#000" d="M532.8952,-1537.7517C618.2349,-1623.0914 978.2426,-1983.0991 1077.0955,-2081.952"/><polygon fill="#000" stroke="#000" points="1074.734 -2084.541 1084.28 -2089.137 1079.684 -2079.591 1074.734 -2084.541"/><text x="787.505" y="-1814.052" fill="#000" font-family="Times,serif" font-size="14" text-anchor="middle">owner</text></g><g id="node32" class="node"><title>Flipper_COL2-A</title><polygon fill="none" stroke="#000" points="1362.691 -57.056 1249.287 -57.056 1249.287 -21.056 1362.691 -21.056 1362.691 -57.056"/><text x="1305.989" y="-34.856" fill="#000" font-family="Times,serif" font-size="14" text-anchor="middle">Flipper_COL2-A</text></g><g id="edge62" class="edge"><title>Flipper_COL2-A-&gt;MCD_PAUSE_PROXY</title><path fill="none" stroke="#000" d="M1362.8912,-56.3171C1535.1218,-108.5628 2049.7574,-264.6757 2225.7857,-318.0733"/><polygon fill="#000" stroke="#000" points="2224.816 -321.437 2235.402 -320.99 2226.848 -314.738 2224.816 -321.437"/><text x="1783.456" y="-191.395" fill="#000" font-family="Times,serif" font-size="14" text-anchor="middle">rely</text></g><g id="edge61" class="edge"><title>Flipper_COL2-A-&gt;MCD_END</title><path fill="none" stroke="#000" d="M1272.0485,-57.1975C1173.4009,-109.9257 887.3365,-262.8303 786.0798,-316.9532"/><polygon fill="#000" stroke="#000" points="784.318 -313.926 777.148 -321.727 787.617 -320.1 784.318 -313.926"/><text x="1018.181" y="-191.275" fill="#000" font-family="Times,serif" font-size="14" text-anchor="middle">rely</text></g><g id="node33" class="node"><title>PIP_COL3</title><polygon fill="none" stroke="#000" points="685.701 -1725.242 544.306 -1725.242 544.306 -1689.242 685.701 -1689.242 685.701 -1725.242"/><text x="615.003" y="-1703.042" fill="#000" font-family="Times,serif" font-size="14" text-anchor="middle">PIP_COL3 - DSValue</text></g><g id="edge25" class="edge"><title>PIP_COL3-&gt;zero</title><path fill="none" stroke="#000" d="M613.2193,-1689.1274C601.2146,-1567.2416 532.2479,-867.0112 517.4568,-716.8348"/><polygon fill="#000" stroke="#000" points="520.913 -716.22 516.45 -706.611 513.947 -716.906 520.913 -716.22"/><text x="540.064" y="-1207.181" fill="#000" font-family="Times,serif" font-size="14" text-anchor="middle">authority</text></g><g id="edge14" class="edge"><title>PIP_COL3-&gt;deployer</title><path fill="none" stroke="#000" d="M637.2077,-1725.4649C716.0192,-1790.1439 982.4005,-2008.7573 1072.3463,-2082.5739"/><polygon fill="#000" stroke="#000" points="1070.293 -2085.416 1080.243 -2089.055 1074.734 -2080.005 1070.293 -2085.416"/><text x="837.286" y="-1908.219" fill="#000" font-family="Times,serif" font-size="14" text-anchor="middle">owner</text></g><g id="node35" class="node"><title>Flipper_COL3-A</title><polygon fill="none" stroke="#000" points="1159.001 -118.845 1045.597 -118.845 1045.597 -82.845 1159.001 -82.845 1159.001 -118.845"/><text x="1102.299" y="-96.645" fill="#000" font-family="Times,serif" font-size="14" text-anchor="middle">Flipper_COL3-A</text></g><g id="edge65" class="edge"><title>Flipper_COL3-A-&gt;MCD_PAUSE_PROXY</title><path fill="none" stroke="#000" d="M1158.9733,-112.1179C1357.6545,-151.6381 2021.5564,-283.6964 2225.4948,-324.2623"/><polygon fill="#000" stroke="#000" points="2224.935 -327.719 2235.426 -326.238 2226.301 -320.854 2224.935 -327.719"/><text x="1681.351" y="-222.39" fill="#000" font-family="Times,serif" font-size="14" text-anchor="middle">rely</text></g><g id="edge64" class="edge"><title>Flipper_COL3-A-&gt;MCD_END</title><path fill="none" stroke="#000" d="M1075.2424,-118.9232C1012.3616,-160.9388 856.3653,-265.1722 785.7626,-312.3475"/><polygon fill="#000" stroke="#000" points="783.556 -309.612 777.186 -318.078 787.445 -315.432 783.556 -309.612"/><text x="919.62" y="-219.835" fill="#000" font-family="Times,serif" font-size="14" text-anchor="middle">rely</text></g><g id="node36" class="node"><title>PIP_COL4</title><polygon fill="none" stroke="#000" points="820.736 -1889.782 679.34 -1889.782 679.34 -1853.782 820.736 -1853.782 820.736 -1889.782"/><text x="750.038" y="-1867.582" fill="#000" font-family="Times,serif" font-size="14" text-anchor="middle">PIP_COL4 - DSValue</text></g><g id="edge26" class="edge"><title>PIP_COL4-&gt;zero</title><path fill="none" stroke="#000" d="M746.4345,-1853.6685C719.7499,-1719.5159 552.9581,-880.9968 520.2321,-716.4722"/><polygon fill="#000" stroke="#000" points="523.657 -715.75 518.273 -706.625 516.792 -717.115 523.657 -715.75"/><text x="608.06" y="-1289.27" fill="#000" font-family="Times,serif" font-size="14" text-anchor="middle">authority</text></g><g id="edge1" class="edge"><title>PIP_COL4-&gt;deployer</title><path fill="none" stroke="#000" d="M777.094,-1889.8604C839.9748,-1931.876 995.971,-2036.1093 1066.5738,-2083.2846"/><polygon fill="#000" stroke="#000" points="1064.891 -2086.37 1075.15 -2089.015 1068.78 -2080.549 1064.891 -2086.37"/><text x="904.343" y="-1973.973" fill="#000" font-family="Times,serif" font-size="14" text-anchor="middle">owner</text></g><g id="node38" class="node"><title>Flipper_COL4-A</title><polygon fill="none" stroke="#000" points="971.279 -219.184 857.875 -219.184 857.875 -183.184 971.279 -183.184 971.279 -219.184"/><text x="914.577" y="-196.984" fill="#000" font-family="Times,serif" font-size="14" text-anchor="middle">Flipper_COL4-A</text></g><g id="edge68" class="edge"><title>Flipper_COL4-A-&gt;MCD_PAUSE_PROXY</title><path fill="none" stroke="#000" d="M971.31,-206.7718C1192.7832,-228.585 1998.0951,-307.9013 2225.4561,-330.2944"/><polygon fill="#000" stroke="#000" points="2225.231 -333.789 2235.526 -331.286 2225.917 -326.823 2225.231 -333.789"/><text x="1587.5" y="-272.733" fill="#000" font-family="Times,serif" font-size="14" text-anchor="middle">rely</text></g><g id="edge67" class="edge"><title>Flipper_COL4-A-&gt;MCD_END</title><path fill="none" stroke="#000" d="M892.3865,-219.3954C863.3555,-243.2205 812.3786,-285.0561 779.957,-311.6639"/><polygon fill="#000" stroke="#000" points="777.648 -309.031 772.139 -318.08 782.089 -314.442 777.648 -309.031"/><text x="825.289" y="-269.73" fill="#000" font-family="Times,serif" font-size="14" text-anchor="middle">rely</text></g><g id="node39" class="node"><title>PIP_COL5</title><polygon fill="none" stroke="#000" points="985.275 -2024.816 843.879 -2024.816 843.879 -1988.816 985.275 -1988.816 985.275 -2024.816"/><text x="914.577" y="-2002.616" fill="#000" font-family="Times,serif" font-size="14" text-anchor="middle">PIP_COL5 - DSValue</text></g><g id="edge2" class="edge"><title>PIP_COL5-&gt;zero</title><path fill="none" stroke="#000" d="M909.0759,-1988.6812C865.4981,-1845.0244 576.3523,-891.8386 523.0893,-716.2538"/><polygon fill="#000" stroke="#000" points="526.377 -715.034 520.125 -706.48 519.678 -717.066 526.377 -715.034"/><text x="690.809" y="-1356.668" fill="#000" font-family="Times,serif" font-size="14" text-anchor="middle">authority</text></g><g id="edge27" class="edge"><title>PIP_COL5-&gt;deployer</title><path fill="none" stroke="#000" d="M948.572,-2024.9866C980.0561,-2041.8152 1026.9637,-2066.8879 1060.6775,-2084.9082"/><polygon fill="#000" stroke="#000" points="1059.344 -2088.164 1069.813 -2089.791 1062.643 -2081.99 1059.344 -2088.164"/><text x="987.134" y="-2059.147" fill="#000" font-family="Times,serif" font-size="14" text-anchor="middle">owner</text></g><g id="node41" class="node"><title>Flipper_COL5-A</title><polygon fill="none" stroke="#000" points="671.706 -518.758 558.301 -518.758 558.301 -482.758 671.706 -482.758 671.706 -518.758"/><text x="615.003" y="-496.558" fill="#000" font-family="Times,serif" font-size="14" text-anchor="middle">Flipper_COL5-A</text></g><g id="edge71" class="edge"><title>Flipper_COL5-A-&gt;MCD_PAUSE_PROXY</title><path fill="none" stroke="#000" d="M672.0259,-495.1415C927.2389,-470.0052 1963.5043,-367.9419 2225.2979,-342.1575"/><polygon fill="#000" stroke="#000" points="2225.763 -345.629 2235.372 -341.165 2225.077 -338.662 2225.763 -345.629"/><text x="1437.779" y="-422.849" fill="#000" font-family="Times,serif" font-size="14" text-anchor="middle">rely</text></g><g id="edge70" class="edge"><title>Flipper_COL5-A-&gt;MCD_END</title><path fill="none" stroke="#000" d="M629.9704,-482.5204C653.9622,-453.2863 701.122,-395.8219 728.6576,-362.2697"/><polygon fill="#000" stroke="#000" points="731.571 -364.237 735.209 -354.286 726.16 -359.796 731.571 -364.237"/><text x="668.431" y="-426.595" fill="#000" font-family="Times,serif" font-size="14" text-anchor="middle">rely</text></g><g id="node43" class="node"><title>isolated</title><polygon fill="none" stroke="#000" points="3090.555 -176 2509.084 -176 2509.084 0 3090.555 0 3090.555 -176"/><text x="2799.819" y="-159.4" fill="#000" font-family="Times,serif" font-size="14" text-anchor="middle">Isolated Contracts:</text><text x="2799.819" y="-142.6" fill="#000" font-family="Times,serif" font-size="14" text-anchor="middle">MCD_DAI, MCD_JOIN_DAI, MULTICALL, FAUCET, VOTE_PROXY_FACTORY,</text><text x="2799.819" y="-125.8" fill="#000" font-family="Times,serif" font-size="14" text-anchor="middle">PROXY_ACTIONS, CDP_MANAGER, GET_CDPS, PROXY_FACTORY,</text><text x="2799.819" y="-109" fill="#000" font-family="Times,serif" font-size="14" text-anchor="middle">PROXY_REGISTRY, PROXY_PAUSE_ACTIONS, MCD_GOV_ACTIONS, GOV_POLL_GEN,</text><text x="2799.819" y="-92.2" fill="#000" font-family="Times,serif" font-size="14" text-anchor="middle">VOTE_YES, VOTE_NO, MCD_ESM, ETH,</text><text x="2799.819" y="-75.4" fill="#000" font-family="Times,serif" font-size="14" text-anchor="middle">COL1, COL2, COL3, COL4,</text><text x="2799.819" y="-58.6" fill="#000" font-family="Times,serif" font-size="14" text-anchor="middle">COL5, vatFab, jugFab, vowFab,</text><text x="2799.819" y="-41.8" fill="#000" font-family="Times,serif" font-size="14" text-anchor="middle">catFab, daiFab, daiJoinFab, flapFab,</text><text x="2799.819" y="-25" fill="#000" font-family="Times,serif" font-size="14" text-anchor="middle">flopFab, flipFab, spotFab, potFab,</text><text x="2799.819" y="-8.2" fill="#000" font-family="Times,serif" font-size="14" text-anchor="middle">pauseFab</text></g></g></svg>