<svg xmlns="http://www.w3.org/2000/svg" xmlns:xlink="http://www.w3.org/1999/xlink" width="2168" height="2260" viewBox="0 0 1626.04 1695.28"><g id="graph0" class="graph" transform="scale(1 1) rotate(0) translate(4 1691.2824)"><title>%0</title><polygon fill="#fff" stroke="transparent" points="-4 4 -4 -1691.282 1622.036 -1691.282 1622.036 4 -4 4"/><g id="node1" class="node"><title>zero</title><polygon fill="none" stroke="#000" points="284.892 -846.046 230.892 -846.046 230.892 -810.046 284.892 -810.046 284.892 -846.046"/><text x="257.892" y="-823.846" fill="#000" font-family="Times,serif" font-size="14" text-anchor="middle">zero</text></g><g id="node2" class="node"><title>deployer</title><polygon fill="none" stroke="#000" points="64.971 -846.046 .01 -846.046 .01 -810.046 64.971 -810.046 64.971 -846.046"/><text x="32.49" y="-823.846" fill="#000" font-family="Times,serif" font-size="14" text-anchor="middle">deployer</text></g><g id="node3" class="node"><title>MCD_DEPLOY</title><polygon fill="none" stroke="#000" points="184.399 -733.345 105.983 -733.345 105.983 -697.345 184.399 -697.345 184.399 -733.345"/><text x="145.191" y="-711.145" fill="#000" font-family="Times,serif" font-size="14" text-anchor="middle">DssDeploy</text></g><g id="edge9" class="edge"><title>MCD_DEPLOY-&gt;zero</title><path fill="none" stroke="#000" d="M163.2985,-733.4526C182.0294,-752.1835 211.4344,-781.5884 232.4867,-802.6408"/><polygon fill="#000" stroke="#000" points="230.284 -805.388 239.83 -809.984 235.233 -800.438 230.284 -805.388"/><text x="172.619" y="-772.247" fill="#000" font-family="Times,serif" font-size="14" text-anchor="middle">authority</text></g><g id="edge2" class="edge"><title>MCD_DEPLOY-&gt;deployer</title><path fill="none" stroke="#000" d="M127.0838,-733.4526C108.3528,-752.1835 78.9479,-781.5884 57.8956,-802.6408"/><polygon fill="#000" stroke="#000" points="55.149 -800.438 50.553 -809.984 60.099 -805.388 55.149 -800.438"/><text x="74.999" y="-772.247" fill="#000" font-family="Times,serif" font-size="14" text-anchor="middle">owner</text></g><g id="node4" class="node"><title>MCD_VAT</title><polygon fill="none" stroke="#000" points="1565.225 -1181.369 1511.225 -1181.369 1511.225 -1145.369 1565.225 -1145.369 1565.225 -1181.369"/><text x="1538.225" y="-1159.169" fill="#000" font-family="Times,serif" font-size="14" text-anchor="middle">Vat</text></g><g id="node7" class="node"><title>MCD_JUG</title><polygon fill="none" stroke="#000" points="1618.036 -1012.369 1564.036 -1012.369 1564.036 -976.369 1618.036 -976.369 1618.036 -1012.369"/><text x="1591.036" y="-990.169" fill="#000" font-family="Times,serif" font-size="14" text-anchor="middle">Jug</text></g><g id="edge22" class="edge"><title>MCD_VAT-&gt;MCD_JUG</title><path fill="none" stroke="#000" d="M1543.8768,-1145.2827C1553.1041,-1115.7549 1571.4651,-1056.9982 1582.3549,-1022.15"/><polygon fill="#000" stroke="#000" points="1585.703 -1023.169 1585.345 -1012.58 1579.022 -1021.081 1585.703 -1023.169"/><text x="1552.233" y="-1087.916" fill="#000" font-family="Times,serif" font-size="14" text-anchor="middle">rely</text></g><g id="node8" class="node"><title>MCD_POT</title><polygon fill="none" stroke="#000" points="1215.071 -512.904 1161.071 -512.904 1161.071 -476.904 1215.071 -476.904 1215.071 -512.904"/><text x="1188.071" y="-490.704" fill="#000" font-family="Times,serif" font-size="14" text-anchor="middle">Pot</text></g><g id="edge23" class="edge"><title>MCD_VAT-&gt;MCD_POT</title><path fill="none" stroke="#000" d="M1528.6778,-1145.1421C1480.1118,-1052.4268 1260.5165,-633.2063 1202.2823,-522.0337"/><polygon fill="#000" stroke="#000" points="1205.351 -520.348 1197.61 -513.114 1199.15 -523.596 1205.351 -520.348"/><text x="1354.597" y="-837.788" fill="#000" font-family="Times,serif" font-size="14" text-anchor="middle">rely</text></g><g id="node12" class="node"><title>MCD_CAT</title><polygon fill="none" stroke="#000" points="813.646 -1249.058 759.646 -1249.058 759.646 -1213.058 813.646 -1213.058 813.646 -1249.058"/><text x="786.646" y="-1226.858" fill="#000" font-family="Times,serif" font-size="14" text-anchor="middle">Cat</text></g><g id="edge26" class="edge"><title>MCD_VAT-&gt;MCD_CAT</title><path fill="none" stroke="#000" d="M1511.032,-1165.8177C1396.7533,-1176.11 955.2568,-1215.8726 823.7886,-1227.7131"/><polygon fill="#000" stroke="#000" points="823.448 -1224.229 813.802 -1228.612 824.076 -1231.201 823.448 -1224.229"/><text x="1156.527" y="-1200.965" fill="#000" font-family="Times,serif" font-size="14" text-anchor="middle">rely</text></g><g id="node13" class="node"><title>MCD_SPOT</title><polygon fill="none" stroke="#000" points="1040.166 -528.786 983.285 -528.786 983.285 -492.786 1040.166 -492.786 1040.166 -528.786"/><text x="1011.726" y="-506.586" fill="#000" font-family="Times,serif" font-size="14" text-anchor="middle">Spotter</text></g><g id="edge20" class="edge"><title>MCD_VAT-&gt;MCD_SPOT</title><path fill="none" stroke="#000" d="M1523.594,-1145.2337C1449.9388,-1053.9399 1119.8345,-644.784 1032.8114,-536.9211"/><polygon fill="#000" stroke="#000" points="1035.289 -534.418 1026.286 -528.833 1029.841 -538.814 1035.289 -534.418"/><text x="1267.32" y="-845.277" fill="#000" font-family="Times,serif" font-size="14" text-anchor="middle">rely</text></g><g id="node16" class="node"><title>MCD_PAUSE_PROXY</title><polygon fill="none" stroke="#000" points="904.87 -610.944 804.893 -610.944 804.893 -574.944 904.87 -574.944 904.87 -610.944"/><text x="854.882" y="-588.744" fill="#000" font-family="Times,serif" font-size="14" text-anchor="middle">DSPauseProxy</text></g><g id="edge34" class="edge"><title>MCD_VAT-&gt;MCD_PAUSE_PROXY</title><path fill="none" stroke="#000" d="M1516.6454,-1145.3548C1416.7272,-1061.9475 999.0268,-713.2696 884.202,-617.419"/><polygon fill="#000" stroke="#000" points="886.386 -614.683 876.467 -610.962 881.9 -620.057 886.386 -614.683"/><text x="1189.541" y="-885.587" fill="#000" font-family="Times,serif" font-size="14" text-anchor="middle">rely</text></g><g id="node21" class="node"><title>MCD_END</title><polygon fill="none" stroke="#000" points="1451.761 -1317.294 1397.761 -1317.294 1397.761 -1281.294 1451.761 -1281.294 1451.761 -1317.294"/><text x="1424.761" y="-1295.094" fill="#000" font-family="Times,serif" font-size="14" text-anchor="middle">End</text></g><g id="edge28" class="edge"><title>MCD_VAT-&gt;MCD_END</title><path fill="none" stroke="#000" d="M1523.1579,-1181.4185C1503.4908,-1204.9788 1468.9351,-1246.3749 1446.4506,-1273.3103"/><polygon fill="#000" stroke="#000" points="1443.611 -1271.25 1439.89 -1281.17 1448.985 -1275.736 1443.611 -1271.25"/><text x="1473.921" y="-1231.564" fill="#000" font-family="Times,serif" font-size="14" text-anchor="middle">rely</text></g><g id="node26" class="node"><title>ETHJoin_A</title><polygon fill="none" stroke="#000" points="1616.808 -836.023 1533.5 -836.023 1533.5 -800.023 1616.808 -800.023 1616.808 -836.023"/><text x="1575.154" y="-813.823" fill="#000" font-family="Times,serif" font-size="14" text-anchor="middle">ETHJoin_A</text></g><g id="edge43" class="edge"><title>MCD_VAT-&gt;ETHJoin_A</title><path fill="none" stroke="#000" d="M1540.1586,-1145.2876C1546.2019,-1088.7727 1564.7693,-915.1382 1572.1161,-846.4338"/><polygon fill="#000" stroke="#000" points="1575.612 -846.658 1573.195 -836.342 1568.652 -845.913 1575.612 -846.658"/><text x="1545.254" y="-1000.061" fill="#000" font-family="Times,serif" font-size="14" text-anchor="middle">rely</text></g><g id="node28" class="node"><title>BATJoin_A</title><polygon fill="none" stroke="#000" points="1535.435 -679.179 1450.558 -679.179 1450.558 -643.179 1535.435 -643.179 1535.435 -679.179"/><text x="1492.996" y="-656.979" fill="#000" font-family="Times,serif" font-size="14" text-anchor="middle">BATJoin_A</text></g><g id="edge47" class="edge"><title>MCD_VAT-&gt;BATJoin_A</title><path fill="none" stroke="#000" d="M1536.5887,-1145.1988C1529.8013,-1069.8358 1503.8326,-781.4975 1495.5504,-689.5384"/><polygon fill="#000" stroke="#000" points="1499.014 -688.971 1494.631 -679.325 1492.042 -689.598 1499.014 -688.971"/><text x="1505.187" y="-921.569" fill="#000" font-family="Times,serif" font-size="14" text-anchor="middle">rely</text></g><g id="node31" class="node"><title>SAIJoin_A</title><polygon fill="none" stroke="#000" points="1396.563 -565.715 1317.579 -565.715 1317.579 -529.715 1396.563 -529.715 1396.563 -565.715"/><text x="1357.071" y="-543.515" fill="#000" font-family="Times,serif" font-size="14" text-anchor="middle">SAIJoin_A</text></g><g id="edge51" class="edge"><title>MCD_VAT-&gt;SAIJoin_A</title><path fill="none" stroke="#000" d="M1532.9016,-1145.2767C1507.2521,-1058.1065 1396.3777,-681.2992 1365.2345,-575.459"/><polygon fill="#000" stroke="#000" points="1368.575 -574.413 1362.395 -565.808 1361.86 -576.389 1368.575 -574.413"/><text x="1438.185" y="-864.568" fill="#000" font-family="Times,serif" font-size="14" text-anchor="middle">rely</text></g><g id="node5" class="node"><title>MCD_DAI</title><polygon fill="none" stroke="#000" points="372.418 -354.046 318.418 -354.046 318.418 -318.046 372.418 -318.046 372.418 -354.046"/><text x="345.418" y="-331.846" fill="#000" font-family="Times,serif" font-size="14" text-anchor="middle">Dai</text></g><g id="node6" class="node"><title>MCD_JOIN_DAI</title><polygon fill="none" stroke="#000" points="503.74 -354.046 444.642 -354.046 444.642 -318.046 503.74 -318.046 503.74 -354.046"/><text x="474.191" y="-331.846" fill="#000" font-family="Times,serif" font-size="14" text-anchor="middle">DaiJoin</text></g><g id="edge21" class="edge"><title>MCD_DAI-&gt;MCD_JOIN_DAI</title><path fill="none" stroke="#000" d="M372.7272,-336.0461C390.5822,-336.0461 414.2077,-336.0461 434.1686,-336.0461"/><polygon fill="#000" stroke="#000" points="434.223 -339.546 444.223 -336.046 434.223 -332.546 434.223 -339.546"/><text x="392.565" y="-340.246" fill="#000" font-family="Times,serif" font-size="14" text-anchor="middle">rely</text></g><g id="edge37" class="edge"><title>MCD_JUG-&gt;MCD_PAUSE_PROXY</title><path fill="none" stroke="#000" d="M1563.9631,-979.6058C1452.8985,-919.0423 1031.7148,-689.3708 896.7586,-615.7791"/><polygon fill="#000" stroke="#000" points="898.372 -612.672 887.917 -610.957 895.02 -618.818 898.372 -612.672"/><text x="1219.478" y="-801.893" fill="#000" font-family="Times,serif" font-size="14" text-anchor="middle">rely</text></g><g id="edge38" class="edge"><title>MCD_POT-&gt;MCD_PAUSE_PROXY</title><path fill="none" stroke="#000" d="M1160.8048,-502.9266C1107.3668,-518.6506 987.7396,-553.8506 914.9191,-575.2777"/><polygon fill="#000" stroke="#000" points="913.572 -572.026 904.966 -578.206 915.548 -578.741 913.572 -572.026"/><text x="1026.979" y="-543.302" fill="#000" font-family="Times,serif" font-size="14" text-anchor="middle">rely</text></g><g id="edge31" class="edge"><title>MCD_POT-&gt;MCD_END</title><path fill="none" stroke="#000" d="M1193.4594,-513.2158C1224.3474,-618.1888 1378.8621,-1143.3081 1416.4897,-1271.1857"/><polygon fill="#000" stroke="#000" points="1413.2 -1272.405 1419.381 -1281.011 1419.915 -1270.429 1413.2 -1272.405"/><text x="1294.092" y="-896.401" fill="#000" font-family="Times,serif" font-size="14" text-anchor="middle">rely</text></g><g id="node9" class="node"><title>MCD_FLAP</title><polygon fill="none" stroke="#000" points="770.681 -746.869 712.154 -746.869 712.154 -710.869 770.681 -710.869 770.681 -746.869"/><text x="741.417" y="-724.669" fill="#000" font-family="Times,serif" font-size="14" text-anchor="middle">Flapper</text></g><g id="node11" class="node"><title>MCD_VOW</title><polygon fill="none" stroke="#000" points="731.488 -1092.214 677.488 -1092.214 677.488 -1056.214 731.488 -1056.214 731.488 -1092.214"/><text x="704.488" y="-1070.014" fill="#000" font-family="Times,serif" font-size="14" text-anchor="middle">Vow</text></g><g id="edge24" class="edge"><title>MCD_FLAP-&gt;MCD_VOW</title><path fill="none" stroke="#000" d="M739.4836,-746.9501C733.4402,-803.465 714.8729,-977.0995 707.5261,-1045.8039"/><polygon fill="#000" stroke="#000" points="704.03 -1045.58 706.447 -1055.896 710.99 -1046.324 704.03 -1045.58"/><text x="734.388" y="-900.577" fill="#000" font-family="Times,serif" font-size="14" text-anchor="middle">rely</text></g><g id="edge40" class="edge"><title>MCD_FLAP-&gt;MCD_PAUSE_PROXY</title><path fill="none" stroke="#000" d="M756.4843,-710.8192C776.1514,-687.2589 810.707,-645.8628 833.1915,-618.9274"/><polygon fill="#000" stroke="#000" points="836.031 -620.988 839.752 -611.068 830.657 -616.502 836.031 -620.988"/><text x="783.955" y="-669.073" fill="#000" font-family="Times,serif" font-size="14" text-anchor="middle">rely</text></g><g id="node10" class="node"><title>MCD_FLOP</title><polygon fill="none" stroke="#000" points="718.156 -915.869 659.056 -915.869 659.056 -879.869 718.156 -879.869 718.156 -915.869"/><text x="688.606" y="-893.669" fill="#000" font-family="Times,serif" font-size="14" text-anchor="middle">Flopper</text></g><g id="edge25" class="edge"><title>MCD_FLOP-&gt;MCD_VOW</title><path fill="none" stroke="#000" d="M690.2457,-916.0767C693.0229,-946.9128 698.6698,-1009.6118 701.9575,-1046.1166"/><polygon fill="#000" stroke="#000" points="698.474 -1046.46 702.857 -1056.105 705.446 -1045.832 698.474 -1046.46"/><text x="685.219" y="-985.297" fill="#000" font-family="Times,serif" font-size="14" text-anchor="middle">rely</text></g><g id="edge41" class="edge"><title>MCD_FLOP-&gt;MCD_PAUSE_PROXY</title><path fill="none" stroke="#000" d="M698.5092,-879.7076C726.5811,-828.2278 806.7927,-681.1316 840.1021,-620.0471"/><polygon fill="#000" stroke="#000" points="843.316 -621.465 845.03 -611.01 837.17 -618.114 843.316 -621.465"/><text x="758.423" y="-754.077" fill="#000" font-family="Times,serif" font-size="14" text-anchor="middle">rely</text></g><g id="edge27" class="edge"><title>MCD_VOW-&gt;MCD_CAT</title><path fill="none" stroke="#000" d="M714.0734,-1092.5132C728.4202,-1119.9021 755.5754,-1171.743 772.2939,-1203.6595"/><polygon fill="#000" stroke="#000" points="769.381 -1205.642 777.122 -1212.876 775.582 -1202.393 769.381 -1205.642"/><text x="732.301" y="-1152.286" fill="#000" font-family="Times,serif" font-size="14" text-anchor="middle">rely</text></g><g id="edge36" class="edge"><title>MCD_VOW-&gt;MCD_PAUSE_PROXY</title><path fill="none" stroke="#000" d="M710.2001,-1055.9356C733.1412,-982.5221 818.6657,-708.8374 846.248,-620.572"/><polygon fill="#000" stroke="#000" points="849.602 -621.572 849.244 -610.984 842.921 -619.485 849.602 -621.572"/><text x="767.341" y="-842.454" fill="#000" font-family="Times,serif" font-size="14" text-anchor="middle">rely</text></g><g id="edge30" class="edge"><title>MCD_VOW-&gt;MCD_END</title><path fill="none" stroke="#000" d="M731.8441,-1082.7628C842.9285,-1117.4759 1260.3971,-1247.9317 1387.6861,-1287.7086"/><polygon fill="#000" stroke="#000" points="1386.788 -1291.095 1397.377 -1290.737 1388.876 -1284.414 1386.788 -1291.095"/><text x="1048.882" y="-1189.436" fill="#000" font-family="Times,serif" font-size="14" text-anchor="middle">rely</text></g><g id="edge35" class="edge"><title>MCD_CAT-&gt;MCD_PAUSE_PROXY</title><path fill="none" stroke="#000" d="M788.5781,-1212.9887C798.1082,-1123.8667 840.1159,-731.0274 851.8359,-621.4261"/><polygon fill="#000" stroke="#000" points="855.351 -621.475 852.934 -611.16 848.39 -620.731 855.351 -621.475"/><text x="809.324" y="-921.407" fill="#000" font-family="Times,serif" font-size="14" text-anchor="middle">rely</text></g><g id="edge29" class="edge"><title>MCD_CAT-&gt;MCD_END</title><path fill="none" stroke="#000" d="M813.6572,-1233.9467C914.7583,-1244.7578 1270.9831,-1282.8501 1387.5418,-1295.3142"/><polygon fill="#000" stroke="#000" points="1387.427 -1298.822 1397.742 -1296.405 1388.171 -1291.861 1387.427 -1298.822"/><text x="1089.717" y="-1268.83" fill="#000" font-family="Times,serif" font-size="14" text-anchor="middle">rely</text></g><g id="edge39" class="edge"><title>MCD_SPOT-&gt;MCD_PAUSE_PROXY</title><path fill="none" stroke="#000" d="M983.3224,-525.664C959.6081,-538.086 925.4209,-555.9939 898.2786,-570.2115"/><polygon fill="#000" stroke="#000" points="896.603 -567.138 889.369 -574.878 899.851 -573.339 896.603 -567.138"/><text x="929.918" y="-552.138" fill="#000" font-family="Times,serif" font-size="14" text-anchor="middle">rely</text></g><g id="edge32" class="edge"><title>MCD_SPOT-&gt;MCD_END</title><path fill="none" stroke="#000" d="M1021.3274,-529.1161C1075.7477,-633.0077 1345.3239,-1147.6447 1410.5381,-1272.1425"/><polygon fill="#000" stroke="#000" points="1407.471 -1273.83 1415.211 -1281.064 1413.672 -1270.582 1407.471 -1273.83"/><text x="1205.05" y="-904.829" fill="#000" font-family="Times,serif" font-size="14" text-anchor="middle">rely</text></g><g id="node14" class="node"><title>MCD_GOV</title><polygon fill="none" stroke="#000" points="665.966 -152.322 611.966 -152.322 611.966 -116.322 665.966 -116.322 665.966 -152.322"/><text x="638.966" y="-130.122" fill="#000" font-family="Times,serif" font-size="14" text-anchor="middle">MKR</text></g><g id="edge8" class="edge"><title>MCD_GOV-&gt;zero</title><path fill="none" stroke="#000" d="M628.969,-152.5205C576.7127,-247.6502 334.9893,-687.6947 272.6117,-801.2499"/><polygon fill="#000" stroke="#000" points="269.531 -799.588 267.784 -810.038 275.667 -802.958 269.531 -799.588"/><text x="425.517" y="-481.085" fill="#000" font-family="Times,serif" font-size="14" text-anchor="middle">authority</text></g><g id="node25" class="node"><title>MKR_MULTISIG</title><polygon fill="none" stroke="#000" points="765.318 -36 678.203 -36 678.203 0 765.318 0 765.318 -36"/><text x="721.761" y="-13.8" fill="#000" font-family="Times,serif" font-size="14" text-anchor="middle">MkrMultisig</text></g><g id="edge18" class="edge"><title>MCD_GOV-&gt;MKR_MULTISIG</title><path fill="none" stroke="#000" d="M651.9026,-116.1464C665.6342,-96.8543 687.4631,-66.186 703.0645,-44.2669"/><polygon fill="#000" stroke="#000" points="705.967 -46.224 708.915 -36.048 700.264 -42.165 705.967 -46.224"/><text x="659.993" y="-84.407" fill="#000" font-family="Times,serif" font-size="14" text-anchor="middle">owner</text></g><g id="node15" class="node"><title>MCD_PAUSE</title><polygon fill="none" stroke="#000" points="723.009 -406.529 656.914 -406.529 656.914 -370.529 723.009 -370.529 723.009 -406.529"/><text x="689.961" y="-384.329" fill="#000" font-family="Times,serif" font-size="14" text-anchor="middle">DSPause</text></g><g id="edge17" class="edge"><title>MCD_PAUSE-&gt;zero</title><path fill="none" stroke="#000" d="M672.2182,-406.5781C604.5309,-475.4322 362.3808,-721.7563 283.1686,-802.3339"/><polygon fill="#000" stroke="#000" points="280.537 -800.018 276.023 -809.603 285.529 -804.925 280.537 -800.018"/><text x="460.202" y="-608.656" fill="#000" font-family="Times,serif" font-size="14" text-anchor="middle">owner</text></g><g id="node18" class="node"><title>MCD_ADM</title><polygon fill="none" stroke="#000" points="704.734 -293.331 639.751 -293.331 639.751 -257.331 704.734 -257.331 704.734 -293.331"/><text x="672.242" y="-271.131" fill="#000" font-family="Times,serif" font-size="14" text-anchor="middle">DSChief</text></g><g id="edge7" class="edge"><title>MCD_PAUSE-&gt;MCD_ADM</title><path fill="none" stroke="#000" d="M687.1145,-370.3419C684.2859,-352.271 679.9089,-324.3087 676.6346,-303.3907"/><polygon fill="#000" stroke="#000" points="680.087 -302.812 675.082 -293.473 673.171 -303.894 680.087 -302.812"/><text x="656.601" y="-341.066" fill="#000" font-family="Times,serif" font-size="14" text-anchor="middle">authority</text></g><g id="edge16" class="edge"><title>MCD_PAUSE_PROXY-&gt;MCD_PAUSE</title><path fill="none" stroke="#000" d="M840.2461,-574.8032C810.9056,-538.4365 744.8078,-456.5098 710.8968,-414.478"/><polygon fill="#000" stroke="#000" points="713.567 -412.214 704.564 -406.629 708.119 -416.609 713.567 -412.214"/><text x="758.081" y="-498.841" fill="#000" font-family="Times,serif" font-size="14" text-anchor="middle">owner</text></g><g id="node17" class="node"><title>MCD_IOU</title><polygon fill="none" stroke="#000" points="610.07 -365.275 556.07 -365.275 556.07 -329.275 610.07 -329.275 610.07 -365.275"/><text x="583.07" y="-343.075" fill="#000" font-family="Times,serif" font-size="14" text-anchor="middle">IOU</text></g><g id="edge6" class="edge"><title>MCD_IOU-&gt;zero</title><path fill="none" stroke="#000" d="M570.7194,-365.5349C520.9151,-439.17 334.6933,-714.4965 275.8393,-801.5114"/><polygon fill="#000" stroke="#000" points="272.784 -799.781 270.081 -810.025 278.583 -803.702 272.784 -799.781"/><text x="398.006" y="-587.723" fill="#000" font-family="Times,serif" font-size="14" text-anchor="middle">authority</text></g><g id="edge15" class="edge"><title>MCD_IOU-&gt;MCD_ADM</title><path fill="none" stroke="#000" d="M605.5717,-329.1207C616.555,-320.2594 629.9303,-309.4683 641.81,-299.8839"/><polygon fill="#000" stroke="#000" points="644.162 -302.483 649.748 -293.48 639.767 -297.035 644.162 -302.483"/><text x="606.2" y="-301.902" fill="#000" font-family="Times,serif" font-size="14" text-anchor="middle">owner</text></g><g id="edge14" class="edge"><title>MCD_ADM-&gt;zero</title><path fill="none" stroke="#000" d="M658.6918,-293.4068C597.8351,-374.5855 349.6187,-705.6891 277.5797,-801.7842"/><polygon fill="#000" stroke="#000" points="274.746 -799.729 271.548 -809.829 280.347 -803.928 274.746 -799.729"/><text x="450.645" y="-551.795" fill="#000" font-family="Times,serif" font-size="14" text-anchor="middle">owner</text></g><g id="edge5" class="edge"><title>MCD_ADM-&gt;MCD_ADM</title><path fill="none" stroke="#000" d="M704.7822,-282.0746C714.84,-281.9384 722.7382,-279.6906 722.7382,-275.3312 722.7382,-272.6066 719.653,-270.7068 714.8836,-269.6319"/><polygon fill="#000" stroke="#000" points="715.089 -266.135 704.782 -268.588 714.369 -273.098 715.089 -266.135"/><text x="748.012" y="-271.131" fill="#000" font-family="Times,serif" font-size="14" text-anchor="middle">authority</text></g><g id="node19" class="node"><title>PROXY_DEPLOYER</title><polygon fill="none" stroke="#000" points="197.721 -958.747 92.661 -958.747 92.661 -922.747 197.721 -922.747 197.721 -958.747"/><text x="145.191" y="-936.547" fill="#000" font-family="Times,serif" font-size="14" text-anchor="middle">Proxy Deployer</text></g><g id="edge4" class="edge"><title>PROXY_DEPLOYER-&gt;zero</title><path fill="none" stroke="#000" d="M163.2985,-922.6397C182.0294,-903.9088 211.4344,-874.5038 232.4867,-853.4515"/><polygon fill="#000" stroke="#000" points="235.233 -855.654 239.83 -846.109 230.284 -850.705 235.233 -855.654"/><text x="172.619" y="-892.246" fill="#000" font-family="Times,serif" font-size="14" text-anchor="middle">authority</text></g><g id="edge13" class="edge"><title>PROXY_DEPLOYER-&gt;deployer</title><path fill="none" stroke="#000" d="M127.0838,-922.6397C108.3528,-903.9088 78.9479,-874.5038 57.8956,-853.4515"/><polygon fill="#000" stroke="#000" points="60.099 -850.705 50.553 -846.109 55.149 -855.654 60.099 -850.705"/><text x="74.999" y="-892.246" fill="#000" font-family="Times,serif" font-size="14" text-anchor="middle">owner</text></g><g id="node20" class="node"><title>SAI_PROXY</title><polygon fill="none" stroke="#000" points="651.461 -1569.331 580.799 -1569.331 580.799 -1533.331 651.461 -1533.331 651.461 -1569.331"/><text x="616.13" y="-1547.131" fill="#000" font-family="Times,serif" font-size="14" text-anchor="middle">Sai Proxy</text></g><g id="edge3" class="edge"><title>SAI_PROXY-&gt;zero</title><path fill="none" stroke="#000" d="M609.6452,-1533.1667C567.7389,-1435.5044 338.993,-973.2181 274.6179,-855.4044"/><polygon fill="#000" stroke="#000" points="277.487 -853.36 269.586 -846.301 271.36 -856.746 277.487 -853.36"/><text x="416.858" y="-1181.686" fill="#000" font-family="Times,serif" font-size="14" text-anchor="middle">authority</text></g><g id="edge12" class="edge"><title>SAI_PROXY-&gt;zero</title><path fill="none" stroke="#000" d="M604.4161,-1533.0413C549.5694,-1435.1593 320.846,-973.6358 268.4738,-855.5836"/><polygon fill="#000" stroke="#000" points="271.565 -853.916 264.353 -846.154 265.15 -856.719 271.565 -853.916"/><text x="418.954" y="-1198.512" fill="#000" font-family="Times,serif" font-size="14" text-anchor="middle">owner</text></g><g id="edge42" class="edge"><title>MCD_END-&gt;MCD_PAUSE_PROXY</title><path fill="none" stroke="#000" d="M1410.1009,-1281.1238C1332.2575,-1184.6389 967.4305,-732.445 875.8014,-618.8731"/><polygon fill="#000" stroke="#000" points="878.447 -616.579 869.444 -610.994 873 -620.974 878.447 -616.579"/><text x="1132.068" y="-954.198" fill="#000" font-family="Times,serif" font-size="14" text-anchor="middle">rely</text></g><g id="node22" class="node"><title>MCD_ESM</title><polygon fill="none" stroke="#000" points="1513.924 -1394.344 1459.924 -1394.344 1459.924 -1358.344 1513.924 -1358.344 1513.924 -1394.344"/><text x="1486.924" y="-1372.144" fill="#000" font-family="Times,serif" font-size="14" text-anchor="middle">ESM</text></g><g id="edge33" class="edge"><title>MCD_END-&gt;MCD_ESM</title><path fill="none" stroke="#000" d="M1439.4924,-1317.5539C1447.3889,-1327.3414 1457.2537,-1339.5685 1465.9386,-1350.3332"/><polygon fill="#000" stroke="#000" points="1463.295 -1352.63 1472.298 -1358.215 1468.743 -1348.235 1463.295 -1352.63"/><text x="1441.833" y="-1338.144" fill="#000" font-family="Times,serif" font-size="14" text-anchor="middle">rely</text></g><g id="node23" class="node"><title>SAI_TUB</title><polygon fill="none" stroke="#000" points="650.895 -1687.282 594.011 -1687.282 594.011 -1651.282 650.895 -1651.282 650.895 -1687.282"/><text x="622.453" y="-1665.082" fill="#000" font-family="Times,serif" font-size="14" text-anchor="middle">SaiTub</text></g><g id="edge11" class="edge"><title>SAI_TUB-&gt;zero</title><path fill="none" stroke="#000" d="M614.4999,-1650.9296C567.5128,-1542.5055 326.3522,-986.0199 269.7797,-855.4773"/><polygon fill="#000" stroke="#000" points="272.929 -853.941 265.741 -846.157 266.506 -856.725 272.929 -853.941"/><text x="424.649" y="-1257.403" fill="#000" font-family="Times,serif" font-size="14" text-anchor="middle">owner</text></g><g id="edge10" class="edge"><title>SAI_TUB-&gt;SAI_PROXY</title><path fill="none" stroke="#000" d="M621.4791,-1651.111C620.461,-1632.1184 618.8491,-1602.0516 617.6607,-1579.8829"/><polygon fill="#000" stroke="#000" points="621.146 -1579.516 617.116 -1569.718 614.156 -1579.891 621.146 -1579.516"/><text x="594.296" y="-1619.697" fill="#000" font-family="Times,serif" font-size="14" text-anchor="middle">authority</text></g><g id="node24" class="node"><title>MIGRATION</title><polygon fill="none" stroke="#000" points="1479.09 -450.419 1360.793 -450.419 1360.793 -414.419 1479.09 -414.419 1479.09 -450.419"/><text x="1419.942" y="-428.219" fill="#000" font-family="Times,serif" font-size="14" text-anchor="middle">ScdMcdMigration</text></g><g id="edge57" class="edge"><title>ETHJoin_A-&gt;MCD_PAUSE_PROXY</title><path fill="none" stroke="#000" d="M1533.3159,-804.9493C1411.6359,-766.9252 1057.5138,-656.2647 915.1673,-611.7824"/><polygon fill="#000" stroke="#000" points="915.879 -608.338 905.29 -608.696 913.791 -615.019 915.879 -608.338"/><text x="1213.359" y="-712.566" fill="#000" font-family="Times,serif" font-size="14" text-anchor="middle">rely</text></g><g id="node27" class="node"><title>Flipper_ETH-A</title><polygon fill="none" stroke="#000" points="975.49 -1362.523 869.653 -1362.523 869.653 -1326.523 975.49 -1326.523 975.49 -1362.523"/><text x="922.571" y="-1340.323" fill="#000" font-family="Times,serif" font-size="14" text-anchor="middle">Flipper_ETH-A</text></g><g id="edge44" class="edge"><title>Flipper_ETH-A-&gt;MCD_CAT</title><path fill="none" stroke="#000" d="M900.7325,-1326.2928C877.8444,-1307.1869 841.7417,-1277.0499 816.2896,-1255.8036"/><polygon fill="#000" stroke="#000" points="818.35 -1252.965 808.43 -1249.243 813.864 -1258.338 818.35 -1252.965"/><text x="847.628" y="-1295.248" fill="#000" font-family="Times,serif" font-size="14" text-anchor="middle">rely</text></g><g id="edge46" class="edge"><title>Flipper_ETH-A-&gt;MCD_PAUSE_PROXY</title><path fill="none" stroke="#000" d="M920.9316,-1326.3168C911.9261,-1226.3256 868.4836,-743.9709 857.4396,-621.3452"/><polygon fill="#000" stroke="#000" points="860.913 -620.891 856.53 -611.246 853.941 -621.519 860.913 -620.891"/><text x="878.303" y="-978.031" fill="#000" font-family="Times,serif" font-size="14" text-anchor="middle">rely</text></g><g id="edge45" class="edge"><title>Flipper_ETH-A-&gt;MCD_END</title><path fill="none" stroke="#000" d="M975.3652,-1339.7681C1077.3638,-1330.5818 1299.2215,-1310.6006 1387.4688,-1302.6527"/><polygon fill="#000" stroke="#000" points="1387.906 -1306.128 1397.551 -1301.745 1387.278 -1299.156 1387.906 -1306.128"/><text x="1170.534" y="-1325.41" fill="#000" font-family="Times,serif" font-size="14" text-anchor="middle">rely</text></g><g id="edge58" class="edge"><title>BATJoin_A-&gt;MCD_PAUSE_PROXY</title><path fill="none" stroke="#000" d="M1450.6337,-656.6494C1340.1929,-644.8396 1043.173,-613.0782 915.0577,-599.3784"/><polygon fill="#000" stroke="#000" points="915.343 -595.889 905.028 -598.306 914.599 -602.849 915.343 -595.889"/><text x="1171.963" y="-632.214" fill="#000" font-family="Times,serif" font-size="14" text-anchor="middle">rely</text></g><g id="node29" class="node"><title>Flipper_BAT-A</title><polygon fill="none" stroke="#000" points="1144.773 -1415.334 1038.369 -1415.334 1038.369 -1379.334 1144.773 -1379.334 1144.773 -1415.334"/><text x="1091.571" y="-1393.134" fill="#000" font-family="Times,serif" font-size="14" text-anchor="middle">Flipper_BAT-A</text></g><g id="edge48" class="edge"><title>Flipper_BAT-A-&gt;MCD_CAT</title><path fill="none" stroke="#000" d="M1058.3583,-1379.2231C1000.7771,-1347.8241 882.8626,-1283.5253 823.0999,-1250.9367"/><polygon fill="#000" stroke="#000" points="824.481 -1247.703 814.026 -1245.989 821.13 -1253.849 824.481 -1247.703"/><text x="929.846" y="-1302.48" fill="#000" font-family="Times,serif" font-size="14" text-anchor="middle">rely</text></g><g id="edge50" class="edge"><title>Flipper_BAT-A-&gt;MCD_PAUSE_PROXY</title><path fill="none" stroke="#000" d="M1086.1828,-1379.0219C1055.2948,-1274.0489 900.78,-748.9296 863.1525,-621.052"/><polygon fill="#000" stroke="#000" points="866.442 -619.832 860.261 -611.227 859.727 -621.808 866.442 -619.832"/><text x="963.785" y="-1004.237" fill="#000" font-family="Times,serif" font-size="14" text-anchor="middle">rely</text></g><g id="edge49" class="edge"><title>Flipper_BAT-A-&gt;MCD_END</title><path fill="none" stroke="#000" d="M1144.7344,-1381.6909C1212.8169,-1361.6579 1329.0329,-1327.4617 1388.0457,-1310.0973"/><polygon fill="#000" stroke="#000" points="1389.088 -1313.439 1397.693 -1307.259 1387.111 -1306.724 1389.088 -1313.439"/><text x="1255.507" y="-1350.094" fill="#000" font-family="Times,serif" font-size="14" text-anchor="middle">rely</text></g><g id="node30" class="node"><title>SAI</title><polygon fill="none" stroke="#000" points="748.44 -1622.831 694.44 -1622.831 694.44 -1586.831 748.44 -1586.831 748.44 -1622.831"/><text x="721.44" y="-1600.631" fill="#000" font-family="Times,serif" font-size="14" text-anchor="middle">SAI</text></g><g id="edge19" class="edge"><title>SAI-&gt;zero</title><path fill="none" stroke="#000" d="M710.6642,-1586.7732C649.6547,-1484.5373 347.6997,-978.5401 274.0929,-855.1944"/><polygon fill="#000" stroke="#000" points="276.943 -853.141 268.813 -846.347 270.932 -856.728 276.943 -853.141"/><text x="474.888" y="-1225.184" fill="#000" font-family="Times,serif" font-size="14" text-anchor="middle">owner</text></g><g id="edge1" class="edge"><title>SAI-&gt;SAI_PROXY</title><path fill="none" stroke="#000" d="M694.3202,-1591.0534C684.0295,-1585.8256 672.0218,-1579.7255 660.5491,-1573.8971"/><polygon fill="#000" stroke="#000" points="662.007 -1570.712 651.506 -1569.303 658.836 -1576.953 662.007 -1570.712"/><text x="652.161" y="-1586.675" fill="#000" font-family="Times,serif" font-size="14" text-anchor="middle">authority</text></g><g id="edge56" class="edge"><title>SAIJoin_A-&gt;MCD_PAUSE_PROXY</title><path fill="none" stroke="#000" d="M1317.2452,-551.3016C1229.4606,-559.2078 1018.884,-578.173 914.9661,-587.5322"/><polygon fill="#000" stroke="#000" points="914.594 -584.052 904.948 -588.434 915.222 -591.023 914.594 -584.052"/><text x="1105.223" y="-573.617" fill="#000" font-family="Times,serif" font-size="14" text-anchor="middle">rely</text></g><g id="edge55" class="edge"><title>SAIJoin_A-&gt;MIGRATION</title><path fill="none" stroke="#000" d="M1366.8945,-529.6998C1377.1231,-510.942 1393.2686,-481.3336 1405.0629,-459.7045"/><polygon fill="#000" stroke="#000" points="1408.265 -461.143 1409.98 -450.688 1402.119 -457.791 1408.265 -461.143"/><text x="1375.096" y="-498.902" fill="#000" font-family="Times,serif" font-size="14" text-anchor="middle">rely</text></g><g id="node32" class="node"><title>Flipper_SAI-A</title><polygon fill="none" stroke="#000" points="1318.173 -1399.452 1217.66 -1399.452 1217.66 -1363.452 1318.173 -1363.452 1318.173 -1399.452"/><text x="1267.917" y="-1377.252" fill="#000" font-family="Times,serif" font-size="14" text-anchor="middle">Flipper_SAI-A</text></g><g id="edge52" class="edge"><title>Flipper_SAI-A-&gt;MCD_CAT</title><path fill="none" stroke="#000" d="M1217.3217,-1365.6413C1120.0357,-1335.2402 908.9707,-1269.2839 823.5967,-1242.6052"/><polygon fill="#000" stroke="#000" points="824.413 -1239.194 813.824 -1239.551 822.325 -1245.875 824.413 -1239.194"/><text x="1009.576" y="-1308.323" fill="#000" font-family="Times,serif" font-size="14" text-anchor="middle">rely</text></g><g id="edge54" class="edge"><title>Flipper_SAI-A-&gt;MCD_PAUSE_PROXY</title><path fill="none" stroke="#000" d="M1258.3148,-1363.1216C1203.8945,-1259.23 934.3183,-744.593 869.1041,-620.0951"/><polygon fill="#000" stroke="#000" points="872.171 -618.408 864.431 -611.173 865.971 -621.656 872.171 -618.408"/><text x="1052.826" y="-995.808" fill="#000" font-family="Times,serif" font-size="14" text-anchor="middle">rely</text></g><g id="edge53" class="edge"><title>Flipper_SAI-A-&gt;MCD_END</title><path fill="none" stroke="#000" d="M1302.3366,-1363.422C1327.8758,-1350.044 1362.6207,-1331.8441 1388.572,-1318.2503"/><polygon fill="#000" stroke="#000" points="1390.468 -1321.208 1397.702 -1313.468 1387.219 -1315.008 1390.468 -1321.208"/><text x="1334.571" y="-1345.036" fill="#000" font-family="Times,serif" font-size="14" text-anchor="middle">rely</text></g><g id="node33" class="node"><title>isolated</title><polygon fill="none" stroke="#000" points="1609.808 -248.447 954.574 -248.447 954.574 -105.646 1609.808 -105.646 1609.808 -248.447"/><text x="1282.191" y="-231.646" fill="#000" font-family="Times,serif" font-size="14" text-anchor="middle">Isolated Contracts:</text><text x="1282.191" y="-214.846" fill="#000" font-family="Times,serif" font-size="14" text-anchor="middle">MULTICALL, PROXY_ACTIONS, PROXY_ACTIONS_END, PROXY_ACTIONS_DSR, CDP_MANAGER,</text><text x="1282.191" y="-198.046" fill="#000" font-family="Times,serif" font-size="14" text-anchor="middle">GET_CDPS, PROXY_FACTORY, PROXY_REGISTRY, PROXY_PAUSE_ACTIONS,</text><text x="1282.191" y="-181.246" fill="#000" font-family="Times,serif" font-size="14" text-anchor="middle">MCD_GOV_ACTIONS, MIGRATION_PROXY_ACTIONS, ETH, PIP_ETH,</text><text x="1282.191" y="-164.446" fill="#000" font-family="Times,serif" font-size="14" text-anchor="middle">BAT, PIP_BAT, PIP_SAI, vatFab,</text><text x="1282.191" y="-147.646" fill="#000" font-family="Times,serif" font-size="14" text-anchor="middle">jugFab, vowFab, catFab, daiFab,</text><text x="1282.191" y="-130.846" fill="#000" font-family="Times,serif" font-size="14" text-anchor="middle">daiJoinFab, flapFab, flopFab, flipFab,</text><text x="1282.191" y="-114.046" fill="#000" font-family="Times,serif" font-size="14" text-anchor="middle">spotFab, potFab, pauseFab, endFab,</text></g></g></svg>